<svg width="29" height="28" viewBox="0 0 29 28" fill="none" xmlns="http://www.w3.org/2000/svg">
<g clip-path="url(#clip0_149_900)">
<path d="M1.487 6.12128L1.62333 6.44137L1.76248 6.12249C1.974 5.63777 2.25976 5.21604 2.61974 4.85607C2.97969 4.49611 3.39653 4.21521 3.87128 4.013L4.19137 3.87667L3.87249 3.73752C3.38777 3.526 2.96604 3.24024 2.60607 2.88026C2.24611 2.52031 1.96521 2.10347 1.763 1.62872L1.62667 1.30863L1.48752 1.62751C1.276 2.11223 0.990237 2.53396 0.630262 2.89393C0.270307 3.25389 -0.14653 3.53479 -0.621279 3.737L-0.941373 3.87333L-0.622492 4.01248C-0.137765 4.224 0.283959 4.50976 0.643934 4.86974C1.00389 5.22969 1.28479 5.64653 1.487 6.12128ZM24.513 6.87872L24.3767 6.55863L24.2375 6.87751C24.026 7.36223 23.7402 7.78396 23.3803 8.14393C23.0203 8.50389 22.6035 8.78479 22.1287 8.987L21.8086 9.12333L22.1275 9.26248C22.6122 9.474 23.034 9.75976 23.3939 10.1197C23.7539 10.4797 24.0348 10.8965 24.237 11.3713L24.3733 11.6914L24.5125 11.3725C24.724 10.8878 25.0098 10.466 25.3697 10.1061C25.7297 9.74611 26.1465 9.46521 26.6213 9.263L26.9414 9.12667L26.6225 8.98752C26.1378 8.776 25.716 8.49024 25.3561 8.13026C24.9961 7.77031 24.7152 7.35347 24.513 6.87872ZM18.9873 8.30939L19.125 8.62883L19.2627 8.30939C19.6838 7.3329 20.2611 6.4784 20.9947 5.74474C21.7284 5.01108 22.5829 4.4338 23.5594 4.01274L23.8788 3.875L23.5594 3.73726C22.5829 3.3162 21.7284 2.73892 20.9947 2.00526C20.2611 1.2716 19.6838 0.417096 19.2627 -0.559393L19.125 -0.878834L18.9873 -0.559393C18.5662 0.417096 17.9889 1.2716 17.2553 2.00526C16.5216 2.73892 15.6671 3.3162 14.6906 3.73726L14.3712 3.875L14.6906 4.01274C15.6671 4.4338 16.5216 5.01108 17.2553 5.74474C17.9889 6.4784 18.5662 7.3329 18.9873 8.30939ZM5.95937 6.99219H5.95924L5.95951 6.99856C5.97839 7.44229 6.06346 7.86383 6.2153 8.26238C6.36838 8.66424 6.59791 9.02724 6.90249 9.35085C7.20683 9.67422 7.55505 9.92726 7.9467 10.1088C8.34096 10.2915 8.76362 10.3824 9.21289 10.3824C9.54776 10.3824 9.85773 10.3298 10.1411 10.2223C10.4185 10.1171 10.6809 9.97379 10.9283 9.79298C11.1797 9.60932 11.3924 9.38682 11.5662 9.12617C11.74 8.86554 11.8654 8.58078 11.9424 8.27271C11.9619 8.19451 11.9742 8.12176 11.9742 8.05859C11.9742 7.80721 11.8795 7.58731 11.6979 7.40565C11.5162 7.22399 11.2963 7.1293 11.0449 7.1293H11.037L11.0292 7.13012C10.8465 7.14935 10.6894 7.18916 10.5713 7.26005C10.4516 7.33186 10.3572 7.44131 10.2839 7.57732C10.2181 7.6996 10.1612 7.81803 10.1135 7.93254C10.0727 8.03036 10.0145 8.13504 9.93722 8.24665C9.86939 8.34463 9.78383 8.4189 9.67901 8.4713C9.5804 8.52061 9.4333 8.55117 9.22656 8.55117C9.03169 8.55117 8.84497 8.50673 8.66474 8.41662C8.48179 8.32514 8.32984 8.20565 8.20703 8.05827C8.08028 7.90617 7.97881 7.73715 7.9025 7.55063C7.8276 7.36752 7.79062 7.18169 7.79062 6.99219C7.79062 6.66751 7.85879 6.38235 7.99173 6.13309C8.12933 5.87508 8.3102 5.64226 8.53534 5.43444C8.75864 5.22831 9.01166 5.06962 9.29521 4.95792C9.57885 4.84618 9.86517 4.79078 10.155 4.79063C10.6798 4.79955 11.1322 4.91746 11.5168 5.13965C11.9077 5.36553 12.2332 5.66488 12.4942 6.03895C12.7576 6.4165 12.9557 6.83866 13.0881 7.30647C13.2206 7.77477 13.2869 8.23733 13.2875 8.69451C13.2785 8.79566 13.2738 8.88911 13.2738 8.97461C13.2738 9.0509 13.2696 9.13223 13.261 9.21869C13.1711 10.0266 12.992 10.731 12.726 11.334C12.459 11.9393 12.1077 12.4817 11.6721 12.9617C11.2348 13.4437 10.73 13.8682 10.1574 14.235C9.57998 14.6049 8.94766 14.9528 8.26018 15.2784C8.08547 15.3607 7.94559 15.4729 7.85004 15.6191C7.7542 15.7657 7.70938 15.9365 7.70938 16.125C7.70938 16.3809 7.79626 16.6021 7.97206 16.7779C8.14654 16.9524 8.36265 17.0406 8.61133 17.0406C8.75172 17.0406 8.8792 17.0208 8.9867 16.973L8.98684 16.9729C9.83349 16.5956 10.6343 16.1492 11.3893 15.6336C12.1491 15.1147 12.8033 14.5025 13.3509 13.7971C13.8981 13.0923 14.3293 12.3179 14.6444 11.4744C14.9611 10.6268 15.1187 9.71569 15.1187 8.74219H15.1188L15.1187 8.73834C15.1001 8.01435 14.9887 7.31292 14.7842 6.63445C14.5785 5.95169 14.2601 5.33347 13.8292 4.78082C13.3973 4.22687 12.8755 3.78483 12.2645 3.45582C11.6473 3.1235 10.9432 2.95937 10.1562 2.95935L10.1538 2.9594C9.58886 2.96881 9.05932 3.0772 8.56655 3.28568C8.07628 3.49311 7.63318 3.78073 7.23778 4.14789C6.84115 4.51619 6.52884 4.94191 6.30178 5.42441C6.07318 5.91017 5.95937 6.4334 5.95937 6.99219ZM21.3504 11.6441L21.3064 11.6H21.2441H16.2402H16.1321L16.0979 11.7026C15.9991 11.999 15.8868 12.291 15.761 12.5785C15.6352 12.8661 15.4959 13.1492 15.3431 13.4279L15.2213 13.65H15.4746H19.85V25.6H4.4V13.65H8.29688H8.33293L8.36505 13.6336C8.81858 13.4022 9.24033 13.1427 9.63009 12.8551C10.0224 12.5655 10.3816 12.2295 10.7078 11.8474L10.919 11.6H10.5938H3.00586H2.94357L2.8996 11.6441L-0.846493 15.4039L-0.952173 15.51L-0.8463 15.6158L0.384168 16.8463L0.489873 16.952L0.595938 16.8467L2.35 15.1045V27.5V27.65H2.5H21.75H21.9V27.5V15.1045L23.6541 16.8467L23.7601 16.952L23.8658 16.8463L25.0963 15.6158L25.2022 15.51L25.0965 15.4039L21.3504 11.6441ZM20.6069 3.87596C20.0595 4.3235 19.5652 4.81781 19.124 5.35883C18.6764 4.81791 18.1821 4.32359 17.6412 3.87596C18.1822 3.43481 18.6765 2.94046 19.124 2.39309C19.5651 2.94056 20.0594 3.43489 20.6069 3.87596Z" fill="#523960" stroke="#523960" stroke-width="0.3"/>
</g>
<defs>
<clipPath id="clip0_149_900">
<rect width="28" height="28" fill="white" transform="translate(0.5)"/>
</clipPath>
</defs>
</svg>
