<svg width="28" height="28" viewBox="0 0 28 28" fill="none" xmlns="http://www.w3.org/2000/svg">
<path d="M14.0768 0.000188588C11.2978 0.016716 8.52358 0.866106 6.16643 2.54942C11.4966 0.306772 17.919 1.40933 22.2646 5.74234C26.6052 10.0715 27.6802 16.434 25.4391 21.7459C29.2896 16.3767 28.7998 8.88118 23.9574 4.05271C21.2329 1.33312 17.6499 -0.0211199 14.0768 0.000188588ZM25.439 21.7458C25.4364 21.7495 25.4343 21.7533 25.4316 21.757L25.4336 21.7606C25.4356 21.7558 25.4371 21.7507 25.4391 21.7458H25.439ZM4.4015 2.9459C3.57213 2.9459 2.91237 3.60475 2.91237 4.43083C2.91237 5.25791 3.57302 5.91576 4.40155 5.91576C5.2311 5.91576 5.8908 5.25702 5.8908 4.43089C5.8908 3.60381 5.23015 2.94596 4.40161 2.94596L4.4015 2.9459ZM13.9787 3.80556C11.348 3.80379 8.71775 4.80311 6.71212 6.80292C2.70014 10.8036 2.70665 17.2944 6.72324 21.2995C10.7407 25.3055 17.249 25.3083 21.2601 21.3087C25.2721 17.3081 25.2674 10.8173 21.2508 6.81213C19.2421 4.80919 16.6094 3.80721 13.9787 3.80556ZM13.7142 5.06542L14.9962 8.71762C14.1224 8.56321 13.2172 8.62412 12.3693 8.90397L13.7142 5.06536L13.7142 5.06542ZM2.56635 6.2404C2.5644 6.24524 2.56292 6.25032 2.56085 6.25516C2.56345 6.2515 2.5657 6.24772 2.56831 6.24406L2.56635 6.2404ZM2.56085 6.25516C-1.28957 11.6244 -0.799826 19.12 4.04276 23.9483C8.88617 28.7833 16.4458 29.2993 21.8336 25.4517C16.5032 27.6943 10.081 26.5917 5.73535 22.2587C1.39477 17.9295 0.319906 11.567 2.56091 6.2551L2.56085 6.25516ZM7.45772 7.64594L11.2112 9.44801C10.8794 9.65638 10.5672 9.90505 10.2788 10.1933L10.277 10.1896C9.91597 10.549 9.60878 10.9584 9.36496 11.4052L9.30399 11.466L7.4576 7.64594H7.45772ZM19.9873 7.64966L18.4241 10.8868C18.2486 10.6396 18.0524 10.4076 17.8377 10.1933C17.4722 9.82817 17.0553 9.5181 16.6001 9.27282L19.9874 7.6496L19.9873 7.64966ZM14.1138 10.3445C15.0499 10.3451 15.987 10.7016 16.7019 11.4144C18.1314 12.8398 18.1332 15.1501 16.7055 16.5736C15.2778 17.9972 12.9608 17.9954 11.5313 16.57C10.1016 15.1445 10.1016 12.8342 11.5294 11.4107C12.2432 10.6988 13.1776 10.3439 14.1137 10.3445H14.1138ZM8.87652 12.4916V12.6576C8.66396 13.5111 8.66462 14.4034 8.87841 15.2566V15.2916L4.86407 13.8898L8.87652 12.4916ZM19.2677 12.7536L22.5828 13.9101L19.3158 15.0482C19.4644 14.291 19.4468 13.507 19.2676 12.7536H19.2677ZM9.28913 16.3559C9.54468 16.8628 9.88005 17.3255 10.2825 17.7265C10.5319 17.9746 10.8052 18.1976 11.0983 18.3923L7.46689 20.1336L9.28913 16.3559ZM18.4852 17.0237L19.9947 20.1467L16.7721 18.599C17.174 18.3689 17.5435 18.0867 17.871 17.7598C18.1019 17.5296 18.3061 17.2832 18.4852 17.0237ZM12.4376 19.0381C13.254 19.3003 14.1211 19.3666 14.961 19.2336L13.7344 22.7327L12.4377 19.038L12.4376 19.0381ZM23.9851 22.5133C23.1556 22.5133 22.4959 23.1721 22.4959 23.9983C22.4959 24.8252 23.1565 25.4831 23.9851 25.4831C24.8145 25.4831 25.4724 24.8244 25.4724 23.9983C25.4724 23.1712 24.8135 22.5133 23.985 22.5133L23.9851 22.5133Z" fill="#4C2F5E"/>
</svg>
