<svg width="207" height="41" viewBox="0 0 207 41" fill="none" xmlns="http://www.w3.org/2000/svg">
<rect x="0.84314" width="206.157" height="40.5554" rx="20.2777" fill="#EEBCEF"/>
<mask id="mask0_15_1205" style="mask-type:alpha" maskUnits="userSpaceOnUse" x="0" y="0" width="41" height="41">
<circle cx="20.1779" cy="20.2729" r="20.1779" fill="#D9D9D9"/>
</mask>
<g mask="url(#mask0_15_1205)">
<path d="M19.2423 0.115223C19.1252 0.135853 18.5278 0.207645 17.9141 0.274486C17.3004 0.341327 16.5834 0.46098 16.3205 0.540611C16.0576 0.61983 15.6514 0.713077 15.4177 0.747323C13.5995 1.01469 9.67658 2.84456 8.1934 4.11742C7.54221 4.67608 6.9481 5.11425 6.84186 5.11425C6.51273 5.11425 3.54969 8.45918 3.22306 9.19979C3.15473 9.35411 2.89684 9.79724 2.64937 10.1847C1.45699 12.0521 0.511248 14.8454 0.162116 17.5293C0.0133813 18.6734 0.0167143 22.3971 0.166699 22.6748C0.227943 22.7883 0.278355 23.1188 0.278355 23.4092C0.278355 23.6997 0.321684 24.0463 0.374595 24.1791C0.427507 24.312 0.52833 24.7048 0.598739 25.0518C0.982034 26.9431 2.53813 30.5579 3.20431 31.1054C3.29722 31.1818 3.44845 31.3897 3.54053 31.5675C3.84092 32.1481 5.88529 34.3163 6.77229 34.9946C6.96144 35.1394 7.26307 35.4051 7.44222 35.5854C7.62137 35.7653 8.05508 36.0933 8.40588 36.3136C8.75626 36.534 9.16247 36.8211 9.3087 36.9515C10.7502 38.2388 15.1469 39.8628 17.9674 40.1496C18.5515 40.209 19.1902 40.3096 19.3864 40.3736C20.2914 40.6674 25.1013 40.0617 25.8196 39.5633C25.9383 39.4807 26.1358 39.4135 26.2587 39.4135C26.3816 39.4135 26.9565 39.2212 27.5365 38.9864C28.1164 38.7513 28.7347 38.5078 28.9101 38.4455C29.0851 38.3832 29.3809 38.2207 29.5667 38.0837C29.7529 37.9471 29.9525 37.8353 30.01 37.8353C30.0679 37.8353 30.3303 37.6727 30.5932 37.4739C30.8561 37.2754 31.2115 37.041 31.3823 36.9532C31.5536 36.8657 31.9756 36.5624 32.3202 36.2794C32.6651 35.9964 33.0334 35.7183 33.1397 35.6613C33.4634 35.4868 35.5498 33.3875 35.789 32.9955C35.9123 32.7929 36.1602 32.4521 36.3393 32.2384C37.8721 30.4094 39.1703 27.8599 39.7311 25.5779C39.8165 25.2309 39.9452 24.7102 40.0169 24.4205C40.526 22.3711 40.6139 19.5828 40.2348 17.5293C39.9281 15.8694 39.7927 15.2188 39.6548 14.741C39.4757 14.1204 39.0245 12.9251 38.732 12.2963C38.6179 12.0508 38.5245 11.7897 38.5245 11.7158C38.5245 11.642 38.3333 11.2574 38.0996 10.8613C37.8658 10.4652 37.6746 10.1071 37.6746 10.0654C37.6746 10.0011 37.2426 9.38381 36.1014 7.81801C35.6319 7.17353 33.8163 5.30653 33.2342 4.87C32.9122 4.62821 32.4526 4.27751 32.2135 4.09101C31.5727 3.59094 30.7928 3.08881 30.1316 2.75007C29.8104 2.58544 29.4142 2.35934 29.2517 2.24753C28.8109 1.94386 25.8025 0.84222 25.1917 0.760113C24.8992 0.721329 24.3734 0.623956 24.0231 0.544737C23.6723 0.465106 23.1606 0.348754 22.8857 0.286451C22.3874 0.172987 19.6448 0.0442566 19.2423 0.115223ZM20.5534 4.64678C20.6184 4.78789 20.7338 4.90383 20.8096 4.90383C20.8855 4.90383 21.0754 5.03421 21.2321 5.19306C21.3883 5.35232 21.6129 5.5644 21.7312 5.66425C22.0341 5.92006 21.9054 6.13048 21.4054 6.19691C20.8942 6.26499 20.6192 6.48903 20.4597 6.96806C20.3143 7.40376 20.2097 7.41655 20.043 7.01839C19.8651 6.593 19.4785 6.26045 19.0636 6.17669C18.5203 6.06653 18.5719 5.82268 19.2302 5.38987C19.5506 5.17903 19.8456 4.90053 19.8856 4.77097C20.053 4.23088 20.3376 4.17766 20.5534 4.64678ZM13.4841 6.58723C13.6004 7.18962 13.8391 7.42975 14.3953 7.50361C15.1964 7.61006 14.9815 8.16541 14.1391 8.16541C13.5337 8.16541 13.3666 8.36429 13.5504 8.86683C13.8278 9.62766 13.2879 9.57113 12.9596 8.80494L12.7984 8.42824L12.4946 8.78431C11.9201 9.45808 11.6026 8.75832 12.0709 7.84978C12.3634 7.28163 12.2272 7.00808 11.6514 7.00808C10.7119 7.00808 11.0769 6.43539 12.1209 6.27118C12.5284 6.20723 12.885 6.13172 12.9133 6.10366C13.1125 5.90644 13.4 6.14987 13.4841 6.58723ZM28.0593 6.27819C29.2021 6.43993 29.4146 6.91731 28.4143 7.07574C27.8239 7.16899 27.7189 7.41902 28.0156 8.02596C28.481 8.9774 28.0393 9.66067 27.4798 8.85486C27.1123 8.32633 26.9444 8.25123 26.9444 8.61556C26.9444 8.94275 26.6445 9.34173 26.4295 9.30047C26.2945 9.27406 26.2541 9.14616 26.2541 8.7447V8.22318L25.7346 8.1485C24.9463 8.03462 24.7547 7.53455 25.4679 7.45203C26.1808 7.36951 26.257 7.28287 26.5861 6.17999C26.6166 6.07643 26.7265 6.05498 26.9728 6.10449C27.1615 6.14203 27.6506 6.22043 28.0593 6.27819ZM20.5101 8.22606C20.8688 8.58131 21.1 9.50842 21.1359 10.7342L21.1546 11.3742L21.8649 11.4439C23.179 11.5726 24.6155 12.1235 25.3867 12.7939C25.8254 13.1752 25.837 13.176 26.5428 12.8571C27.5898 12.3838 28.8776 12.2815 29.1838 12.6466C29.3263 12.817 28.9001 13.5362 28.1343 14.4163C27.4165 15.241 27.409 15.3033 27.9052 16.3039C28.2468 16.9933 28.3472 17.3292 28.3972 17.9543C28.4789 18.9639 28.4822 18.9672 29.5933 19.0543C32.0502 19.247 31.8023 20.741 29.2625 21.0471C28.538 21.1346 28.4776 21.1994 28.4014 21.9676C28.3689 22.2969 28.1514 23.1109 27.9181 23.7773L27.4944 24.9887L27.7239 25.2478C28.1997 25.785 28.6443 26.3556 28.6443 26.429C28.6443 26.4707 28.7638 26.6601 28.9101 26.8499C29.7367 27.9235 27.2461 27.8756 26.2641 26.7996C25.9954 26.505 25.962 26.5116 25.3196 26.9877C24.218 27.8046 22.9407 28.3765 22.0362 28.4574C21.0321 28.5473 21.1284 28.4235 21.04 29.7364C20.8521 32.5334 19.189 32.4988 19.189 29.6976C19.189 28.7008 19.084 28.563 18.2474 28.4652C17.3558 28.3612 15.6052 27.6194 15.1473 27.1515C14.7923 26.7888 14.2882 26.6601 14.1416 26.8949C13.9628 27.1812 13.1596 27.4473 12.3176 27.4997C11.2306 27.5666 11.1173 27.4387 11.6614 26.7604C11.8584 26.5153 12.253 25.9723 12.5388 25.5539L13.0587 24.7935L12.6659 24.0269C12.3251 23.3622 12.2642 23.132 12.2092 22.2886C12.1334 21.1313 12.1243 21.121 11.0431 21.0034C9.33245 20.8169 8.70335 20.4237 8.99623 19.7243C9.19038 19.2602 9.62492 19.0935 10.8115 19.0287C12.0209 18.9627 12.0322 18.9544 12.1667 18.0471C12.2838 17.2553 12.5063 16.6047 12.8713 15.9883C13.2346 15.3743 13.2179 15.3108 12.4796 14.5066C11.7172 13.6752 11.2673 12.8352 11.4614 12.6037C11.6739 12.35 13.1621 12.4849 13.9149 12.8265C14.257 12.9821 14.5915 13.0786 14.6586 13.0415C14.7252 13.0044 15.019 12.7964 15.3114 12.579C16.2701 11.8652 17.4066 11.427 18.2982 11.427C18.8386 11.427 19.0827 11.2644 19.0827 10.9042C19.0827 9.24518 19.9314 7.65297 20.5101 8.22606ZM7.82677 11.3111C8.1584 11.9931 8.29047 12.0735 8.84333 11.9275C9.707 11.6989 9.89156 12.1045 9.20246 12.7172C8.69001 13.1727 8.6696 13.3782 9.11289 13.615C10.2019 14.1972 9.6495 14.7311 8.51336 14.1947C8.07716 13.9888 7.95217 14.0598 7.63095 14.6968C7.32057 15.3124 7.131 15.1697 7.131 14.3201C7.131 13.4091 7.07476 13.3208 6.49482 13.3208C5.7778 13.3208 5.35201 12.6842 6.01653 12.6058C6.83812 12.5088 7.23433 12.0261 7.11059 11.2727C7.06518 10.995 7.09017 10.8527 7.19475 10.7871C7.43597 10.636 7.54096 10.7231 7.82677 11.3111ZM33.1155 10.7693C33.1205 10.8126 33.1384 11.0779 33.1555 11.3581C33.1971 12.0467 33.4763 12.3987 34.0729 12.5154C34.8332 12.6636 34.7795 13.2156 34.0046 13.2156C33.5125 13.2156 33.2105 13.5011 33.1384 14.0346C33.0588 14.6221 32.9618 14.6618 32.6955 14.2149C32.4247 13.7606 32.3077 13.7565 31.8598 14.1864C31.574 14.4604 31.4711 14.5037 31.3236 14.4121C31.0424 14.2376 31.0436 13.8968 31.3261 13.6748C31.8015 13.3014 31.7898 13.2193 31.1898 12.6953C30.4408 12.0414 30.4912 11.7983 31.354 11.9052C32.046 11.9906 32.1614 11.9213 32.5322 11.1968C32.7547 10.7619 33.0863 10.5189 33.1155 10.7693ZM34.3187 18.7263C34.3949 19.1285 34.7037 19.4446 35.2311 19.66C36.0123 19.9785 36.0973 20.531 35.3465 20.4117C34.8616 20.335 34.4483 20.6638 34.2954 21.2476C34.1691 21.7296 34.0208 21.6912 33.7546 21.1074C33.4705 20.4847 33.2717 20.3556 32.6576 20.394C31.9481 20.4385 32.0231 20.0924 32.803 19.7219C33.3771 19.4495 33.7438 19.1009 33.7438 18.8278C33.7438 18.1358 34.1916 18.0566 34.3187 18.7263ZM6.39024 18.73C6.56273 19.2267 6.63647 19.3027 7.26641 19.6356C7.93301 19.9876 8.028 20.37 7.44889 20.37C7.03935 20.37 6.44024 20.8264 6.44024 21.1383C6.44024 21.6648 6.02611 21.5426 5.70864 20.9225C5.532 20.5776 5.41951 20.4753 5.21619 20.4753C4.8479 20.4753 4.47085 20.0915 4.64 19.8894C4.70958 19.8064 4.85123 19.7388 4.95455 19.7388C5.19245 19.7388 5.8028 19.1822 5.8028 18.9652C5.8028 18.298 6.18693 18.1441 6.39024 18.73ZM33.2592 26.1254C33.2976 26.224 33.2976 26.5524 33.2592 26.8553C33.1801 27.482 33.4434 27.8752 34.0266 28.0023C34.5391 28.1141 34.5937 28.1442 34.5937 28.313C34.5937 28.4883 34.1908 28.6818 33.825 28.6818C33.4205 28.6818 33.2126 28.981 33.2109 29.566C33.2084 30.3739 32.7439 30.7192 32.5614 30.0488C32.1943 28.6975 31.9389 28.4491 31.2998 28.8233C31.0565 28.9653 30.937 28.9814 30.7711 28.8935C30.4266 28.7107 30.5103 28.4054 30.9765 28.1459C31.5119 27.848 31.5448 27.7473 31.2815 27.22C31.0224 26.7014 31.0861 26.4129 31.4344 26.5252C32.1806 26.7649 32.4526 26.7216 32.6889 26.3255C32.933 25.9158 33.1488 25.8403 33.2592 26.1254ZM7.64803 26.3296C7.80177 26.4938 8.07549 26.6349 8.3163 26.6745C8.6821 26.7348 8.72168 26.7715 8.69793 27.0281C8.68335 27.1853 8.65918 27.4428 8.6446 27.6004C8.62335 27.8294 8.69793 27.9383 9.01665 28.1442C9.70325 28.5878 9.52493 28.9768 8.73126 28.7668C8.11715 28.6038 7.97467 28.7223 7.82135 29.5235C7.62179 30.5666 7.15058 30.6293 7.05351 29.6258C6.98685 28.9418 6.76104 28.7012 6.14735 28.6608C5.37035 28.61 5.23036 28.0572 5.99278 28.0522C6.12694 28.0514 6.42566 27.9548 6.65688 27.8381L7.07767 27.6256V26.9646C7.07767 26.5912 7.13309 26.2491 7.20516 26.1778C7.36973 26.0148 7.34598 26.007 7.64803 26.3296ZM13.1504 30.8253C13.7753 30.8422 13.8133 30.8843 13.6599 31.3918C13.4983 31.9248 13.6437 32.2178 14.1778 32.4369C15.0044 32.776 14.9919 33.206 14.1553 33.206C13.5487 33.206 13.2512 33.4952 13.4383 33.9024C13.5816 34.2139 13.517 34.5263 13.2916 34.6121C13.0817 34.6921 12.8146 34.4012 12.8146 34.0926C12.8146 33.4807 12.1318 33.2307 12.1134 33.836C12.1013 34.2304 11.7993 34.5329 11.5893 34.3604C11.2468 34.079 11.1635 32.7851 11.4881 32.7851C12.1809 32.7851 12.4909 32.1967 12.1726 31.4842C11.8951 30.8636 11.9564 30.6256 12.3642 30.7345C12.5242 30.777 12.8779 30.8178 13.1504 30.8253ZM28.071 30.829C28.1027 30.9107 28.0531 31.1215 27.9614 31.2973C27.6294 31.9335 27.9552 32.6799 28.5651 32.6799C28.9492 32.6799 29.0692 32.8804 29.0692 33.5224C29.0692 34.5452 28.4039 34.7936 28.3047 33.8079C28.2439 33.2006 27.706 33.4197 27.5948 34.0976C27.4511 34.9723 26.7849 34.7788 26.9069 33.8975C26.9898 33.2967 26.7807 33.1214 26.1733 33.2823C25.7579 33.392 25.7225 33.3821 25.4379 33.0805C25.0867 32.7084 25.1292 32.5747 25.5992 32.5747C26.2408 32.5747 26.697 32.0441 26.4999 31.5267C26.3103 31.0287 26.4732 30.7605 26.9219 30.831C27.139 30.8653 27.3881 30.8463 27.4756 30.789C27.7064 30.6371 28.0043 30.6573 28.071 30.829ZM20.483 33.1271C20.6297 33.3924 20.8784 33.6474 21.0938 33.7539C21.8008 34.1042 21.9149 34.5737 21.2925 34.5737C20.9171 34.5737 20.4638 35.1377 20.4638 35.6048C20.4638 35.8346 20.3968 36.076 20.3139 36.1441C20.1355 36.2909 20.0989 36.2418 19.9347 35.6353C19.796 35.1229 19.3156 34.5737 19.0061 34.5737C18.8015 34.5737 18.5515 34.388 18.5515 34.2362C18.5515 34.1892 18.7923 34.0043 19.0865 33.8249C19.4281 33.6169 19.6972 33.3512 19.8322 33.0896C20.0989 32.5718 20.178 32.5763 20.483 33.1271Z" fill="#A74B94"/>
<path d="M19.6232 15.4753C17.7018 15.9365 16.2488 18.0116 16.4298 20.0363C16.5257 21.1131 17.1034 21.2451 17.4676 20.2731C17.7973 19.393 17.8033 19.3835 17.9598 19.5134C18.0418 19.5811 18.1382 19.7821 18.1736 19.9595C18.3361 20.7697 19.1765 20.7839 20.0259 19.9905C20.5362 19.5138 20.623 19.3391 20.9557 18.1194C21.0309 17.8446 21.2331 17.9926 21.4388 18.4719C21.5766 18.7929 21.8125 19.0759 22.1236 19.292C23.0983 19.9715 23.0681 19.9353 22.8248 20.1256C22.7069 20.217 22.4006 20.2921 22.1439 20.2921C21.5904 20.2921 21.3809 20.4681 21.2193 21.0669C21.0784 21.5889 20.9803 21.6075 20.6697 21.1722C20.3076 20.6644 19.7883 20.8801 19.7883 21.5385C19.7883 21.8905 19.5208 21.9354 19.3476 21.6122C19.1475 21.2391 18.2894 21.4496 18.0289 21.9362C17.2736 23.3453 20.4679 24.7331 22.5276 23.891C27.709 21.7719 25.0828 14.1637 19.6232 15.4753Z" fill="#A74B94"/>
</g>
<path d="M48.8004 25.9409L53.4964 15.6685H54.5677L59.2636 25.9409H58.119L53.8046 16.2996H54.2448L49.9304 25.9409H48.8004ZM50.6495 23.1967L50.9723 22.3162H56.945L57.2678 23.1967H50.6495ZM65.5793 26.029C64.8064 26.029 64.0922 25.9018 63.4368 25.6474C62.7813 25.3833 62.2139 25.0164 61.7345 24.5468C61.2551 24.0772 60.8784 23.5245 60.6045 22.8886C60.3404 22.2526 60.2083 21.558 60.2083 20.8047C60.2083 20.0514 60.3404 19.3568 60.6045 18.7209C60.8784 18.085 61.2551 17.5322 61.7345 17.0626C62.2236 16.593 62.796 16.2311 63.4514 15.9767C64.1069 15.7126 64.8211 15.5805 65.594 15.5805C66.3375 15.5805 67.037 15.7077 67.6925 15.962C68.3479 16.2066 68.9007 16.5784 69.3507 17.0773L68.661 17.767C68.2403 17.3366 67.7756 17.0284 67.2669 16.8425C66.7582 16.6469 66.2103 16.549 65.6233 16.549C65.007 16.549 64.4346 16.6566 63.9064 16.8719C63.3781 17.0773 62.9182 17.3757 62.5269 17.767C62.1356 18.1486 61.8274 18.5986 61.6024 19.1171C61.3872 19.6258 61.2796 20.1884 61.2796 20.8047C61.2796 21.4211 61.3872 21.9885 61.6024 22.507C61.8274 23.0157 62.1356 23.4658 62.5269 23.8571C62.9182 24.2386 63.3781 24.537 63.9064 24.7523C64.4346 24.9577 65.007 25.0604 65.6233 25.0604C66.2103 25.0604 66.7582 24.9626 67.2669 24.7669C67.7756 24.5713 68.2403 24.2582 68.661 23.8277L69.3507 24.5175C68.9007 25.0164 68.3479 25.3931 67.6925 25.6474C67.037 25.9018 66.3326 26.029 65.5793 26.029ZM73.5042 25.9409V16.3142L73.7976 16.6077H69.8941V15.6685H78.1854V16.6077H74.2966L74.5754 16.3142V25.9409H73.5042ZM80.0915 25.9409V15.6685H83.9364C84.8071 15.6685 85.5555 15.8104 86.1816 16.0941C86.8077 16.368 87.2871 16.7691 87.6197 17.2974C87.9622 17.816 88.1334 18.447 88.1334 19.1905C88.1334 19.9145 87.9622 20.5406 87.6197 21.0689C87.2871 21.5874 86.8077 21.9885 86.1816 22.2722C85.5555 22.5559 84.8071 22.6978 83.9364 22.6978H80.6932L81.1775 22.1842V25.9409H80.0915ZM81.1775 22.2722L80.6932 21.7439H83.907C84.9342 21.7439 85.712 21.5238 86.2403 21.0835C86.7784 20.6335 87.0474 20.0025 87.0474 19.1905C87.0474 18.3687 86.7784 17.7328 86.2403 17.2828C85.712 16.8327 84.9342 16.6077 83.907 16.6077H80.6932L81.1775 16.0941V22.2722ZM109.047 25.9409L105.1 20.8194L105.98 20.2911L110.294 25.9409H109.047ZM102.018 25.9409V15.6685H103.074V25.9409H102.018ZM102.752 21.2303V20.2764H105.965V21.2303H102.752ZM106.068 20.9221L105.07 20.746L108.9 15.6685H110.074L106.068 20.9221ZM111.416 26.029C111.279 26.029 111.147 26.0192 111.019 25.9996C110.892 25.9898 110.75 25.9654 110.594 25.9262L110.682 24.9577C110.848 24.9968 111.01 25.0164 111.166 25.0164C111.606 25.0164 111.959 24.8452 112.223 24.5028C112.497 24.1506 112.702 23.6125 112.839 22.8886C112.976 22.1548 113.064 21.2156 113.103 20.071L113.25 15.6685H120.221V25.9409H119.149V16.3142L119.428 16.6077H113.94L114.204 16.2996L114.072 20.0416C114.033 21.0689 113.959 21.9591 113.852 22.7125C113.744 23.456 113.588 24.0772 113.382 24.5762C113.177 25.0653 112.913 25.4322 112.59 25.6768C112.267 25.9116 111.875 26.029 111.416 26.029ZM123.686 25.9409V15.6685H124.757V24.1799L131.332 15.6685H132.315V25.9409H131.244V17.4442L124.669 25.9409H123.686ZM143.295 15.6685H144.366V25.9409H143.295V15.6685ZM136.867 25.9409H135.781V15.6685H136.867V25.9409ZM143.398 21.2009H136.75V20.2471H143.398V21.2009ZM147.834 25.9409V15.6685H148.905V24.1799L155.479 15.6685H156.462V25.9409H155.391V17.4442L148.817 25.9409H147.834ZM166.958 25.9409L163.011 20.8194L163.891 20.2911L168.206 25.9409H166.958ZM159.929 25.9409V15.6685H160.986V25.9409H159.929ZM160.663 21.2303V20.2764H163.876V21.2303H160.663ZM163.979 20.9221L162.981 20.746L166.811 15.6685H167.985L163.979 20.9221ZM168.248 25.9409L172.944 15.6685H174.016L178.712 25.9409H177.567L173.253 16.2996H173.693L169.378 25.9409H168.248ZM170.097 23.1967L170.42 22.3162H176.393L176.716 23.1967H170.097Z" fill="#A74B94"/>
<path d="M97.4325 17.0973C98.1218 16.6839 98.6926 16.0979 99.0892 15.3967C99.4859 14.6954 99.6948 13.9028 99.6956 13.0962H98.3683C98.3683 13.9805 98.0187 14.8286 97.3964 15.4539C96.7741 16.0792 95.9301 16.4305 95.0501 16.4305C94.17 16.4305 93.326 16.0792 92.7037 15.4539C92.0814 14.8286 91.7318 13.9805 91.7318 13.0962H90.4045C90.4045 14.7367 91.2673 16.2571 92.6676 17.0973C90.4643 18.4311 89.7409 21.2852 91.0682 23.4992C92.3756 25.7132 95.2292 26.4334 97.4325 25.0997C99.6359 23.7926 100.359 20.9251 99.0319 18.7111C98.6419 18.047 98.0919 17.492 97.4325 17.0973ZM95.0501 24.4328C94.17 24.4328 93.326 24.0815 92.7037 23.4562C92.0814 22.8309 91.7318 21.9828 91.7318 21.0985C91.7318 20.2142 92.0814 19.3661 92.7037 18.7408C93.326 18.1155 94.17 17.7642 95.0501 17.7642C95.9301 17.7642 96.7741 18.1155 97.3964 18.7408C98.0187 19.3661 98.3683 20.2142 98.3683 21.0985C98.3683 21.9828 98.0187 22.8309 97.3964 23.4562C96.7741 24.0815 95.9301 24.4328 95.0501 24.4328Z" fill="#A74B94"/>
<path d="M41.8206 3.96011L41.5957 4.93403L42.4524 5.44889L41.4567 5.53594L41.2318 6.50986L40.8413 5.58975L39.8455 5.6768L40.5999 5.02108L40.2094 4.10097L41.0662 4.61583L41.8206 3.96011Z" fill="#A74B94"/>
<path d="M43.7813 19.0854L44.4705 19.8094L45.372 19.3776L44.8965 20.2568L45.5857 20.9807L44.6026 20.8002L44.127 21.6793L43.995 20.6886L43.0119 20.508L43.9134 20.0762L43.7813 19.0854Z" fill="#A74B94"/>
<path d="M64.5593 34.4909L64.8273 35.4538L65.826 35.4965L64.9929 36.049L65.2609 37.0119L64.4781 36.3904L63.6451 36.9429L63.9943 36.0063L63.2115 35.3848L64.2101 35.4275L64.5593 34.4909Z" fill="#A74B94"/>
<path d="M48.8051 33.0104L49.073 33.9734L50.0717 34.0161L49.2387 34.5685L49.5067 35.5315L48.7238 34.9099L47.8908 35.4624L48.24 34.5258L47.4572 33.9043L48.4559 33.947L48.8051 33.0104Z" fill="#A74B94"/>
<path d="M90.6278 7.2404L90.8958 8.20336L91.8944 8.24605L91.0614 8.7985L91.3294 9.76145L90.5466 9.13993L89.7136 9.69238L90.0628 8.75581L89.28 8.13428L90.2786 8.17697L90.6278 7.2404Z" fill="#A74B94"/>
<path d="M110.569 7.52422L111.081 8.38258L112.056 8.16071L111.398 8.91307L111.91 9.77143L110.991 9.37806L110.333 10.1304L110.423 9.13494L109.504 8.74156L110.479 8.5197L110.569 7.52422Z" fill="#A74B94"/>
<path d="M119.701 31.5036L119.838 32.4938L120.822 32.6697L119.922 33.1057L120.059 34.0959L119.366 33.3752L118.467 33.8112L118.938 32.9298L118.246 32.2091L119.23 32.385L119.701 31.5036Z" fill="#A74B94"/>
<path d="M99.2169 35.1715L99.4542 36.1425L100.451 36.2169L99.6008 36.7426L99.8381 37.7136L99.0754 37.0675L98.2253 37.5932L98.604 36.6682L97.8414 36.0221L98.8381 36.0965L99.2169 35.1715Z" fill="#A74B94"/>
<path d="M83.1084 33.899L83.3457 34.87L84.3424 34.9444L83.4923 35.4701L83.7296 36.4411L82.9669 35.795L82.1167 36.3207L82.4955 35.3957L81.7328 34.7496L82.7296 34.824L83.1084 33.899Z" fill="#A74B94"/>
<path d="M74.8293 2.26873L74.827 3.26828L75.7769 3.57936L74.8256 3.88604L74.8232 4.88559L74.2376 4.07558L73.2863 4.38226L73.8756 3.57496L73.29 2.76495L74.2399 3.07603L74.8293 2.26873Z" fill="#A74B94"/>
<path d="M127.641 6.20034L127.416 7.17426L128.273 7.68912L127.277 7.77618L127.052 8.7501L126.662 7.82998L125.666 7.91704L126.42 7.26132L126.03 6.3412L126.886 6.85606L127.641 6.20034Z" fill="#A74B94"/>
<path d="M155.012 30.5886L155.701 31.3125L156.603 30.8808L156.127 31.76L156.816 32.4839L155.833 32.3033L155.358 33.1825L155.226 32.1917L154.243 32.0111L155.144 31.5794L155.012 30.5886Z" fill="#A74B94"/>
<path d="M138.973 34.4906L139.241 35.4536L140.24 35.4963L139.407 36.0487L139.675 37.0117L138.892 36.3902L138.059 36.9426L138.408 36.006L137.625 35.3845L138.624 35.4272L138.973 34.4906Z" fill="#A74B94"/>
<path d="M165.042 7.2404L165.31 8.20336L166.309 8.24605L165.475 8.7985L165.743 9.76145L164.961 9.13993L164.128 9.69238L164.477 8.75581L163.694 8.13428L164.693 8.17697L165.042 7.2404Z" fill="#A74B94"/>
<path d="M184.984 7.52422L185.496 8.38258L186.47 8.16071L185.812 8.91307L186.324 9.77143L185.406 9.37806L184.747 10.1304L184.838 9.13494L183.919 8.74156L184.893 8.5197L184.984 7.52422Z" fill="#A74B94"/>
<path d="M194.115 31.5036L194.252 32.4938L195.236 32.6697L194.337 33.1057L194.473 34.0959L193.781 33.3752L192.881 33.8112L193.353 32.9298L192.66 32.2091L193.644 32.385L194.115 31.5036Z" fill="#A74B94"/>
<path d="M194.053 18.8305L194.189 19.8207L195.173 19.9966L194.274 20.4326L194.411 21.4228L193.718 20.7021L192.818 21.1381L193.29 20.2567L192.597 19.536L193.581 19.7119L194.053 18.8305Z" fill="#A74B94"/>
<path d="M173.631 35.1715L173.868 36.1425L174.865 36.2169L174.015 36.7426L174.252 37.7136L173.489 37.0675L172.639 37.5932L173.018 36.6682L172.255 36.0221L173.252 36.0965L173.631 35.1715Z" fill="#A74B94"/>
<path d="M149.244 2.26849L149.241 3.26804L150.191 3.57912L149.24 3.8858L149.238 4.88535L148.652 4.07533L147.701 4.38202L148.29 3.57472L147.704 2.76471L148.654 3.07578L149.244 2.26849Z" fill="#A74B94"/>
</svg>
