<svg width="28" height="41" viewBox="0 0 28 41" fill="none" xmlns="http://www.w3.org/2000/svg">
<path d="M21.1778 12.944C23.2543 11.6065 24.9739 9.71091 26.1688 7.44226C27.3638 5.17361 27.9932 2.60944 27.9956 0H23.9969C23.9969 2.86081 22.9436 5.60445 21.0689 7.62735C19.1941 9.65025 16.6513 10.7867 14 10.7867C11.3487 10.7867 8.80592 9.65025 6.93114 7.62735C5.05637 5.60445 4.00313 2.86081 4.00313 0H0.00437927C0.00437927 5.30706 2.60357 10.2258 6.82225 12.944C0.184323 17.2587 -1.99499 26.4922 2.00375 33.6545C5.94252 40.8169 14.5398 43.1468 21.1778 38.8321C27.8157 34.6038 29.995 25.3272 25.9962 18.1648C24.8212 16.0161 23.1642 14.2208 21.1778 12.944ZM14 36.6748C11.3487 36.6748 8.80592 35.5384 6.93114 33.5155C5.05637 31.4926 4.00313 28.7489 4.00313 25.8881C4.00313 23.0273 5.05637 20.2836 6.93114 18.2607C8.80592 16.2378 11.3487 15.1014 14 15.1014C16.6513 15.1014 19.1941 16.2378 21.0689 18.2607C22.9436 20.2836 23.9969 23.0273 23.9969 25.8881C23.9969 28.7489 22.9436 31.4926 21.0689 33.5155C19.1941 35.5384 16.6513 36.6748 14 36.6748Z" fill="#EEBCEF"/>
</svg>
