<svg width="27" height="26" viewBox="0 0 27 26" fill="none" xmlns="http://www.w3.org/2000/svg">
<path d="M13.5713 0.000175117C10.9908 0.015522 8.41475 0.804241 6.22597 2.36732C11.1754 0.28486 17.1391 1.30866 21.1743 5.33217C25.2048 9.35206 26.203 15.2601 24.1221 20.1926C27.6974 15.2069 27.2427 8.24681 22.7462 3.76323C20.2162 1.2379 16.8891 -0.0196114 13.5713 0.000175117ZM24.1219 20.1925C24.1195 20.196 24.1175 20.1995 24.1151 20.203L24.1169 20.2062C24.1188 20.2019 24.1202 20.1971 24.122 20.1925H24.1219ZM4.5871 2.73548C3.81698 2.73548 3.20434 3.34727 3.20434 4.11434C3.20434 4.88234 3.8178 5.4932 4.58716 5.4932C5.35745 5.4932 5.97003 4.88152 5.97003 4.1144C5.97003 3.34639 5.35657 2.73553 4.58721 2.73553L4.5871 2.73548ZM13.4802 3.53374C11.0375 3.53209 8.59505 4.46003 6.73268 6.317C3.00727 10.0319 3.01332 16.0591 6.74301 19.7781C10.4735 23.4979 16.5169 23.5006 20.2415 19.7866C23.9669 16.0718 23.9626 10.0446 20.2329 6.32555C18.3677 4.46567 15.923 3.53527 13.4802 3.53374ZM13.2346 4.70361L14.425 8.09493C13.6137 7.95155 12.7731 8.00811 11.9857 8.26797L13.2347 4.70355L13.2346 4.70361ZM2.88304 5.79466C2.88123 5.79915 2.87986 5.80387 2.87793 5.80836C2.88035 5.80496 2.88244 5.80145 2.88486 5.79806L2.88304 5.79466ZM2.87793 5.80836C-0.69746 10.7941 -0.242696 17.7542 4.25399 22.2377C8.75144 26.7273 15.7711 27.2065 20.774 23.6337C15.8244 25.7161 9.86089 24.6923 5.82568 20.6688C1.79514 16.6488 0.797056 10.7408 2.87799 5.80831L2.87793 5.80836ZM7.42502 7.0998L10.9104 8.77316C10.6023 8.96664 10.3124 9.19755 10.0446 9.46519L10.043 9.46179C9.70768 9.79548 9.42244 10.1757 9.19603 10.5906L9.13941 10.647L7.42491 7.0998H7.42502ZM19.0596 7.10325L17.6081 10.1092C17.4451 9.8796 17.263 9.66416 17.0636 9.46519C16.7242 9.12616 16.337 8.83823 15.9144 8.61048L19.0597 7.1032L19.0596 7.10325ZM13.6056 9.60561C14.4749 9.60616 15.3451 9.93721 16.0089 10.599C17.3363 11.9227 17.338 14.068 16.0122 15.3898C14.6866 16.7117 12.5351 16.7101 11.2076 15.3864C9.88008 14.0627 9.88008 11.9175 11.2058 10.5956C11.8687 9.93464 12.7363 9.60501 13.6056 9.60561H13.6056ZM8.74248 11.5993V11.7535C8.54511 12.546 8.54571 13.3746 8.74424 14.1668V14.1994L5.01664 12.8976L8.74248 11.5993ZM18.3914 11.8426L21.4697 12.9165L18.4361 13.9733C18.5741 13.2702 18.5578 12.5422 18.3914 11.8426H18.3914ZM9.12562 15.1877C9.36292 15.6583 9.67433 16.088 10.048 16.4603C10.2796 16.6907 10.5334 16.8977 10.8056 17.0786L7.43354 18.6955L9.12562 15.1877ZM17.6648 15.8077L19.0665 18.7076L16.0741 17.2705C16.4473 17.0568 16.7904 16.7948 17.0945 16.4912C17.3089 16.2774 17.4985 16.0487 17.6648 15.8077ZM12.0492 17.6782C12.8073 17.9217 13.6124 17.9832 14.3924 17.8598L13.2534 21.109L12.0493 17.6782L12.0492 17.6782ZM22.7718 20.9052C22.0016 20.9052 21.389 21.517 21.389 22.2841C21.389 23.052 22.0025 23.6629 22.7718 23.6629C23.5421 23.6629 24.1529 23.0512 24.1529 22.2841C24.1529 21.5161 23.5411 20.9052 22.7718 20.9052L22.7718 20.9052Z" fill="#CC79FF"/>
</svg>
