<svg width="266" height="452" viewBox="0 0 266 452" fill="none" xmlns="http://www.w3.org/2000/svg">
<g opacity="0.2">
<path d="M265.132 68.8244C265.113 70.8186 265.01 72.7878 264.823 74.744C264.649 76.5665 264.402 78.3641 264.084 80.1367C263.777 81.8729 263.398 83.5841 262.971 85.2584C261.704 90.1476 259.906 94.8252 257.651 99.2068C256.924 100.611 256.149 101.99 255.338 103.345C253.814 105.848 252.146 108.253 250.31 110.534C249.38 111.693 248.425 112.815 247.423 113.9C240.981 120.955 233.062 126.622 224.181 130.42C223.525 130.706 222.857 130.967 222.189 131.228C220.209 132.001 218.194 132.675 216.131 133.264C214.663 133.676 213.184 134.04 211.68 134.354C207.036 135.321 202.215 135.812 197.278 135.766C178.208 135.59 161.074 127.455 148.946 114.526C147.508 112.992 146.143 111.386 144.852 109.721C142.22 106.34 139.918 102.695 137.957 98.846C137.458 97.8685 136.983 96.8669 136.532 95.8534C134.884 92.1777 133.564 88.3348 132.596 84.3493C131.279 78.9741 130.604 73.3495 130.658 67.5613C130.69 63.9984 131.001 60.5111 131.553 57.1111C131.77 55.7997 132.012 54.5128 132.302 53.2386C132.618 51.8065 132.994 50.3993 133.394 49.0044C134.144 46.4454 135.05 43.9364 136.089 41.5137C137.969 37.1166 140.307 32.9547 143.029 29.1004C144.696 26.7444 146.508 24.4991 148.452 22.3767C152.131 18.3731 156.278 14.8238 160.808 11.8009C160.954 11.705 161.1 11.609 161.246 11.5131C164.266 9.53434 167.453 7.80034 170.782 6.32304C177.392 3.39232 184.55 1.50032 192.059 0.864151C194.178 0.676938 196.321 0.599388 198.487 0.619341C204.949 0.678865 211.196 1.66066 217.098 3.41757C219.608 4.17035 222.056 5.05634 224.431 6.08758C225.323 6.47279 226.203 6.87005 227.07 7.29152C230.684 9.03952 234.114 11.1142 237.336 13.4544C240.822 16.0039 244.051 18.8672 246.987 22.0196C252.619 28.079 257.152 35.1621 260.275 42.9739C260.665 43.9504 261.043 44.9511 261.385 45.9514C262.493 49.1478 263.37 52.4515 263.993 55.8502C264.789 60.0774 265.172 64.4103 265.132 68.8244Z" fill="url(#paint0_radial_250_1201)"/>
<path d="M265.132 68.8245C265.079 74.5032 264.327 80.0053 262.971 85.2585C229.525 70.4788 171.536 96.5773 132.596 84.3615C131.278 78.9864 130.604 73.3618 130.657 67.5736C130.69 64.0107 131.001 60.5233 131.552 57.1233C199.95 82.1971 225.215 48.4154 264.016 55.887C264.789 60.0775 265.172 64.4104 265.132 68.8245Z" fill="url(#paint1_linear_250_1201)"/>
<path d="M261.421 45.9883C224.91 39.462 182.118 64.4115 133.418 49.0169C134.168 46.4579 135.074 43.9489 136.113 41.5262C175.612 57.3954 223.591 38.0878 260.311 43.0108C260.701 43.9995 261.079 44.988 261.421 45.9883Z" fill="url(#paint2_linear_250_1201)"/>
<path d="M247.023 22.0686C208.347 45.5601 159.876 34.2052 143.053 29.125C144.72 26.7689 146.532 24.5237 148.476 22.4012C196.378 35.1373 226.501 20.4932 237.372 13.5034C240.858 16.0407 244.087 18.9162 247.023 22.0686Z" fill="url(#paint3_linear_250_1201)"/>
<path d="M227.106 7.32836C210.843 17.6857 189.017 10.4556 160.832 11.8255C163.986 9.72637 167.318 7.89643 170.806 6.34761C187.849 7.24644 211.865 13.159 224.467 6.11227C225.359 6.49748 226.238 6.90689 227.106 7.32836Z" fill="url(#paint4_linear_250_1201)"/>
<path d="M217.146 3.44238C212.575 5.62575 204.112 7.44491 192.107 0.888961C194.226 0.701748 196.369 0.624198 198.535 0.644151C204.997 0.703675 211.232 1.67319 217.146 3.44238Z" fill="url(#paint5_linear_250_1201)"/>
<path d="M257.651 99.2068C256.924 100.611 256.149 101.99 255.338 103.345C226.575 89.9335 173.125 104.059 137.969 98.8704C137.469 97.8929 136.995 96.8913 136.544 95.8778C182.631 102.03 232.841 83.6066 257.651 99.2068Z" fill="url(#paint6_linear_250_1201)"/>
<path d="M216.131 133.252C214.663 133.664 213.183 134.028 211.68 134.342C199.283 132.197 161.126 109.992 148.946 114.526C147.508 112.992 146.143 111.386 144.851 109.721C171.814 109.702 200.086 131.815 216.131 133.252Z" fill="url(#paint7_linear_250_1201)"/>
<path d="M247.435 113.901C240.992 120.956 233.074 126.623 224.193 130.42C211.547 126.449 204.296 118.842 199.886 116.673C193.441 113.488 191.516 110.978 216.473 109.335C229.187 108.479 239.946 111.12 247.435 113.901Z" fill="url(#paint8_linear_250_1201)"/>
<path opacity="0.45" d="M264.095 80.1367C259.408 106.823 238.78 128.657 211.692 134.354C163.592 144.406 121.527 101.066 132.326 53.263C137.795 63.8935 150.07 75.292 177.04 79.7482C217.857 86.4723 244.583 75.3965 264.095 80.1367Z" fill="url(#paint9_linear_250_1201)"/>
<path opacity="0.55" d="M249.221 111.862C248.646 112.55 248.046 113.237 247.435 113.901C240.993 120.956 233.074 126.623 224.193 130.42C223.537 130.706 222.869 130.967 222.201 131.229C220.221 132.001 218.206 132.676 216.144 133.265C214.675 133.677 213.196 134.04 211.692 134.355C207.048 135.321 202.227 135.812 197.29 135.766C178.22 135.591 161.086 127.455 148.958 114.526C147.724 113.201 146.538 111.84 145.414 110.419C156.423 114.692 172.449 115.679 195.748 110.117C216.22 105.222 234.032 106.772 249.221 111.862Z" fill="url(#paint10_linear_250_1201)"/>
<path d="M265.131 68.8245C265.113 70.8187 265.01 72.7879 264.823 74.7441C264.77 59.5058 259.698 41.2297 241.439 25.1913C206.386 -5.60722 170.421 7.42648 161.282 11.5379C164.302 9.5591 167.488 7.8251 170.818 6.3478C177.428 3.41708 184.586 1.52508 192.094 0.88891C194.214 0.701696 196.357 0.624146 198.523 0.644099C204.984 0.703623 211.232 1.68541 217.133 3.44232C219.644 4.19511 222.092 5.0811 224.467 6.11234C225.359 6.49755 226.238 6.89481 227.106 7.31628C230.72 9.06428 234.15 11.1389 237.372 13.4792C240.858 16.0287 244.087 18.8919 247.023 22.0444C252.655 28.1038 257.188 35.1868 260.311 42.9987C260.701 43.9751 261.079 44.9758 261.421 45.9762C262.529 49.1726 263.406 52.4763 264.028 55.875C264.788 60.0775 265.172 64.4104 265.131 68.8245Z" fill="url(#paint11_linear_250_1201)"/>
</g>
<g opacity="0.2">
<path d="M257.466 218.287C257.466 221.926 257.152 225.496 256.551 228.957C256.222 230.818 255.826 232.651 255.348 234.457C252.696 244.361 247.665 253.281 240.912 260.586C238.465 263.24 235.786 265.675 232.901 267.864C230.249 269.889 227.42 271.708 224.453 273.295C220.434 275.443 216.155 277.153 211.672 278.384C206.436 279.821 200.927 280.573 195.24 280.573C192.629 280.573 190.059 280.409 187.544 280.095C166.464 277.495 148.639 264.335 139.534 246.071C135.98 238.958 133.752 231.078 133.164 222.746C133.055 221.269 133 219.778 133 218.287C133 208.888 135.078 199.982 138.796 191.993C142.118 184.852 146.766 178.449 152.398 173.1C157.606 168.148 163.676 164.085 170.36 161.171C177.975 157.847 186.395 156 195.226 156C222.061 156 244.931 172.991 253.666 196.822C255.84 202.759 257.138 209.107 257.412 215.742C257.453 216.577 257.466 217.425 257.466 218.287Z" fill="url(#paint12_radial_250_1201)"/>
<path d="M139.521 246.071C139.097 245.223 138.687 244.348 138.304 243.472C135.474 237.083 133.697 230.147 133.164 222.856C133.164 222.815 133.164 222.787 133.151 222.746C134.408 222.582 136.131 223.157 137.388 226.7C139.015 231.31 146.588 242.542 139.521 246.071Z" fill="#BCBCBC"/>
<path d="M188.405 235.483C188.323 235.989 188.146 236.468 187.886 236.906C185.904 240.463 179 242.214 171.304 240.887C164.606 239.724 159.261 236.55 157.538 233.103C157.032 232.09 156.841 231.064 157.019 230.038C157.798 225.551 165.33 224.47 173.997 225.989C182.664 227.48 189.184 230.996 188.405 235.483Z" fill="#BCBCBC"/>
<path d="M169.964 205.824L169.95 205.837C168.228 208.437 162.856 206.056 156.608 201.966C151.51 198.628 147.873 195.304 147.627 192.773C147.573 192.198 147.696 191.651 148.01 191.158C149.732 188.532 156.567 188.354 162.828 192.458C169.089 196.562 171.687 203.197 169.964 205.824Z" fill="#BCBCBC"/>
<path d="M238.916 244.184C233.872 248.397 227.83 249.478 225.438 246.591C225.314 246.441 225.205 246.29 225.109 246.126C223.278 243.13 225.465 237.754 230.249 233.773C235.116 229.71 240.898 228.561 243.455 231.064C243.55 231.16 243.646 231.256 243.728 231.351C246.12 234.238 243.974 239.984 238.916 244.184Z" fill="#BCBCBC"/>
<path d="M202.526 209.641C197.427 213.676 192.246 215.906 189.28 212.158C188.993 211.802 188.76 211.419 188.555 211.009C186.669 207.206 188.528 201.692 193.149 198.04C198.248 194.004 205.206 192.102 209.949 198.108C209.977 198.149 210.018 198.19 210.031 198.231C212.82 201.939 207.584 205.646 202.526 209.641Z" fill="#BCBCBC"/>
<path d="M182.158 266.004C181.42 266.715 179.957 267.112 177.66 267.002C169.239 266.633 160.094 256.373 162.65 253.076C162.692 253.021 162.733 252.98 162.774 252.939C165.426 249.943 172.069 255.333 175.459 257.111C181.05 260.039 184.113 264.129 182.158 266.004Z" fill="#BCBCBC"/>
<path d="M215.185 258.438C215.199 260.381 212.56 262.433 208.405 262.611C200.804 262.939 196.471 261.475 195.445 258.767C195.336 258.479 195.268 258.178 195.227 257.85C194.857 254.553 201.816 255.114 205.479 254.923C212.355 254.553 215.171 256.441 215.185 258.438Z" fill="#BCBCBC"/>
<path d="M238.219 214.73C237.385 215.975 235.772 216.823 233.68 216.823C227.091 216.823 218.302 212.062 219.409 207.657C219.532 207.151 219.723 206.713 219.942 206.357C221.637 203.621 225.916 204.948 230.031 205.824C238.26 207.575 240.023 212.062 238.219 214.73Z" fill="#BCBCBC"/>
<path d="M216.825 182.376C216.743 182.184 216.702 181.965 216.675 181.733C216.511 179.858 218.356 177.122 221.951 176.137C224.289 175.494 227.447 175.577 229.402 176.78C230.263 177.314 230.878 178.053 231.11 179.065C231.657 181.582 217.987 185.29 216.825 182.376Z" fill="#BCBCBC"/>
<path d="M179.26 176.548C178.795 176.822 178.248 176.739 177.66 176.151C173.628 172.116 173.272 165.522 175.46 164.427C176.321 163.989 177.073 163.853 177.715 163.921C182.09 164.413 181.611 175.125 179.26 176.548Z" fill="#BCBCBC"/>
<path d="M248.308 199.599C248.02 199.736 247.679 199.764 247.31 199.668C245.779 199.271 243.783 196.918 243.181 193.375C242.839 191.295 243.878 189.298 245.232 188.669C246.735 187.957 248.636 188.942 249.401 193.375C249.852 195.892 249.784 198.861 248.308 199.599Z" fill="#BCBCBC"/>
<path d="M240.912 260.586C236.196 265.689 230.632 269.998 224.453 273.282C223.756 272.94 223.127 272.433 222.881 271.708C222.663 271.065 222.758 270.245 223.428 269.205C225.984 265.169 228.554 258.945 234.405 258.575C236.114 258.466 237.467 258.671 238.547 259.054C239.586 259.437 240.352 259.984 240.912 260.586Z" fill="#BCBCBC"/>
<path d="M211.658 278.371C206.422 279.807 200.913 280.56 195.227 280.56C192.616 280.56 190.046 280.395 187.53 280.081C187.53 279.342 187.667 278.549 188.118 277.878C188.556 277.235 189.28 276.715 190.469 276.524C194.857 275.785 197.058 272.858 203.278 273.227C206.504 273.418 208.76 274.992 210.168 276.455C210.865 277.194 211.344 277.878 211.658 278.371Z" fill="#BCBCBC"/>
<path d="M203.702 164.879C203.388 166.438 200.749 166.999 199.478 166.411C199.204 166.288 198.999 166.11 198.89 165.891C198.152 164.427 202.977 161.691 203.647 164.058C203.729 164.359 203.743 164.632 203.702 164.879Z" fill="#BCBCBC"/>
<path d="M184.618 247.221C182.978 246.4 181.693 245.757 182.062 249.054C182.431 252.351 184.987 253.089 187.188 253.089C189.375 253.089 186.081 247.959 184.618 247.221Z" fill="#9B9B9B"/>
<path d="M154.23 245.032C152.767 244.663 152.767 247.234 151.673 249.793C150.58 252.351 152.042 254.184 154.23 254.184C156.431 254.184 157.155 245.757 154.23 245.032Z" fill="#9B9B9B"/>
<path d="M147.641 212.049C146.233 211.406 144.715 210.585 144.346 212.049C143.977 213.512 147.271 217.548 149.103 217.548C150.935 217.548 151.66 213.882 147.641 212.049Z" fill="#9B9B9B"/>
<path d="M257.466 218.287C257.466 221.926 257.152 225.496 256.55 228.957C256.017 228.752 255.47 228.383 254.896 227.808C251.233 224.142 254.008 218.943 254.896 217.178C255.881 215.209 256.865 215.386 257.412 215.728C257.453 216.577 257.466 217.425 257.466 218.287Z" fill="#9B9B9B"/>
<path d="M219.764 222.309C217.645 222.049 216.47 223.772 219.764 225.236C223.059 226.714 222.69 222.678 219.764 222.309Z" fill="#9B9B9B"/>
<path d="M141.052 205.824C140.067 206.316 139.958 208.382 142.514 208.026C145.071 207.657 143.239 204.729 141.052 205.824Z" fill="#9B9B9B"/>
<path d="M193.039 180.187C191.946 180.556 190.483 181.651 193.039 182.02C195.595 182.376 194.133 179.817 193.039 180.187Z" fill="#9B9B9B"/>
<path d="M199.259 180.187C197.919 179.407 197.796 183.114 198.89 184.578C199.983 186.042 203.647 182.745 199.259 180.187Z" fill="#9B9B9B"/>
<path d="M210.974 267.016C210.181 267.194 209.88 268.48 212.068 269.219C214.269 269.944 214.269 266.277 210.974 267.016Z" fill="#9B9B9B"/>
<path d="M179.123 273.241C178.029 273.61 176.922 274.335 179.123 275.074C181.324 275.799 180.217 272.871 179.123 273.241Z" fill="#9B9B9B"/>
<path d="M180.955 219.381C179.096 219.477 183.156 221.939 184.249 222.309C185.343 222.678 188.637 219.012 180.955 219.381Z" fill="#9B9B9B"/>
<path d="M240.994 209.86C240.078 210.571 241.732 214.62 243.195 214.251C244.657 213.882 244.288 207.288 240.994 209.86Z" fill="#9B9B9B"/>
<path d="M211.549 235.537C211.385 236.167 211.18 236.782 210.975 237.33C209.908 240.189 203.606 241.311 201.939 239.997C201.898 239.97 201.857 239.929 201.816 239.888C200.353 238.424 201.775 234.744 202.554 232.925C203.647 230.366 209.143 228.533 210.975 229.258C212.451 229.874 212.259 232.87 211.549 235.537Z" fill="#BCBCBC"/>
<path d="M147.627 192.786C147.573 192.212 147.696 191.665 148.01 191.172C149.732 188.546 156.567 188.368 162.828 192.472C169.089 196.576 171.687 203.211 169.964 205.837L169.95 205.851C170.046 204.251 169.376 202.007 167.039 198.874C160.942 190.734 149.828 187.93 147.627 192.786Z" fill="#9B9B9B"/>
<path d="M188.405 235.483C188.323 235.989 188.146 236.468 187.886 236.906C187.735 236.276 186.382 231.338 180.217 229.272C173.819 227.138 165.207 225.236 160.081 229.272C158.44 230.558 157.743 231.885 157.538 233.089C157.032 232.077 156.841 231.051 157.019 230.024C157.798 225.537 165.33 224.457 173.997 225.975C182.664 227.48 189.184 230.996 188.405 235.483Z" fill="#9B9B9B"/>
<path d="M198.521 197.027C191.713 199.38 188.843 206.056 188.555 211.009C186.669 207.206 188.528 201.692 193.149 198.04C198.248 194.004 205.206 192.102 209.949 198.108C209.977 198.149 210.018 198.19 210.031 198.231C207.981 196.644 204.249 195.057 198.521 197.027Z" fill="#9B9B9B"/>
<path d="M211.549 235.537C211.48 232.883 210.824 229.887 208.049 230.736C205.206 231.611 201.98 236.769 201.952 239.997C201.911 239.97 201.87 239.929 201.829 239.888C200.367 238.424 201.788 234.744 202.568 232.925C203.661 230.366 209.157 228.533 210.988 229.258C212.451 229.874 212.26 232.87 211.549 235.537Z" fill="#9B9B9B"/>
<path d="M238.219 214.73C239.053 209.901 231.316 208.341 227.447 206.932C223.619 205.537 220.995 206.029 219.928 206.357C221.624 203.621 225.902 204.948 230.017 205.824C238.26 207.575 240.024 212.062 238.219 214.73Z" fill="#9B9B9B"/>
<path d="M216.826 182.376C216.744 182.184 216.703 181.965 216.675 181.733C218.985 183.265 224.905 182.02 228.172 180.543C230.509 179.476 230.127 177.916 229.402 176.794C230.263 177.328 230.878 178.066 231.111 179.079C231.658 181.582 217.988 185.29 216.826 182.376Z" fill="#9B9B9B"/>
<path d="M179.26 176.548C178.795 176.822 178.248 176.739 177.66 176.151C173.628 172.116 173.272 165.522 175.46 164.427C176.321 163.989 177.073 163.853 177.715 163.921C176.827 164.085 175.46 164.865 175.46 168.093C175.46 171.815 177.25 174.865 179.26 176.548Z" fill="#9B9B9B"/>
<path d="M203.702 164.879C203.579 164.249 203.087 163.647 201.46 164.058C200.134 164.386 199.628 165.398 199.478 166.411C199.204 166.288 198.999 166.11 198.89 165.891C198.152 164.427 202.977 161.691 203.647 164.058C203.729 164.359 203.743 164.632 203.702 164.879Z" fill="#9B9B9B"/>
<path d="M182.158 266.004C181.843 264.034 180.039 262.118 176.922 260.408C172.889 258.206 169.964 256.017 167.408 254.184C166.068 253.226 164.223 252.966 162.774 252.939C165.426 249.943 172.069 255.333 175.459 257.111C181.051 260.039 184.113 264.129 182.158 266.004Z" fill="#9B9B9B"/>
<path d="M215.185 258.438C214.597 256.975 212.82 256.373 209.867 256.373H199.615C195.691 256.373 195.445 258.644 195.445 258.753C195.336 258.466 195.268 258.165 195.227 257.836C194.857 254.54 201.816 255.1 205.479 254.909C212.355 254.553 215.171 256.441 215.185 258.438Z" fill="#9B9B9B"/>
<path d="M210.168 276.469C210.865 277.181 211.344 277.878 211.658 278.371C206.422 279.807 200.913 280.56 195.227 280.56C192.616 280.56 190.046 280.396 187.53 280.081C187.53 279.342 187.667 278.549 188.118 277.878C200.285 280.751 207.297 278.084 210.168 276.469Z" fill="#9B9B9B"/>
<path d="M240.912 260.586C236.196 265.689 230.632 269.998 224.453 273.282C223.756 272.94 223.127 272.434 222.881 271.709C233.093 267.878 237.508 260.942 238.547 259.068C239.586 259.437 240.352 259.984 240.912 260.586Z" fill="#9B9B9B"/>
<path d="M243.455 231.064C242.635 230.777 236.797 229.149 230.003 236.96C226.572 240.914 225.383 243.978 225.109 246.126C223.278 243.13 225.465 237.754 230.249 233.773C235.116 229.724 240.898 228.561 243.455 231.064Z" fill="#9B9B9B"/>
<path d="M247.31 199.654C245.779 199.257 243.783 196.904 243.181 193.361C242.839 191.282 243.878 189.284 245.232 188.655C244.644 189.435 244.097 190.625 244.275 192.267C244.589 194.921 245.587 197.575 247.31 199.654Z" fill="#9B9B9B"/>
<path d="M139.521 246.071C139.097 245.223 138.687 244.348 138.304 243.472C140.054 241.885 141.776 238.985 139.589 234.402C136.882 228.725 135.57 223.841 133.164 222.856C133.164 222.815 133.164 222.787 133.151 222.746C134.408 222.582 136.131 223.157 137.388 226.7C139.015 231.31 146.588 242.542 139.521 246.071Z" fill="#9B9B9B"/>
<path opacity="0.45" d="M232.901 267.864C230.249 269.889 227.419 271.709 224.453 273.296C220.434 275.443 216.155 277.153 211.672 278.385C206.436 279.821 200.927 280.573 195.24 280.573C192.629 280.573 190.059 280.409 187.544 280.095C166.464 277.495 148.639 264.335 139.534 246.072C135.98 238.958 133.752 231.078 133.164 222.747C133.055 221.269 133 219.778 133 218.287C133 208.888 135.078 199.982 138.796 191.993C142.118 184.852 146.766 178.45 152.398 173.101C135.037 255.963 198.89 267.44 232.901 267.864Z" fill="url(#paint13_linear_250_1201)"/>
<path d="M257.467 218.287C257.467 221.926 257.152 225.496 256.551 228.957C256.223 230.818 255.826 232.651 255.348 234.457C253.188 184.359 219.286 155.877 170.361 161.171C177.975 157.847 186.396 156 195.227 156C222.061 156 244.931 172.991 253.666 196.822C255.84 202.759 257.139 209.107 257.412 215.742C257.453 216.577 257.467 217.425 257.467 218.287Z" fill="url(#paint14_linear_250_1201)"/>
</g>
<g opacity="0.2" clip-path="url(#clip0_250_1201)">
<path d="M209.37 365.561C226.212 355.276 235.432 345.492 233.331 338.346C231.094 330.697 216.332 327.495 194.243 328.51C194.305 328.625 194.358 328.74 194.41 328.855C180.213 300.625 151.245 282 118.502 282C81.2014 282 49.2115 306.118 37.9001 340.166C37.9628 339.968 38.0255 339.758 38.0987 339.56C-7.61753 343.776 -13.5241 360.706 27.6341 378.442C10.7923 388.727 1.57173 398.511 3.67302 405.657C6.0984 413.955 23.2538 417.01 48.5111 415.148C57.439 428.133 69.6913 438.251 83.7104 444.56C94.3319 449.342 106.103 452 118.502 452C151.245 452 180.391 433.344 194.588 404.789C196.093 404.527 234.972 402.696 236.927 389.125C237.983 381.748 227.487 373.367 209.37 365.561ZM195.152 330.352C213.144 329.431 224.874 331.701 226.557 337.456C229.306 346.832 204.289 360.068 203.202 360.821C202.418 349.793 199.522 339.35 194.922 329.881C194.995 330.038 195.079 330.195 195.152 330.352ZM37.461 341.506C37.6806 340.784 33.5721 352.147 33.5721 366.995C33.5721 369.318 33.6661 371.285 33.802 373.158C33.802 373.158 33.802 373.158 33.7916 373.158C-3.35221 358.823 -2.71449 344.99 37.461 341.506ZM8.88966 401.263C7.26926 395.727 15.2145 387.88 29.7458 379.331C32.3907 380.419 34.1889 381.11 34.7847 381.34C36.4051 390.914 39.6355 399.934 44.1726 408.137C43.169 408.116 11.7959 411.172 8.88966 401.263ZM231.136 385.515C229.683 395.591 199.02 397.056 197.891 397.245C201.425 387.953 203.192 378.463 203.411 369.046C204.53 368.407 205.648 367.79 207.405 366.744C222.981 373.158 231.962 379.802 231.136 385.515Z" fill="url(#paint15_radial_250_1201)"/>
<path d="M189.172 366.995C189.172 369.464 189.047 371.902 188.796 374.309C188.556 376.684 188.19 379.028 187.719 381.34C186.58 386.865 184.803 392.149 182.461 397.109C180.056 402.225 177.046 407.007 173.543 411.36C169.968 415.807 165.86 419.804 161.312 423.267C155.133 427.986 148.15 431.711 140.613 434.191C133.661 436.493 126.217 437.728 118.492 437.728C108.173 437.728 98.3777 435.509 89.5438 431.533C80.5219 427.474 72.5139 421.583 65.9801 414.321C55.5154 402.696 48.8456 387.566 47.9361 370.908C47.8629 369.611 47.8315 368.303 47.8315 366.984C47.8315 360.748 48.6365 354.7 50.1524 348.935C51.2814 344.624 52.8182 340.48 54.6895 336.536C66.0533 312.71 90.3488 296.241 118.502 296.241C141.846 296.241 162.556 307.573 175.415 325.036C177.485 327.851 179.356 330.833 181.008 333.941C185.555 342.542 188.388 352.199 189.026 362.454C189.12 363.971 189.172 365.477 189.172 366.995Z" fill="url(#paint16_radial_250_1201)"/>
<path d="M88.4356 403.554C88.3415 403.575 88.2474 403.596 88.1533 403.617C85.6547 404.035 85.247 400.708 86.0729 397.789C86.7106 395.55 88.1324 393.457 89.4705 393.436C89.8782 393.425 90.2755 393.614 90.6414 394.043C95.0531 399.254 90.9655 402.926 88.4356 403.554Z" fill="#3D3789"/>
<path d="M89.5544 431.544C80.5324 427.484 72.5245 421.593 65.9906 414.331C67.1719 413.871 68.5414 413.599 70.1305 413.568C70.58 413.557 71.0504 413.568 71.5313 413.599C84.0032 414.436 84.4214 422.336 87.7458 426.5C88.4985 427.442 88.9689 428.269 89.2512 429.001C89.6798 430.079 89.6798 430.927 89.5544 431.544Z" fill="#4A3E9E"/>
<g opacity="0.75">
<path d="M104.786 425.245C98.9314 419.772 92.3348 417.973 92.5961 413.63C92.6171 413.348 92.6589 413.065 92.7321 412.762C93.9761 407.771 106.49 412.092 111.853 412.762C118.502 413.599 124.325 413.599 125.569 422.336C126.813 431.073 111.016 431.073 104.786 425.245Z" fill="#4A3E9E"/>
<path d="M143.863 410.272C139.065 411.747 133.294 410.607 132.05 407.708C131.893 407.342 131.81 406.944 131.81 406.526C131.81 402.78 140.644 402.403 143.863 399.871C147 397.402 149.791 395.633 151.955 395.445C153.805 395.288 155.185 396.303 155.917 399.034C157.579 405.281 149.268 408.608 143.863 410.272Z" fill="#4A3E9E"/>
<path d="M171.714 362.004C169.08 363.469 165.839 364.724 165.159 362.454C164.867 361.491 165.034 359.901 165.901 357.431C168.128 351.059 174.213 348.108 177.903 349.322C179.032 349.688 179.942 350.442 180.443 351.603C183.35 358.258 175.457 359.922 171.714 362.004Z" fill="#4A3E9E"/>
<path d="M77.0301 386.907C76.9988 386.928 76.9674 386.949 76.936 386.97C69.179 391.207 58.6412 381.56 59.4775 377.814C59.6239 377.186 59.8016 376.715 60.0525 376.36C61.2861 374.612 64.0565 375.878 70.2872 376.569C77.7096 377.396 81.4523 384.375 77.0301 386.907Z" fill="#4A3E9E"/>
<path d="M59.467 364.504C59.1847 364.682 58.9129 364.808 58.6516 364.892C55.9962 365.729 55.2017 361.271 54.0622 357.85C53.0063 354.69 54.0308 353.602 55.369 353.842C55.6199 353.884 55.8812 353.978 56.1426 354.104C60.3033 356.176 62.7914 362.422 59.467 364.504Z" fill="#4A3E9E"/>
<path d="M161.312 423.267C155.133 427.986 148.15 431.711 140.613 434.191C140.309 433.877 140.027 433.532 139.797 433.155C138.856 431.691 138.595 429.755 140.121 427.317C143.561 421.803 147.596 423.55 153.429 422.326C155.604 421.865 157.297 421.876 158.625 422.148C159.786 422.378 160.664 422.807 161.312 423.267Z" fill="#4A3E9E"/>
<path d="M187.719 381.34C185.409 392.547 180.454 402.78 173.543 411.36C172.707 410.931 171.954 410.335 171.348 409.508C171.327 409.487 171.306 409.456 171.296 409.435C167.135 403.607 173.376 398.197 175.864 387.796C177.37 381.497 181.624 380.535 184.74 380.765C186.005 380.849 187.082 381.142 187.719 381.34Z" fill="#4A3E9E"/>
<path d="M189.172 366.995C189.172 369.464 189.047 371.902 188.796 374.309C188.001 374.225 187.207 373.964 186.684 373.273C186.506 373.032 186.36 372.75 186.256 372.394C185.419 369.485 182.492 370.605 183.349 367.821C184.186 365.101 185.764 363.751 187.113 363.082C187.876 362.705 188.576 362.537 189.026 362.475C189.12 363.971 189.172 365.478 189.172 366.995Z" fill="#4A3E9E"/>
<path d="M123.489 401.116C123.489 401.127 123.489 401.137 123.478 401.148C122.61 404.852 114.132 403.544 111.843 402.78C109.344 401.943 103.542 397.998 105.194 394.043C105.779 392.641 106.657 392.149 107.703 392.212C110.348 392.337 114.027 395.947 116.421 396.544C120.938 397.663 124.126 398.249 123.489 401.116Z" fill="#4A3E9E"/>
<path d="M67.3703 399.453C67.088 399.944 66.764 400.321 66.3876 400.593C64.5895 401.912 61.8819 400.698 59.4669 398.626C57.4597 396.9 56.6339 393.98 57.5538 393.174C57.9615 392.808 58.7247 392.871 59.8851 393.635C63.6277 396.125 69.0325 396.533 67.3703 399.453Z" fill="#4A3E9E"/>
<path d="M160.382 396.826C159.002 397.998 157.413 396.9 156.597 395.497C156.315 395.016 156.127 394.514 156.064 394.043C155.813 392.201 156.388 391.5 159.096 392.871C160.256 393.457 160.998 393.991 161.312 394.535C161.709 395.236 161.417 395.947 160.382 396.826Z" fill="#4A3E9E"/>
<path d="M161.322 381.56C161.301 381.518 161.27 381.466 161.249 381.424C159.806 378.641 164.26 378.201 165.901 376.15C167.334 374.361 170.355 371.798 171.923 373.378C172.174 373.629 172.393 373.995 172.55 374.487C174.62 380.723 162.985 384.469 161.322 381.56Z" fill="#4A3E9E"/>
<path d="M130.138 427.327C129.395 427.181 128.287 426.616 127.775 424.314C127.733 424.094 127.681 423.843 127.65 423.581C127.231 420.672 127.231 417.345 128.894 417.345C129.73 417.345 129.73 420.254 132.636 423.173C132.95 423.487 133.128 423.843 133.201 424.209C133.514 425.81 131.831 427.662 130.138 427.327Z" fill="#4A3E9E"/>
<path d="M140.916 388.958C140.194 388.843 139.494 388.592 138.867 388.225C134.831 385.808 139.442 377.144 143.487 380.399C143.613 380.503 143.728 380.608 143.853 380.733C149.509 386.384 144.961 389.627 140.916 388.958Z" fill="#4A3E9E"/>
<path d="M88.4356 403.554C87.9756 403.031 87.5679 402.372 87.3274 401.535C86.6583 399.212 88.6551 395.027 89.481 393.436C89.8887 393.426 90.2859 393.614 90.6518 394.043C95.0531 399.254 90.9655 402.927 88.4356 403.554Z" fill="#4A3E9E"/>
</g>
<g opacity="0.7">
<path d="M94.8021 399.452C93.9657 399.452 93.558 402.78 94.3839 403.198C95.2203 403.617 98.1265 399.452 94.8021 399.452Z" fill="#3D3789"/>
<path d="M176.512 340.135C172.906 339.779 173.334 344.164 176.7 345.053C180.067 345.942 182.91 340.763 176.512 340.135Z" fill="#3D3789"/>
<path d="M157.998 412.354C155.76 412.354 155.917 414.018 157.998 415.681C160.068 417.345 165.891 412.354 157.998 412.354Z" fill="#3D3789"/>
<path d="M64.4536 364.913C61.6728 366.032 63.6173 368.24 65.6977 369.077C67.7885 369.904 68.6144 363.249 64.4536 364.913Z" fill="#3D3789"/>
<path d="M56.9788 344.111C55.2957 344.446 56.1425 347.02 58.6411 347.439C61.1292 347.857 61.1291 343.285 56.9788 344.111Z" fill="#3D3789"/>
<path d="M176.282 333.292C174.202 333.71 176.7 337.864 178.362 336.201C180.025 334.537 178.362 332.873 176.282 333.292Z" fill="#3D3789"/>
<path d="M103.949 384.469C102.099 385.494 104.368 389.041 107.274 388.215C110.191 387.388 107.692 382.387 103.949 384.469Z" fill="#3D3789"/>
</g>
<path d="M133.2 424.209C133.514 425.81 131.831 427.662 130.137 427.327C129.395 427.181 128.287 426.616 127.775 424.314C129.897 425.412 131.8 424.952 133.2 424.209Z" fill="#3D3789"/>
<path d="M54.0622 357.839C53.0063 354.679 54.0308 353.591 55.369 353.832C54.0517 356.699 57.1148 362.349 58.662 364.881C55.9962 365.718 55.2017 361.261 54.0622 357.839Z" fill="#3D3789"/>
<path d="M66.3876 400.582C64.5895 401.901 61.8819 400.687 59.4669 398.615C57.4597 396.889 56.6339 393.97 57.5538 393.164C58.547 397.632 63.45 399.724 66.3876 400.582Z" fill="#3D3789"/>
<path d="M77.0301 386.907C76.9988 386.927 76.9674 386.948 76.9361 386.969C69.179 391.207 58.6412 381.56 59.4775 377.814C59.6239 377.186 59.8016 376.715 60.0525 376.359C61.2129 377.929 63.0947 379.938 66.1264 382.397C70.8308 386.216 74.5838 387.001 77.0301 386.907Z" fill="#3D3789"/>
<path d="M105.194 394.043C105.779 392.641 106.657 392.149 107.703 392.212C106.208 394.221 105.716 396.795 108.936 399.452C113.975 403.596 120.268 402.257 123.478 401.147C122.61 404.851 114.132 403.544 111.842 402.78C109.354 401.943 103.552 397.998 105.194 394.043Z" fill="#3D3789"/>
<path d="M125.569 422.336C126.813 431.073 111.016 431.073 104.786 425.245C98.9314 419.772 92.3348 417.973 92.5961 413.63C96.5583 415.985 103.082 421.028 110.609 425.663C121.408 432.318 125.569 422.336 125.569 422.336Z" fill="#3D3789"/>
<path d="M140.916 388.958C144.617 388.079 144.073 383.098 143.488 380.398C143.613 380.503 143.728 380.608 143.854 380.733C149.509 386.384 144.962 389.627 140.916 388.958Z" fill="#3D3789"/>
<path d="M155.918 399.034C157.58 405.27 149.269 408.608 143.864 410.271C139.066 411.747 133.295 410.606 132.051 407.708C133.368 408.419 135.229 409.215 137.215 409.434C140.958 409.853 149.687 408.189 152.593 402.361C154.276 399.002 153.179 396.742 151.956 395.445C153.806 395.288 155.186 396.292 155.918 399.034Z" fill="#3D3789"/>
<path d="M161.302 394.545C161.709 395.236 161.417 395.957 160.382 396.836C159.002 398.008 157.413 396.91 156.597 395.508C158.615 396.46 160.34 395.413 161.302 394.545Z" fill="#3D3789"/>
<path d="M172.54 374.487C174.62 380.723 162.974 384.469 161.312 381.56C161.291 381.518 161.26 381.466 161.239 381.424C170.376 380.629 171.965 376.38 171.902 373.377C172.163 373.629 172.383 373.995 172.54 374.487Z" fill="#3D3789"/>
<path d="M171.714 362.004C169.079 363.468 165.839 364.724 165.159 362.453C168.243 359.691 175.352 358.927 178.791 356.186C181.541 353.989 179.565 351.059 177.913 349.332C179.042 349.698 179.952 350.452 180.454 351.613C183.349 358.258 175.457 359.921 171.714 362.004Z" fill="#3D3789"/>
<path d="M89.2508 428.991C89.6795 430.079 89.6899 430.926 89.554 431.533C80.532 427.474 72.5241 421.583 65.9902 414.321C67.1716 413.861 68.5411 413.589 70.1301 413.557C71.6773 415.692 73.8623 418.308 76.9358 421.499C79.8525 424.523 84.1805 427.013 89.2508 428.991Z" fill="#3D3789"/>
<path d="M158.615 422.158C159.796 422.378 160.664 422.807 161.312 423.278C155.133 427.997 148.15 431.722 140.612 434.201C140.309 433.888 140.027 433.542 139.797 433.166C147.679 430.361 155.029 425.014 158.615 422.158Z" fill="#3D3789"/>
<path d="M187.719 381.34C185.409 392.547 180.453 402.78 173.543 411.36C172.707 410.931 171.954 410.334 171.348 409.508C179.649 401.974 183.726 385.484 184.75 380.765C186.005 380.848 187.081 381.141 187.719 381.34Z" fill="#3D3789"/>
<path d="M189.172 366.995C189.172 369.464 189.047 371.902 188.796 374.309C188.001 374.225 187.207 373.963 186.684 373.273C188.754 370.709 187.782 365.613 187.113 363.081C187.876 362.705 188.576 362.537 189.026 362.474C189.12 363.971 189.172 365.477 189.172 366.995Z" fill="#3D3789"/>
<path opacity="0.35" d="M189.172 366.995C189.172 369.464 189.047 371.902 188.796 374.309C188.556 376.684 188.19 379.028 187.719 381.34C185.409 392.547 180.454 402.78 173.543 411.36C169.968 415.807 165.86 419.804 161.312 423.267C155.134 427.986 148.15 431.711 140.613 434.191C133.661 436.493 126.217 437.728 118.492 437.728C108.173 437.728 98.3777 435.51 89.5439 431.533C80.5219 427.474 72.514 421.583 65.9801 414.321C55.5155 402.696 48.8457 387.566 47.9362 370.908C67.5796 430.853 187.719 420.871 181.008 333.951C185.555 342.552 188.388 352.21 189.026 362.464C189.12 363.971 189.172 365.478 189.172 366.995Z" fill="url(#paint17_linear_250_1201)"/>
<path opacity="0.55" d="M182.461 397.109C180.056 402.225 177.046 407.007 173.543 411.36C169.968 415.807 165.86 419.804 161.312 423.267C155.133 427.986 148.15 431.711 140.613 434.191C133.661 436.493 126.217 437.728 118.492 437.728C108.173 437.728 98.3777 435.51 89.5438 431.533C80.5219 427.474 72.5139 421.583 65.9801 414.321C55.5154 402.696 48.8456 387.566 47.9361 370.908C47.8629 369.611 47.8315 368.303 47.8315 366.984C47.8315 360.748 48.6365 354.7 50.1524 348.935C64.5374 378.546 103.688 434.788 182.461 397.109Z" fill="url(#paint18_linear_250_1201)"/>
<path d="M194.117 365.802C192.518 365.111 190.845 364.431 189.099 363.751C188.42 363.49 187.73 363.218 187.029 362.956C186.402 363.301 185.764 363.647 185.106 363.981C186.507 364.473 187.855 364.975 189.162 365.467C190.301 365.907 191.41 366.346 192.476 366.786C205.45 372.122 212.914 377.647 212.224 382.408C211.471 387.629 201.007 390.967 184.562 392.17C171.589 393.122 154.883 392.735 136.285 390.925C130.922 390.391 125.391 389.753 119.757 388.989C118.512 388.822 117.258 388.644 115.993 388.455C90.5998 384.783 67.8828 379.331 51.5429 373.451C50.8529 373.2 50.1734 372.949 49.5043 372.697C48.992 372.509 48.5007 372.321 47.9989 372.132C33.2898 366.461 24.686 360.476 25.4178 355.391C26.1392 350.379 35.7779 347.114 51.0515 345.796C51.2188 345.252 51.3965 344.708 51.5847 344.174C32.9344 345.89 20.9016 350.285 19.9503 356.919C19.0617 363.061 27.8014 370.029 42.8763 376.538C43.4513 376.789 44.0367 377.029 44.6326 377.281C45.9812 377.835 47.3821 378.4 48.8143 378.944C63.3038 384.49 82.3096 389.554 103.647 393.248C107.368 393.896 111.174 394.503 115.031 395.058C116.777 395.309 118.502 395.55 120.227 395.769C143.561 398.846 165.034 399.651 181.802 398.459C202.481 396.994 216.008 392.473 217.022 385.421C217.932 379.279 209.192 372.3 194.117 365.802Z" fill="url(#paint19_linear_250_1201)"/>
<path d="M175.415 325.057C168.118 318.109 149.896 300.478 112.888 303.952C79.3511 307.112 61.5894 326.815 54.6896 336.546C66.0533 312.721 90.3489 296.251 118.502 296.251C141.846 296.262 162.556 307.594 175.415 325.057Z" fill="url(#paint20_linear_250_1201)"/>
</g>
<defs>
<radialGradient id="paint0_radial_250_1201" cx="0" cy="0" r="1" gradientUnits="userSpaceOnUse" gradientTransform="translate(187.578 29.9535) rotate(0.527782) scale(110.148 110.688)">
<stop stop-color="#FFA360"/>
<stop offset="1" stop-color="#F22749"/>
</radialGradient>
<linearGradient id="paint1_linear_250_1201" x1="186.861" y1="-14.5209" x2="212.152" y2="172.956" gradientUnits="userSpaceOnUse">
<stop stop-color="#FFBB71"/>
<stop offset="1" stop-color="#FFBB71" stop-opacity="0"/>
</linearGradient>
<linearGradient id="paint2_linear_250_1201" x1="189.099" y1="-14.823" x2="214.39" y2="172.653" gradientUnits="userSpaceOnUse">
<stop stop-color="#FFBB71"/>
<stop offset="1" stop-color="#FFBB71" stop-opacity="0"/>
</linearGradient>
<linearGradient id="paint3_linear_250_1201" x1="189.637" y1="-14.8956" x2="214.928" y2="172.581" gradientUnits="userSpaceOnUse">
<stop stop-color="#FFBB71"/>
<stop offset="1" stop-color="#FFBB71" stop-opacity="0"/>
</linearGradient>
<linearGradient id="paint4_linear_250_1201" x1="190.687" y1="-15.0376" x2="215.978" y2="172.44" gradientUnits="userSpaceOnUse">
<stop stop-color="#FFBB71"/>
<stop offset="1" stop-color="#FFBB71" stop-opacity="0"/>
</linearGradient>
<linearGradient id="paint5_linear_250_1201" x1="202.117" y1="-16.5796" x2="227.408" y2="170.899" gradientUnits="userSpaceOnUse">
<stop stop-color="#FFBB71"/>
<stop offset="1" stop-color="#FFBB71" stop-opacity="0"/>
</linearGradient>
<linearGradient id="paint6_linear_250_1201" x1="182.223" y1="-13.8955" x2="207.515" y2="173.582" gradientUnits="userSpaceOnUse">
<stop stop-color="#FFBB71"/>
<stop offset="1" stop-color="#FFBB71" stop-opacity="0"/>
</linearGradient>
<linearGradient id="paint7_linear_250_1201" x1="162.773" y1="-11.272" x2="188.064" y2="176.206" gradientUnits="userSpaceOnUse">
<stop stop-color="#FFBB71"/>
<stop offset="1" stop-color="#FFBB71" stop-opacity="0"/>
</linearGradient>
<linearGradient id="paint8_linear_250_1201" x1="204.143" y1="-16.8519" x2="229.434" y2="170.625" gradientUnits="userSpaceOnUse">
<stop stop-color="#FFBB71"/>
<stop offset="1" stop-color="#FFBB71" stop-opacity="0"/>
</linearGradient>
<linearGradient id="paint9_linear_250_1201" x1="187.847" y1="134.441" x2="202.097" y2="41.2828" gradientUnits="userSpaceOnUse">
<stop stop-color="#D8274D"/>
<stop offset="1" stop-color="#F22749" stop-opacity="0"/>
</linearGradient>
<linearGradient id="paint10_linear_250_1201" x1="199.629" y1="134.03" x2="194.92" y2="88.0184" gradientUnits="userSpaceOnUse">
<stop stop-color="#A9273E"/>
<stop offset="1" stop-color="#B62738" stop-opacity="0"/>
</linearGradient>
<linearGradient id="paint11_linear_250_1201" x1="261.178" y1="-13.3204" x2="209.501" y2="46.7172" gradientUnits="userSpaceOnUse">
<stop stop-color="#FFECB8"/>
<stop offset="1" stop-color="#FFD371" stop-opacity="0.2"/>
</linearGradient>
<radialGradient id="paint12_radial_250_1201" cx="0" cy="0" r="1" gradientUnits="userSpaceOnUse" gradientTransform="translate(192.485 185.311) scale(95.0356 95.1068)">
<stop stop-color="#E8E8E8"/>
<stop offset="1" stop-color="#DFDFDF"/>
</radialGradient>
<linearGradient id="paint13_linear_250_1201" x1="183.204" y1="308.372" x2="182.596" y2="154.014" gradientUnits="userSpaceOnUse">
<stop/>
<stop offset="1" stop-opacity="0.2"/>
</linearGradient>
<linearGradient id="paint14_linear_250_1201" x1="250.589" y1="155.973" x2="212.693" y2="197.929" gradientUnits="userSpaceOnUse">
<stop stop-color="#B7B7B7"/>
<stop offset="0.557292" stop-color="#AEAEAE" stop-opacity="0.2"/>
</linearGradient>
<radialGradient id="paint15_radial_250_1201" cx="0" cy="0" r="1" gradientUnits="userSpaceOnUse" gradientTransform="translate(118.499 366.996) scale(80.1617 80.2327)">
<stop stop-color="#C7F1F6"/>
<stop offset="1" stop-color="#D3F4F9" stop-opacity="0"/>
</radialGradient>
<radialGradient id="paint16_radial_250_1201" cx="0" cy="0" r="1" gradientUnits="userSpaceOnUse" gradientTransform="translate(108.524 329.548) scale(124.584 124.694)">
<stop stop-color="#31E7C2"/>
<stop offset="1" stop-color="#652FB0"/>
</radialGradient>
<linearGradient id="paint17_linear_250_1201" x1="154.69" y1="466.881" x2="101.394" y2="320.032" gradientUnits="userSpaceOnUse">
<stop stop-color="#4A3E9E"/>
<stop offset="1" stop-color="#4AE09E" stop-opacity="0.5"/>
</linearGradient>
<linearGradient id="paint18_linear_250_1201" x1="121.193" y1="452.775" x2="111.476" y2="341.82" gradientUnits="userSpaceOnUse">
<stop stop-color="#3D3789"/>
<stop offset="1" stop-color="#3DCC5E" stop-opacity="0.2"/>
</linearGradient>
<linearGradient id="paint19_linear_250_1201" x1="116.316" y1="410.292" x2="120.064" y2="343.302" gradientUnits="userSpaceOnUse">
<stop stop-color="#83ECEC"/>
<stop offset="1" stop-color="#8EE2D3" stop-opacity="0.3"/>
</linearGradient>
<linearGradient id="paint20_linear_250_1201" x1="114.818" y1="285.405" x2="115.024" y2="324.778" gradientUnits="userSpaceOnUse">
<stop stop-color="#C7F1F6"/>
<stop offset="1" stop-color="#D3F4F9" stop-opacity="0"/>
</linearGradient>
<clipPath id="clip0_250_1201">
<rect width="237" height="170" fill="white" transform="translate(0 282)"/>
</clipPath>
</defs>
</svg>
