<svg width="258" height="288" viewBox="0 0 258 288" fill="none" xmlns="http://www.w3.org/2000/svg">
<g opacity="0.2">
<path d="M257.599 73.6179C254.55 106.706 226.965 135.007 190.382 135.007C144.703 135.007 112.389 90.4724 126.032 47.2759C130.729 32.3059 140.669 19.1778 154.205 10.547C157.008 8.76949 159.972 7.17398 163.064 5.79263C198.15 -9.78767 239.431 7.18469 253.319 43.2389C257.214 53.3795 258.509 63.7128 257.599 73.6179Z" fill="url(#paint0_radial_250_1381)"/>
<path d="M222.171 127.041C212.702 132.116 201.873 134.997 190.371 134.997C164.167 134.997 141.45 120.037 130.29 98.1821C135.02 100.602 143.74 104.446 153.873 106.02C168.575 108.301 186.369 105.314 194.737 109.597C208.689 116.739 210.958 124.942 222.171 127.041Z" fill="url(#paint1_linear_250_1381)"/>
<path d="M165.386 96.0941C152.407 96.9829 134.378 90.8364 125.989 87.6347C124.009 81.2741 122.939 74.5173 122.939 67.5142C122.939 64.9978 123.079 62.5135 123.346 60.072C127.005 64.4088 135.394 73.4572 145.944 79.0254C160.229 86.5746 182.838 94.9055 165.386 96.0941Z" fill="url(#paint2_linear_250_1381)"/>
<path d="M248.226 102.219C245.69 106.449 242.694 110.379 239.324 113.945C230.667 111.578 221.016 107.295 213.194 100.667C199.273 88.8771 197.326 83.598 165.194 73.2753C142.777 66.0688 130.975 54.2363 125.893 47.7365C127.476 42.5538 129.67 37.628 132.398 33.0557C138.765 39.941 152.878 53.4332 170.758 59.7724C195.357 68.5102 199.316 67.7071 221.529 87.9562C230.988 96.5976 240.468 100.538 248.226 102.219Z" fill="url(#paint3_linear_250_1381)"/>
<path d="M257.813 67.5142C257.813 75.0848 256.572 82.3556 254.271 89.1446C247.755 89.0054 237.665 86.3176 226.269 74.4637C206.432 53.8185 177.081 49.8458 176.686 43.0997C176.29 36.3536 206.838 41.9111 225.478 52.2337C238.885 59.6651 248.814 65.0299 257.76 64.7943C257.792 65.6938 257.813 66.604 257.813 67.5142Z" fill="url(#paint4_linear_250_1381)"/>
<path d="M162.808 30.0039C154.729 26.2346 145.356 25.635 144.96 28.8153C144.564 31.9956 150.513 42.3075 161.224 40.3265C171.924 38.3348 168.757 32.7773 162.808 30.0039Z" fill="url(#paint5_linear_250_1381)"/>
<path d="M253.319 43.239C243.304 37.1461 226.216 32.9699 199.701 26.8234C177.392 21.6514 167.452 12.4424 163.065 5.79269C168.746 3.27628 174.835 1.50945 181.212 0.64209C186.091 5.2787 196.16 11.6286 216.757 16.897C228.452 19.8846 237.537 23.5789 244.492 27.241C248.119 32.1132 251.094 37.4887 253.319 43.239Z" fill="url(#paint6_linear_250_1381)"/>
<path d="M221.112 110.989C217.635 109.072 205.64 102.251 213.183 116.151C216.147 121.612 229.052 115.358 221.112 110.989Z" fill="url(#paint7_linear_250_1381)"/>
<path d="M204.848 103.836C203.222 103.954 204.056 107.413 205.64 107.809C207.234 108.205 210.412 103.44 204.848 103.836Z" fill="url(#paint8_linear_250_1381)"/>
<path opacity="0.45" d="M254.261 89.1769C252.709 93.7707 250.676 98.1289 248.226 102.219C245.69 106.449 242.694 110.379 239.324 113.945C234.369 119.181 228.581 123.614 222.182 127.041C212.713 132.116 201.884 134.997 190.382 134.997C164.177 134.997 141.461 120.038 130.301 98.1824C128.578 94.8201 127.134 91.2971 126 87.6349C124.02 81.2743 122.95 74.5175 122.95 67.5144C122.95 64.998 123.089 62.5137 123.357 60.0722C123.817 55.8318 124.673 51.6985 125.893 47.7258C125.935 47.5759 125.989 47.4153 126.032 47.2653C135.833 36.7393 154.333 42.7786 163.61 56.5921C177.531 77.3444 210.808 139.173 254.261 89.1769Z" fill="url(#paint9_linear_250_1381)"/>
<path opacity="0.55" d="M254.56 88.2665C253.341 92.2392 251.083 97.4648 248.226 102.219C217.827 152.89 142.06 142.45 125.668 86.5425C134.089 98.043 145.399 106.749 160.432 110.989C214.018 126.066 241.474 105.742 254.56 88.2665Z" fill="url(#paint10_linear_250_1381)"/>
<path d="M253.319 43.2388C257.225 53.3687 258.509 63.7128 257.599 73.6178C255.545 56.1528 246.899 27.7549 213.579 14.5197C189.162 4.81814 168.714 6.40293 154.194 10.547C156.998 8.76943 159.961 7.17391 163.054 5.79257C198.15 -9.78774 239.431 7.19533 253.319 43.2388Z" fill="url(#paint11_linear_250_1381)"/>
</g>
<g opacity="0.2">
<path d="M65.2101 287.613C40.9724 287.613 19.8564 274.176 8.9247 254.335C-15.1924 210.586 18.0726 157.477 66.6323 159.033C97.523 159.661 123.617 182.446 128.594 212.745C135.127 251.85 104.935 287.613 65.2101 287.613Z" fill="url(#paint12_radial_250_1381)"/>
<g opacity="0.75">
<path d="M90.7257 233.709C88.062 233.045 87.3268 236.362 88.8334 237.11C90.34 237.87 94.1245 240.138 94.8838 238.618C95.6431 237.11 93.7508 234.469 90.7257 233.709Z" fill="#8E3316"/>
<path d="M117.181 205.725C114.602 206.316 111.516 207.619 114.156 209.513C116.807 211.406 120.953 210.647 121.339 208.379C121.713 206.099 122.098 204.592 117.181 205.725Z" fill="#8E3316"/>
<path d="M65.4031 266.614C59.8589 263.284 51.7957 262.078 51.0364 265.48C50.2771 268.881 55.5682 274.176 61.9922 273.416C68.4282 272.669 69.1876 268.881 65.4031 266.614Z" fill="#8E3316"/>
<path d="M83.4826 284.972C78.4808 286.456 73.2259 287.348 67.7902 287.553C69.0316 279.677 76.5162 282.161 80.5176 283.247C81.6867 283.573 82.663 284.212 83.4826 284.972Z" fill="#8E3316"/>
<path d="M30.2583 266.24C32.705 267.313 34.4165 262.078 31.0177 257.543C27.6188 253.008 26.1002 247.327 21.9421 246.193C17.784 245.059 15.5181 259.811 30.2583 266.24Z" fill="#8E3316"/>
<path d="M13.6254 247.701C12.2876 247.942 11.7332 250.728 14.7584 251.102C17.7836 251.488 17.7835 246.953 13.6254 247.701Z" fill="#8E3316"/>
<path d="M47.2645 232.201C44.6008 231.96 41.9734 233.335 42.347 236.362C42.7207 239.39 46.8788 236.362 48.771 236.362C50.6633 236.362 51.4226 232.575 47.2645 232.201Z" fill="#8E3316"/>
<path d="M73.3455 197.029C71.0555 195.943 70.6939 200.816 72.5862 201.564C74.4784 202.324 79.7695 200.044 73.3455 197.029Z" fill="#8E3316"/>
</g>
<path d="M49.1562 221.61C36.3082 223.878 34.416 224.252 22.7009 234.094C14.9511 240.596 6.86388 238.497 2.28391 236.326C1.42818 232.128 0.970154 227.774 0.970154 223.311C0.970154 205.025 8.59944 188.513 20.8448 176.812C23.3638 178.308 25.9671 180.335 27.992 183.036C33.6567 190.599 32.5237 193.627 49.1562 202.323C65.7767 211.02 62.0043 219.343 49.1562 221.61Z" fill="url(#paint13_linear_250_1381)"/>
<path d="M123.28 195.762C111.42 193.277 103.333 206.702 95.2573 205.725C85.8082 204.591 88.4597 190.599 80.517 175.848C76.5397 168.466 76.2625 163.351 76.9736 160.095C97.4991 163.882 114.59 177.44 123.28 195.762Z" fill="url(#paint14_linear_250_1381)"/>
<path d="M129.463 223.311C129.463 248.267 115.265 269.894 94.5103 280.557C89.7737 273.067 97.4512 267.506 106.599 261.704C117.94 254.515 107.358 251.488 109.239 239.764C111.131 228.039 103.947 227.28 107.346 217.449C109.769 210.429 122.4 217.087 129.427 221.478C129.451 222.081 129.463 222.696 129.463 223.311Z" fill="url(#paint15_linear_250_1381)"/>
<path d="M69.1876 242.791C62.3177 244.926 58.6055 236.736 49.9156 238.63C41.2257 240.524 34.0424 256.023 45.7575 255.649C57.4725 255.275 60.4977 253.756 69.1876 259.811C77.8775 265.866 88.086 261.704 91.1112 252.248C94.1244 242.791 92.2321 235.602 69.1876 242.791Z" fill="url(#paint16_linear_250_1381)"/>
<path d="M83.5417 214.421C79.9259 215.579 79.0099 217.449 80.1429 219.717C81.2758 221.984 85.8076 221.61 88.0735 225.012C90.3393 228.413 96.016 232.575 97.5226 225.012C99.0412 217.449 91.8579 211.768 83.5417 214.421Z" fill="url(#paint17_linear_250_1381)"/>
<path opacity="0.5" d="M70.321 194.749C69.646 199.79 65.0299 194.749 57.4729 193.241C49.916 191.733 46.8908 187.186 50.2896 184.158C53.6884 181.131 58.2202 178.863 62.764 181.505C67.2958 184.158 71.0682 189.079 70.321 194.749Z" fill="#8E3316"/>
<path d="M62.3774 164.871C52.9282 164.871 48.3964 170.167 39.7066 173.194C34.524 174.991 30.4261 172.905 27.9553 170.926C38.4651 163.424 51.3252 159.009 65.2218 159.009C65.7039 159.009 66.174 159.009 66.644 159.033C67.3069 161.759 67.0658 164.871 62.3774 164.871Z" fill="url(#paint18_linear_250_1381)"/>
<path opacity="0.45" d="M126.401 242.984C121.158 259.328 109.552 272.825 94.51 280.557C91.0027 282.354 87.3146 283.838 83.4819 284.984C78.4801 286.467 73.2252 287.36 67.7895 287.565C66.9337 287.601 66.078 287.613 65.2102 287.613C40.9726 287.613 19.8565 274.176 8.92484 254.335C5.8635 248.786 3.59764 242.731 2.28391 236.326C1.42818 232.129 0.970154 227.774 0.970154 223.311C0.970154 215.543 2.34416 208.101 4.86314 201.214C12.1308 222.937 28.7634 250.969 66.5722 256.168C73.9484 257.181 80.8424 257.314 87.2784 256.759C103.067 255.372 116.06 249.847 126.401 242.984Z" fill="url(#paint19_linear_250_1381)"/>
<path opacity="0.45" d="M129.462 223.311C129.462 230.174 128.389 236.784 126.4 242.984C121.158 259.328 109.551 272.825 94.5094 280.557C91.0021 282.354 87.3141 283.838 83.4814 284.984C78.4796 286.467 73.2246 287.36 67.789 287.565C66.9332 287.601 66.0775 287.613 65.2097 287.613C40.9721 287.613 19.856 274.176 8.92432 254.334C20.0368 258.906 33.2705 262.03 48.9629 262.645C64.1852 263.248 76.8163 260.896 87.2779 256.747C109.768 247.845 122.303 230.621 129.1 216.436C129.281 218.088 129.39 219.777 129.438 221.466C129.45 222.081 129.462 222.696 129.462 223.311Z" fill="url(#paint20_linear_250_1381)"/>
<path d="M128.607 212.781C128.607 212.781 119.459 179.249 77.3956 168.213C52.1817 161.591 34.6813 167.561 24.7139 173.399C56.5446 147.394 105.225 157.719 123.28 195.762C127.474 204.579 128.306 211.551 128.607 212.781Z" fill="url(#paint21_linear_250_1381)"/>
</g>
<defs>
<radialGradient id="paint0_radial_250_1381" cx="0" cy="0" r="1" gradientUnits="userSpaceOnUse" gradientTransform="translate(188.587 41.2999) scale(67.4673 67.5183)">
<stop stop-color="#EACCA0"/>
<stop offset="1" stop-color="#D98301"/>
</radialGradient>
<linearGradient id="paint1_linear_250_1381" x1="193.402" y1="156.304" x2="137.4" y2="14.0217" gradientUnits="userSpaceOnUse">
<stop stop-color="#A65B31"/>
<stop offset="1" stop-color="#B16E31" stop-opacity="0.2"/>
</linearGradient>
<linearGradient id="paint2_linear_250_1381" x1="177.169" y1="162.693" x2="121.167" y2="20.4114" gradientUnits="userSpaceOnUse">
<stop stop-color="#A66231"/>
<stop offset="1" stop-color="#B18D31" stop-opacity="0.2"/>
</linearGradient>
<linearGradient id="paint3_linear_250_1381" x1="215.584" y1="147.573" x2="159.581" y2="5.29147" gradientUnits="userSpaceOnUse">
<stop stop-color="#A64D31"/>
<stop offset="1" stop-color="#B16E31" stop-opacity="0.2"/>
</linearGradient>
<linearGradient id="paint4_linear_250_1381" x1="248.813" y1="134.494" x2="192.811" y2="-7.78805" gradientUnits="userSpaceOnUse">
<stop stop-color="#A64D31"/>
<stop offset="1" stop-color="#B16731" stop-opacity="0.2"/>
</linearGradient>
<linearGradient id="paint5_linear_250_1381" x1="203.631" y1="152.278" x2="147.628" y2="9.99622" gradientUnits="userSpaceOnUse">
<stop stop-color="#A66931"/>
<stop offset="1" stop-color="#B16E31" stop-opacity="0.2"/>
</linearGradient>
<linearGradient id="paint6_linear_250_1381" x1="251.061" y1="133.609" x2="195.059" y2="-8.6732" gradientUnits="userSpaceOnUse">
<stop stop-color="#A66931"/>
<stop offset="1" stop-color="#B16E31" stop-opacity="0.2"/>
</linearGradient>
<linearGradient id="paint7_linear_250_1381" x1="229.025" y1="142.283" x2="173.023" y2="0.00112908" gradientUnits="userSpaceOnUse">
<stop stop-color="#A65431"/>
<stop offset="1" stop-color="#B16E31" stop-opacity="0.2"/>
</linearGradient>
<linearGradient id="paint8_linear_250_1381" x1="221.635" y1="145.191" x2="165.633" y2="2.90915" gradientUnits="userSpaceOnUse">
<stop stop-color="#A66231"/>
<stop offset="1" stop-color="#B15F31" stop-opacity="0.2"/>
</linearGradient>
<linearGradient id="paint9_linear_250_1381" x1="175.999" y1="137.079" x2="195.944" y2="38.8488" gradientUnits="userSpaceOnUse">
<stop stop-color="#A35A31"/>
<stop offset="1" stop-color="#B87B42" stop-opacity="0.3"/>
</linearGradient>
<linearGradient id="paint10_linear_250_1381" x1="197.18" y1="151.445" x2="189.631" y2="83.1653" gradientUnits="userSpaceOnUse">
<stop stop-color="#A35C1A"/>
<stop offset="1" stop-color="#A3662E" stop-opacity="0.1"/>
</linearGradient>
<linearGradient id="paint11_linear_250_1381" x1="274.871" y1="-42.7304" x2="200.227" y2="48.917" gradientUnits="userSpaceOnUse">
<stop stop-color="#F6E4A4"/>
<stop offset="1" stop-color="#F9E2B5" stop-opacity="0"/>
</linearGradient>
<radialGradient id="paint12_radial_250_1381" cx="0" cy="0" r="1" gradientUnits="userSpaceOnUse" gradientTransform="translate(68.3998 198.148) scale(77.9731 78.0336)">
<stop stop-color="#E57E33"/>
<stop offset="1" stop-color="#C64F1C"/>
</radialGradient>
<linearGradient id="paint13_linear_250_1381" x1="22.9967" y1="124.177" x2="37.758" y2="309.117" gradientUnits="userSpaceOnUse">
<stop stop-color="#F29036"/>
<stop offset="1" stop-color="#F29C36" stop-opacity="0"/>
</linearGradient>
<linearGradient id="paint14_linear_250_1381" x1="95.0923" y1="118.423" x2="109.854" y2="303.362" gradientUnits="userSpaceOnUse">
<stop stop-color="#F26336"/>
<stop offset="1" stop-color="#F2C936" stop-opacity="0"/>
</linearGradient>
<linearGradient id="paint15_linear_250_1381" x1="100.817" y1="117.966" x2="115.578" y2="302.905" gradientUnits="userSpaceOnUse">
<stop stop-color="#F27A36"/>
<stop offset="1" stop-color="#F27A36" stop-opacity="0"/>
</linearGradient>
<linearGradient id="paint16_linear_250_1381" x1="55.7977" y1="121.559" x2="70.559" y2="306.499" gradientUnits="userSpaceOnUse">
<stop stop-color="#F28536"/>
<stop offset="1" stop-color="#F27A36" stop-opacity="0"/>
</linearGradient>
<linearGradient id="paint17_linear_250_1381" x1="80.6749" y1="119.573" x2="95.4363" y2="304.513" gradientUnits="userSpaceOnUse">
<stop stop-color="#F29C36"/>
<stop offset="1" stop-color="#F27A36" stop-opacity="0"/>
</linearGradient>
<linearGradient id="paint18_linear_250_1381" x1="43.9767" y1="122.502" x2="58.7381" y2="307.442" gradientUnits="userSpaceOnUse">
<stop stop-color="#F27A36"/>
<stop offset="1" stop-color="#F27A36" stop-opacity="0"/>
</linearGradient>
<linearGradient id="paint19_linear_250_1381" x1="55.4443" y1="306.554" x2="65.0958" y2="218.623" gradientUnits="userSpaceOnUse">
<stop stop-color="#8E2416"/>
<stop offset="1" stop-color="#8E3316" stop-opacity="0.3"/>
</linearGradient>
<linearGradient id="paint20_linear_250_1381" x1="61.923" y1="302.773" x2="72.7099" y2="210.872" gradientUnits="userSpaceOnUse">
<stop stop-color="#6F1B16"/>
<stop offset="1" stop-color="#653216" stop-opacity="0.3"/>
</linearGradient>
<linearGradient id="paint21_linear_250_1381" x1="111.872" y1="123.596" x2="71.3835" y2="203.376" gradientUnits="userSpaceOnUse">
<stop stop-color="#FFC7B5"/>
<stop offset="1" stop-color="#FFC1B3" stop-opacity="0"/>
</linearGradient>
</defs>
</svg>
