<svg width="461" height="490" viewBox="0 0 461 490" fill="none" xmlns="http://www.w3.org/2000/svg">
<g opacity="0.15">
<path d="M135.976 62.185C135.817 117.303 67.0965 144.309 27.8326 105.966C-12.2841 67.1698 15.9426 0 72.4567 0C109.296 0 136.061 29.659 135.976 62.185Z" fill="url(#paint0_radial_294_193)"/>
<g opacity="0.5">
<path d="M135.586 60.1877C134.404 60.0926 133.015 60.0926 131.468 60.2948C126.729 60.9015 119.469 63.5308 111.794 72.6319C110.575 74.0833 109.442 75.4514 108.334 76.7839C96.0418 91.6431 90.4257 98.4362 53.7567 101.684C42.1712 102.707 34.1552 106.49 28.6 111.083C28.332 110.833 28.0761 110.595 27.8203 110.333C33.5095 105.598 41.757 101.684 53.6592 100.637C89.8653 97.425 95.0307 91.191 107.493 76.1176C108.59 74.7852 109.723 73.4171 110.953 71.9656C118.884 62.5552 126.449 59.8546 131.395 59.236C132.906 59.0456 134.27 59.0337 135.452 59.117C135.513 59.4739 135.562 59.8308 135.586 60.1877Z" fill="#FFED9F"/>
<path d="M135.257 75.1184C135.208 75.4634 135.16 75.8085 135.099 76.1416C129.458 76.0583 124.427 78.3068 120.078 82.8633C117.544 85.5163 115.375 88.0028 113.463 90.1918C104.046 100.97 98.3566 107.478 70.398 111.88C59.5678 113.581 51.6005 117.293 46.6666 122.908C46.3255 122.765 45.9844 122.611 45.6433 122.456C50.7356 116.52 58.9953 112.605 70.2274 110.845C97.7962 106.502 103.071 100.471 112.647 89.5137C114.571 87.3127 116.752 84.8144 119.298 82.1495C124.537 76.6412 130.25 75.0232 135.257 75.1184Z" fill="#FFED9F"/>
<path d="M131.151 89.8586C130.993 90.2274 130.835 90.6081 130.664 90.977C126.12 91.7265 122.222 94.0583 119.018 97.9723C110.295 108.62 104.509 114.116 89.1953 118.566C78.8402 121.564 74.4667 125.323 72.6516 128.262H72.4566C72.1034 128.262 71.7622 128.262 71.4089 128.25C73.7845 123.824 79.6565 120.219 88.8785 117.543C103.899 113.188 109.589 107.775 118.165 97.3061C122.185 92.4164 126.875 90.4416 131.151 89.8586Z" fill="#FFED9F"/>
<path d="M69.5939 73.7026C65.6103 80.472 55.6329 83.0417 40.8678 86.1944C28.0885 88.9188 21.5953 94.427 18.3669 98.6742C18.1598 98.3411 17.9527 98.008 17.7456 97.6749C18.038 97.2942 18.3669 96.9135 18.7202 96.509C22.0582 92.7496 28.5758 87.741 40.6364 85.1593C55.1212 82.0662 64.8915 79.5559 68.6559 73.1792C71.0558 69.0866 70.9584 63.4951 68.3513 55.5718C66.1463 48.8858 62.8327 42.1759 59.6409 35.6921C54.8532 25.9724 50.2239 16.5976 49.9315 8.40067C50.297 8.26981 50.6503 8.13892 51.0158 8.00806C51.1741 16.0741 55.8035 25.4727 60.6155 35.2281C63.8317 41.7476 67.1575 48.4813 69.3869 55.2506C72.0913 63.4713 72.1644 69.3365 69.5939 73.7026Z" fill="#FFED9F"/>
<path d="M55.377 63.3286C52.8552 67.9684 45.0219 69.8719 31.4507 71.7635C21.583 73.1436 14.8705 76.3557 10.4726 79.4965C10.3873 79.1039 10.3021 78.6994 10.2168 78.3068C14.7365 75.1898 21.4733 72.0848 31.2923 70.7166C44.2057 68.9202 52.1243 67.0524 54.4146 62.829C55.9008 60.0808 55.2064 56.1191 52.1486 50.0041C51.4786 48.6717 50.8208 47.3749 50.1873 46.1138C44.425 34.788 39.7226 25.5441 41.2941 12.3505C41.684 12.1364 42.0616 11.9222 42.4636 11.72C40.6363 24.9374 45.1559 33.8363 51.1619 45.638C51.8075 46.899 52.4654 48.1958 53.1354 49.5283C56.3515 56.0002 57.046 60.2473 55.377 63.3286Z" fill="#FFED9F"/>
<path d="M26.6022 54.3941C25.1769 54.9295 23.5688 55.5362 21.8511 56.2381C15.3335 58.9387 11.3255 61.8534 9.07178 63.9116C9.08396 63.4119 9.12052 62.9123 9.15706 62.4126C11.5814 60.3663 15.4797 57.7371 21.4369 55.2745C23.1668 54.5606 24.7871 53.9539 26.2246 53.4185C34.7523 50.2302 38.2852 48.9096 35.8974 35.7874C34.3137 27.0788 34.6548 20.4047 35.3127 16.1099C35.7269 15.8125 36.1411 15.527 36.5675 15.2415C35.8365 19.3816 35.2761 26.365 36.9573 35.6089C39.5034 49.5759 35.1908 51.1938 26.6022 54.3941Z" fill="#FFED9F"/>
<path d="M26.0175 38.2499C23.3008 42.3424 17.7334 43.782 13.165 44.2459C13.3112 43.8652 13.4696 43.4845 13.628 43.1038C17.8553 42.6042 22.7526 41.2241 25.116 37.667C27.1017 34.6809 27.0287 30.5407 24.8845 25.3299C25.1526 25.0325 25.4084 24.747 25.6886 24.4614C28.1616 30.2433 28.2712 34.8712 26.0175 38.2499Z" fill="#FFED9F"/>
<path d="M134.477 53.24C124.829 51.3603 120.772 45.3048 116.825 39.4277C115.984 38.1666 115.107 36.8699 114.206 35.6564C113.524 34.7403 112.878 33.8124 112.269 32.9201C107.749 26.4006 103.473 20.238 81.764 16.8593C71.3115 15.2294 64.0508 11.9578 60.2012 7.11576C59.8235 6.63989 59.5068 6.17593 59.2266 5.72385C59.6042 5.64057 59.9819 5.56918 60.3596 5.4978C60.5788 5.84281 60.8347 6.18783 61.1149 6.54473C63.661 9.69741 69.338 13.8613 81.9346 15.8243C104.107 19.2744 108.504 25.6154 113.158 32.3372C113.767 33.2175 114.401 34.1336 115.083 35.0377C116.009 36.275 116.886 37.5837 117.739 38.8567C121.479 44.4363 125.328 50.1706 134.234 52.0979C134.307 52.4667 134.404 52.8474 134.477 53.24Z" fill="#FFED9F"/>
<path d="M129.97 40.1297C123.282 38.3452 119.639 33.8125 115.814 29.0537C111.501 23.7001 106.628 17.6327 96.4439 14.373C85.6015 10.8991 80.3753 7.30624 77.8535 4.59375C78.4139 4.64134 78.9865 4.68894 79.5469 4.76032C82.1905 7.19918 87.2218 10.3162 96.7728 13.3737C107.262 16.7286 112.257 22.9388 116.654 28.4113C120.321 32.9678 123.586 37.0247 129.336 38.8568C129.556 39.2732 129.763 39.7014 129.97 40.1297Z" fill="#FFED9F"/>
<path d="M113.365 50.7298C111.306 40.6532 97.0164 26.1509 83.9812 20.8687C77.293 18.1681 71.5917 18.1562 67.4862 20.8211C64.9645 22.4629 66.7796 27.5309 69.545 35.1925C70.7998 38.6664 72.213 42.5924 73.3947 46.7444C74.3327 50.0398 74.9297 53.7041 75.5144 57.2374C77.22 67.5877 78.8281 77.367 88.2694 78.4496C88.842 78.521 89.4267 78.5448 90.0115 78.5448C95.6641 78.5448 101.938 75.5467 106.762 70.4311C112.232 64.6373 114.705 57.2731 113.365 50.7298ZM105.958 69.7173C100.854 75.1185 94.1291 78.057 88.3912 77.4027C79.7539 76.4152 78.2067 67.0167 76.5743 57.0709C75.9895 53.5018 75.3804 49.8138 74.4302 46.4589C73.2363 42.2712 71.811 38.3214 70.5562 34.8356C68.2415 28.4232 66.2436 22.8912 68.071 21.7015C72.8587 18.5845 79.1326 20.0597 83.5548 21.8442C96.0905 26.9123 110.332 41.3313 112.293 50.9321C113.572 57.1423 111.197 64.1734 105.958 69.7173Z" fill="#FFED9F"/>
<path d="M102.304 40.5223C95.8838 33.1582 85.8942 26.02 77.5127 26.02C77.1107 26.02 76.733 26.0319 76.3432 26.0676C75.5635 26.1271 74.9788 26.5078 74.6498 27.1383C72.6763 30.9215 80.3634 43.4727 80.4365 43.5917C82.3735 46.7444 82.739 51.2176 83.0801 55.5481C83.5917 61.9724 84.079 68.0398 89.8535 68.5514C90.4382 68.599 91.023 68.6347 91.5956 68.6347C99.9527 68.6347 107.226 63.293 109.248 55.4053C110.088 52.1099 107.433 46.3994 102.304 40.5223ZM108.2 55.1436C106.166 63.055 98.4908 68.2539 89.9388 67.4925C85.0658 67.0642 84.6394 61.6869 84.1399 55.4648C83.7866 51.0154 83.4212 46.4113 81.338 43.0445C78.2315 38.0121 74.394 29.8984 75.5879 27.6142C75.7585 27.3049 76.0143 27.1383 76.4163 27.1145C84.6516 26.4364 94.9336 33.6935 101.476 41.2005C106.312 46.7444 108.955 52.217 108.2 55.1436Z" fill="#FFED9F"/>
<path d="M99.9403 52.526C99.4165 47.0773 93.2035 39.0469 88.3305 39.0469C87.8676 39.0469 87.5996 39.2729 87.4534 39.4632C86.8686 40.2246 87.3072 41.7355 88.1965 44.5551C88.7813 46.3991 89.4391 48.493 89.5853 50.1823C89.6462 50.8605 89.6462 51.5386 89.6584 52.1929C89.6828 54.0726 89.7193 55.8452 90.9863 56.8565C91.6563 57.3918 92.6065 57.6536 93.8857 57.6536C94.6897 57.6536 95.6278 57.5465 96.6998 57.3562C99.051 56.8922 100.196 55.1909 99.9403 52.526ZM96.5171 56.2974C94.0684 56.7494 92.4847 56.6661 91.6807 56.0237C90.8035 55.3218 90.7792 53.8585 90.7548 52.1572C90.7426 51.491 90.7305 50.801 90.6696 50.0872C90.5234 48.2789 89.8411 46.1255 89.232 44.222C88.7691 42.7468 88.0625 40.534 88.3062 40.0938H88.3183C92.5578 40.0938 98.3932 47.7911 98.8561 52.6212C99.0632 54.7269 98.2714 55.9642 96.5171 56.2974Z" fill="#FFED9F"/>
</g>
<path opacity="0.65" d="M134.891 73.3442C134.027 77.7937 132.626 82.2431 130.676 86.6211C112.951 126.464 59.2875 136.683 27.8447 105.977C8.63302 87.3944 5.10012 62.292 12.8481 41.175C19.2804 55.7725 29.6477 77.6628 66.3411 88.7031C92.4236 96.5431 122.197 89.75 134.891 73.3442Z" fill="url(#paint1_linear_294_193)"/>
<path opacity="0.65" d="M135.976 62.185C135.964 65.8731 135.611 69.6087 134.88 73.3443C134.015 77.7938 132.614 82.2432 130.665 86.6212C112.939 126.464 59.2757 136.683 27.8329 105.977C24.0929 102.361 20.9499 98.4943 18.3672 94.4613C107.128 133.888 135.184 59.4963 135.184 59.4963L135.976 62.185Z" fill="url(#paint2_linear_294_193)"/>
</g>
<g opacity="0.15">
<path d="M207.99 302.748C179.36 302.748 154.417 287.312 141.505 264.518C113.017 214.261 152.31 153.251 209.67 155.038C246.159 155.759 276.982 181.934 282.862 216.741C290.578 261.663 254.915 302.748 207.99 302.748Z" fill="url(#paint3_radial_294_193)"/>
<g opacity="0.75">
<path d="M238.13 240.824C234.984 240.062 234.115 243.872 235.895 244.731C237.674 245.604 242.145 248.209 243.042 246.463C243.938 244.731 241.703 241.697 238.13 240.824Z" fill="#056DB1"/>
<path d="M269.38 208.677C266.333 209.356 262.688 210.852 265.806 213.028C268.938 215.203 273.836 214.33 274.291 211.725C274.733 209.106 275.188 207.374 269.38 208.677Z" fill="#056DB1"/>
<path d="M208.218 278.624C201.669 274.8 192.145 273.414 191.248 277.321C190.351 281.229 196.601 287.312 204.189 286.439C211.792 285.58 212.689 281.229 208.218 278.624Z" fill="#056DB1"/>
<path d="M229.574 299.714C223.665 301.418 217.458 302.443 211.037 302.679C212.504 293.631 221.345 296.485 226.071 297.732C227.452 298.106 228.606 298.841 229.574 299.714Z" fill="#056DB1"/>
<path d="M166.704 278.194C169.594 279.428 171.616 273.414 167.601 268.204C163.586 262.994 161.792 256.468 156.881 255.165C151.969 253.863 149.292 270.809 166.704 278.194Z" fill="#056DB1"/>
<path d="M147.057 256.897C145.477 257.174 144.822 260.375 148.395 260.805C151.969 261.248 151.969 256.038 147.057 256.897Z" fill="#056DB1"/>
<path d="M186.792 239.092C183.646 238.814 180.542 240.394 180.983 243.872C181.425 247.35 186.336 243.872 188.571 243.872C190.807 243.872 191.704 239.521 186.792 239.092Z" fill="#056DB1"/>
<path d="M217.6 198.686C214.895 197.439 214.468 203.037 216.703 203.896C218.939 204.769 225.188 202.15 217.6 198.686Z" fill="#056DB1"/>
</g>
<path d="M189.027 226.926C173.851 229.531 171.616 229.96 157.777 241.267C148.623 248.736 139.07 246.325 133.66 243.83C132.649 239.008 132.108 234.006 132.108 228.879C132.108 207.873 141.12 188.904 155.585 175.463C158.56 177.181 161.636 179.509 164.027 182.613C170.719 191.301 169.38 194.779 189.027 204.769C208.66 214.76 204.203 224.321 189.027 226.926Z" fill="url(#paint4_linear_294_193)"/>
<path d="M276.583 197.231C262.574 194.377 253.022 209.799 243.483 208.676C232.321 207.374 235.453 191.3 226.071 174.354C221.373 165.874 221.046 159.999 221.886 156.258C246.131 160.608 266.319 176.183 276.583 197.231Z" fill="url(#paint5_linear_294_193)"/>
<path d="M283.887 228.879C283.887 257.548 267.116 282.393 242.6 294.642C237.005 286.037 246.074 279.649 256.88 272.984C270.276 264.726 257.777 261.248 259.997 247.779C262.233 234.311 253.748 233.438 257.762 222.145C260.624 214.081 275.544 221.729 283.844 226.773C283.873 227.466 283.887 228.172 283.887 228.879Z" fill="url(#paint6_linear_294_193)"/>
<path d="M212.689 251.257C204.574 253.71 200.189 244.302 189.924 246.477C179.659 248.652 171.174 266.458 185.012 266.028C198.85 265.599 202.424 263.853 212.689 270.809C222.953 277.765 235.012 272.984 238.585 262.121C242.144 251.257 239.909 242.999 212.689 251.257Z" fill="url(#paint7_linear_294_193)"/>
<path d="M229.645 218.667C225.374 219.997 224.292 222.145 225.63 224.75C226.968 227.355 232.321 226.925 234.998 230.833C237.674 234.74 244.38 239.521 246.159 230.833C247.953 222.145 239.468 215.619 229.645 218.667Z" fill="url(#paint8_linear_294_193)"/>
<path opacity="0.5" d="M214.027 196.067C213.23 201.859 207.777 196.067 198.85 194.335C189.924 192.603 186.351 187.38 190.365 183.902C194.38 180.424 199.733 177.819 205.1 180.853C210.453 183.902 214.91 189.555 214.027 196.067Z" fill="#056DB1"/>
<path d="M204.645 161.745C193.483 161.745 188.13 167.828 177.865 171.306C171.744 173.37 166.903 170.973 163.985 168.701C176.399 160.082 191.59 155.011 208.005 155.011C208.574 155.011 209.129 155.011 209.685 155.038C210.468 158.17 210.183 161.745 204.645 161.745Z" fill="url(#paint9_linear_294_193)"/>
<path opacity="0.45" d="M280.271 251.479C274.078 270.255 260.368 285.76 242.6 294.642C238.457 296.706 234.101 298.411 229.573 299.727C223.665 301.431 217.458 302.457 211.037 302.692C210.026 302.734 209.016 302.748 207.99 302.748C179.36 302.748 154.417 287.312 141.505 264.518C137.889 258.144 135.212 251.188 133.66 243.83C132.649 239.008 132.108 234.006 132.108 228.879C132.108 219.956 133.731 211.406 136.707 203.494C145.292 228.45 164.938 260.652 209.599 266.624C218.312 267.788 226.456 267.941 234.058 267.303C252.708 265.71 268.055 259.363 280.271 251.479Z" fill="url(#paint10_linear_294_193)"/>
<path opacity="0.45" d="M283.886 228.879C283.886 236.763 282.619 244.357 280.27 251.479C274.077 270.254 260.367 285.76 242.6 294.642C238.457 296.706 234.1 298.411 229.573 299.727C223.665 301.431 217.458 302.457 211.037 302.692C210.026 302.734 209.015 302.748 207.99 302.748C179.36 302.748 154.417 287.312 141.504 264.518C154.631 269.769 170.263 273.358 188.799 274.065C206.78 274.758 221.7 272.056 234.058 267.289C260.624 257.063 275.43 237.276 283.459 220.981C283.673 222.879 283.801 224.819 283.858 226.759C283.872 227.466 283.886 228.172 283.886 228.879Z" fill="url(#paint11_linear_294_193)"/>
<path d="M282.876 216.783C282.876 216.783 272.07 178.262 222.384 165.583C192.6 157.976 171.929 164.835 160.155 171.542C197.754 141.667 255.257 153.528 276.583 197.231C281.538 207.36 282.52 215.369 282.876 216.783Z" fill="url(#paint12_linear_294_193)"/>
</g>
<g opacity="0.15">
<path d="M416.966 406.924C416.966 404.07 416.813 401.245 416.508 398.451C414.258 376.568 403.601 358.272 388.425 345.358C374.419 333.228 356.219 325.497 336.004 324.605C317.958 323.684 299.29 328.361 282.729 339.917C282.688 339.937 282.648 339.967 282.617 339.997C282.607 340.007 282.597 340.017 282.536 340.056C282.515 340.066 282.505 340.076 282.505 340.076C268.448 349.937 258.616 362.91 252.977 377.132C225.016 377.668 206.429 382.673 204.638 391.8C202.724 401.523 220.293 413.773 249.19 424.932C249.231 425.111 249.272 425.289 249.312 425.457C249.323 425.497 249.333 425.537 249.343 425.566C249.506 426.28 249.689 426.994 249.872 427.707C249.893 427.796 249.913 427.876 249.943 427.965C250.127 428.668 250.33 429.372 250.534 430.066C250.554 430.125 250.564 430.185 250.585 430.244C251.022 431.701 251.491 433.138 252.01 434.555C252.02 434.595 252.04 434.625 252.05 434.665C252.274 435.279 252.498 435.893 252.743 436.498C258.178 450.571 267.675 463.416 281.162 473.247C281.508 473.505 281.864 473.763 282.22 474.01C282.454 474.179 282.688 474.337 282.922 474.506C283.564 474.952 284.205 475.388 284.856 475.804C301.376 486.597 319.739 490.799 337.399 489.62C340.676 489.422 343.903 489.045 347.069 488.5C355.283 487.083 363.08 484.506 370.296 480.958C371.05 480.591 371.793 480.205 372.536 479.808C372.658 479.739 372.79 479.679 372.912 479.61C373.645 479.213 374.378 478.817 375.101 478.401C375.162 478.371 375.223 478.331 375.274 478.302C375.986 477.895 376.689 477.469 377.391 477.043C377.452 477.003 377.513 476.974 377.564 476.934C378.287 476.488 379.009 476.022 379.722 475.556C379.753 475.537 379.783 475.517 379.814 475.497C379.875 475.457 379.926 475.418 379.987 475.378C380.445 475.071 380.893 474.773 381.34 474.456C381.452 474.377 381.564 474.308 381.666 474.228C382.114 473.911 382.552 473.594 383 473.277C383.091 473.208 383.183 473.138 383.274 473.079C384.323 472.306 385.341 471.523 386.348 470.7C386.501 470.581 386.643 470.452 386.796 470.333C387.132 470.056 387.468 469.778 387.794 469.501C387.987 469.342 388.18 469.174 388.374 469.005C388.659 468.758 388.944 468.51 389.229 468.252C389.422 468.084 389.616 467.905 389.809 467.727C389.829 467.707 389.85 467.687 389.87 467.667C389.972 467.578 390.074 467.479 390.186 467.39C394.563 463.455 398.522 459.055 401.983 454.248C435.461 454.803 458.342 449.749 460.358 439.58C462.22 430.006 445.151 417.965 416.966 406.924ZM250.605 383.961H250.595C250.687 383.674 250.778 383.386 250.87 383.099C250.778 383.386 250.697 383.674 250.605 383.961ZM248.193 394.556C248.183 394.615 248.172 394.675 248.162 394.734C248.05 395.438 247.948 396.151 247.867 396.865C247.857 396.984 247.836 397.093 247.826 397.212C247.735 397.925 247.653 398.639 247.592 399.352C247.592 399.382 247.582 399.412 247.582 399.442C247.521 400.125 247.46 400.819 247.419 401.503C247.409 401.632 247.399 401.761 247.389 401.899C247.348 402.593 247.307 403.277 247.287 403.971C247.277 404.11 247.277 404.258 247.277 404.397C247.266 404.704 247.256 405.011 247.246 405.319C234.156 399.878 226.767 394.734 227.54 390.799C228.304 386.954 236.772 384.853 250.473 384.447C249.496 387.747 248.732 391.117 248.193 394.556ZM416.62 414.655C431.623 420.561 440.265 426.191 439.43 430.423C438.585 434.724 428.091 436.845 411.439 436.855C414.136 429.957 415.928 422.534 416.62 414.655ZM214.705 391.84C216.435 383.079 235.398 380.571 251.867 380.066C251.633 380.72 251.419 381.374 251.206 382.038C230.339 382.752 217.809 386.419 216.669 392.207C215.478 398.252 226.685 406.617 247.409 415.18C247.48 415.21 247.541 415.229 247.613 415.259C247.613 415.259 247.613 415.259 247.623 415.259C247.653 415.527 247.674 415.794 247.704 416.062C247.755 416.528 247.816 417.004 247.867 417.469C247.45 417.301 247.043 417.132 246.635 416.964C231.072 410.552 212.903 400.978 214.705 391.84ZM454.271 436.627C452.469 445.765 431.949 448.104 415.052 448.45C413.393 448.48 411.683 448.5 409.963 448.5C408.579 448.5 407.174 448.49 405.759 448.47C406.136 447.836 406.512 447.182 406.879 446.538C409.678 446.577 412.396 446.567 415.022 446.508C437.537 446.032 451.126 442.296 452.317 436.26C453.507 430.215 442.301 421.85 421.567 413.287C420.04 412.653 418.462 412.028 416.854 411.404C416.854 411.305 416.864 411.196 416.864 411.097C416.895 410.512 416.915 409.917 416.935 409.333C418.788 410.046 420.589 410.77 422.35 411.493C437.903 417.915 456.072 427.489 454.271 436.627Z" fill="url(#paint13_radial_294_193)"/>
<path d="M358.46 402.372C358.46 455.464 297.469 486.049 253.171 457.089C214.075 431.549 213.016 375.771 251.309 348.913C251.309 348.913 251.319 348.903 251.339 348.893C251.39 348.864 251.39 348.854 251.4 348.844C251.431 348.814 251.461 348.794 251.492 348.784C295.545 318.041 358.46 348.328 358.46 402.372Z" fill="url(#paint14_radial_294_193)"/>
<path d="M262.169 402.372C262.566 406.247 248.642 402.372 239.888 402.372C234.046 402.372 227.837 403.413 223.185 401.906C223.226 395.653 224.172 389.607 225.882 383.889C228.254 383.591 232.275 384.255 238.3 388.814C249.039 396.941 261.773 398.497 262.169 402.372Z" fill="url(#paint15_linear_294_193)"/>
<path d="M308.717 410.499C298.772 409.726 287.626 407.01 285.642 408.953C283.657 410.885 301.683 415.831 318.264 418.636C336.566 421.738 348.108 422.897 344.128 417.863C340.149 412.828 333.787 406.624 323.832 409.726C313.898 412.828 314.274 410.935 308.717 410.499Z" fill="url(#paint16_linear_294_193)"/>
<path d="M307.923 437.625C307.923 441.817 268.531 430.647 255.401 435.692C245.588 439.458 242.443 442.134 236.499 441.639C229.496 432.461 224.875 421.45 223.562 409.478C226.992 410.747 232.896 413.204 242.27 417.872C259.391 426.386 307.923 431.807 307.923 437.625Z" fill="url(#paint17_linear_294_193)"/>
<path d="M338.988 448.596C333.848 453.68 327.853 457.952 321.247 461.192C319.476 459.646 317.735 457.902 315.089 456.99C308.32 454.661 290.426 450.409 293.998 448.08C297.581 445.751 309.114 447.307 322.641 446.534C330.835 446.059 336.108 447.436 338.988 448.596Z" fill="url(#paint18_linear_294_193)"/>
<path d="M333.39 438.011C328.626 433.086 315.089 434.136 317.073 438.784C318.163 441.312 339.752 444.592 333.39 438.011Z" fill="url(#paint19_linear_294_193)"/>
<path d="M275.697 444.979C269.783 443.7 265.752 446.138 264.958 448.081C264.164 450.013 281.275 452.729 281.672 450.796C282.069 448.864 279.28 445.752 275.697 444.979Z" fill="url(#paint20_linear_294_193)"/>
<path d="M273.315 411.668C269.376 410.707 262.18 412.441 262.18 414.77C262.18 417.099 271.727 419.805 275.707 418.646C279.677 417.476 281.265 413.601 273.315 411.668Z" fill="url(#paint21_linear_294_193)"/>
<path d="M280.074 419.022C278.893 418.834 277.285 420.182 278.089 421.351C278.883 422.511 284.848 419.805 280.074 419.022Z" fill="url(#paint22_linear_294_193)"/>
<path d="M320.259 429.874C317.705 429.131 315.883 430.261 317.073 432.59C318.275 434.909 328.219 432.193 320.259 429.874Z" fill="url(#paint23_linear_294_193)"/>
<path d="M338.958 441.886C337.553 440.519 336.566 443.046 337.37 443.819C338.164 444.592 342.144 444.978 338.958 441.886Z" fill="url(#paint24_linear_294_193)"/>
<path d="M302.742 467.198C298.874 467.872 294.884 468.219 290.823 468.219C276.888 468.219 263.931 464.116 253.172 457.079C261.142 454.84 274.394 456.673 287.647 462.798C293.815 465.662 298.874 466.822 302.742 467.198Z" fill="url(#paint25_linear_294_193)"/>
<path d="M305.541 460.092C303.515 460.092 303.556 461.252 303.556 462.421C303.556 463.581 305.541 463.968 306.742 462.421C307.923 460.865 307.129 460.092 305.541 460.092Z" fill="url(#paint26_linear_294_193)"/>
<path d="M300.37 461.252C299.587 461.123 299.179 463.184 300.37 463.581C301.561 463.967 302.752 461.638 300.37 461.252Z" fill="url(#paint27_linear_294_193)"/>
<path d="M255.014 439.944C252.255 440.479 248.245 442.273 251.828 444.592C255.411 446.921 262.963 438.398 255.014 439.944Z" fill="url(#paint28_linear_294_193)"/>
<path d="M241.884 407.793C240.448 406.396 239.492 410.122 240.296 410.509C241.079 410.895 243.471 409.339 241.884 407.793Z" fill="url(#paint29_linear_294_193)"/>
<path d="M253.416 385.712C249.894 383.997 245.059 382.61 244.265 384.166C243.471 385.712 258.587 396.178 262.17 393.849C265.753 391.52 256.602 387.258 253.416 385.712Z" fill="url(#paint30_linear_294_193)"/>
<path d="M311.903 402.372C309.388 401.143 309.511 406.634 313.094 408.18C316.676 409.726 313.501 403.145 311.903 402.372Z" fill="url(#paint31_linear_294_193)"/>
<path d="M350.897 408.953C346.093 408.735 347.711 416.316 350.897 417.089C354.083 417.863 359.254 409.339 350.897 408.953Z" fill="url(#paint32_linear_294_193)"/>
<path opacity="0.45" d="M328.83 456.842C326.407 458.447 323.883 459.894 321.247 461.192C315.496 464.017 309.277 466.069 302.732 467.198C298.864 467.872 294.874 468.219 290.812 468.219C276.878 468.219 263.92 464.116 253.161 457.079C246.739 452.887 241.11 447.654 236.509 441.619C235.511 440.31 234.555 438.963 233.659 437.575C228.254 429.28 224.702 419.716 223.572 409.458C223.317 407.129 223.185 404.751 223.185 402.362C223.185 402.203 223.185 402.045 223.185 401.896C223.226 396.743 223.867 391.728 225.058 386.921C233.506 408.645 249.65 433.541 280.44 446.941C284.267 448.606 288.319 450.092 292.604 451.371C305.439 455.196 317.562 456.802 328.83 456.842Z" fill="url(#paint33_linear_294_193)"/>
<path opacity="0.55" d="M354.603 424.314C351.264 433.512 345.89 441.777 338.988 448.596C335.894 451.658 332.494 454.423 328.83 456.842C326.408 458.447 323.883 459.894 321.247 461.192C315.496 464.017 309.277 466.069 302.732 467.198C298.864 467.872 294.874 468.219 290.813 468.219C276.878 468.219 263.92 464.116 253.162 457.079C246.739 452.887 241.11 447.654 236.509 441.619C235.512 440.31 234.555 438.963 233.659 437.575C250.963 443.472 266.526 446.306 280.441 446.931C314.448 448.457 338.663 436.772 354.603 424.314Z" fill="url(#paint34_linear_294_193)"/>
<path d="M251.492 348.784C251.441 348.824 251.4 348.844 251.38 348.864C251.4 348.844 251.451 348.804 251.492 348.784Z" fill="url(#paint35_linear_294_193)"/>
<path d="M357.961 410.36C358.267 407.456 360.71 374.8 320.066 352.977C279.565 331.232 253.894 347.189 251.492 348.784C262.577 341.054 276.155 336.505 290.823 336.505C331.497 336.515 362.888 371.222 357.961 410.36Z" fill="url(#paint36_linear_294_193)"/>
<path d="M362.124 407.258C360.903 406.752 359.651 406.247 358.368 405.751C358.328 406.623 358.257 407.476 358.185 408.338C370.145 413.046 377.036 417.535 376.375 420.905C375.703 424.344 367.295 426.029 353.961 426.029C337.909 426.029 314.712 423.591 289.235 418.834C261.885 413.72 237.995 407.069 223.205 400.905C212.782 396.564 206.879 392.471 207.5 389.339C208.1 386.267 214.859 384.602 225.77 384.275C225.811 384.136 225.842 384.007 225.882 383.878C226.035 383.363 226.198 382.857 226.361 382.352C209.739 382.917 199.744 385.85 198.838 390.459C197.891 395.276 206.818 401.946 223.338 408.764C223.389 408.784 223.45 408.804 223.501 408.834C240.58 415.86 263.829 422.322 288.99 427.03C311.322 431.202 332.779 433.551 350.297 433.759C352.577 433.789 354.786 433.779 356.913 433.739C374.848 433.363 385.688 430.38 386.635 425.573C387.581 420.746 378.655 414.076 362.124 407.258Z" fill="url(#paint37_linear_294_193)"/>
<path d="M358.46 402.184V402.372C358.46 402.957 358.45 403.531 358.44 404.116C359.916 404.681 361.361 405.256 362.756 405.841C375.153 410.955 389.638 418.586 388.202 425.86C386.767 433.135 370.41 434.998 356.954 435.286C355.63 435.315 354.277 435.325 352.892 435.325C351.752 435.325 350.592 435.315 349.411 435.296C331.965 435.008 310.742 432.669 288.685 428.546C263.819 423.898 240.804 417.535 223.704 410.598C223.368 410.459 223.043 410.33 222.717 410.192C210.319 405.078 195.835 397.446 197.27 390.172C198.644 383.185 213.77 381.193 226.9 380.786C227.175 380.003 227.47 379.22 227.786 378.447C205.495 378.873 190.685 382.867 189.249 390.132C187.723 397.882 201.728 407.644 224.753 416.534C241.395 422.957 262.76 428.923 286.375 433.343C308.422 437.466 329.166 439.617 346.398 439.914C373.138 440.37 391.429 436.346 393.027 428.229C394.523 420.578 380.925 410.974 358.46 402.184Z" fill="url(#paint38_linear_294_193)"/>
</g>
<defs>
<radialGradient id="paint0_radial_294_193" cx="0" cy="0" r="1" gradientUnits="userSpaceOnUse" gradientTransform="translate(73.5753 38.2003) scale(63.4711 61.9835)">
<stop stop-color="#FFD83D"/>
<stop offset="1" stop-color="#FC7B24"/>
</radialGradient>
<linearGradient id="paint1_linear_294_193" x1="62.4604" y1="124.89" x2="71.7512" y2="63.9311" gradientUnits="userSpaceOnUse">
<stop stop-color="#E04127"/>
<stop offset="1" stop-color="#E04127" stop-opacity="0.1"/>
</linearGradient>
<linearGradient id="paint2_linear_294_193" x1="89.735" y1="128.235" x2="74.7442" y2="65.7734" gradientUnits="userSpaceOnUse">
<stop stop-color="#C22C27"/>
<stop offset="1" stop-color="#D33127" stop-opacity="0.2"/>
</linearGradient>
<radialGradient id="paint3_radial_294_193" cx="0" cy="0" r="1" gradientUnits="userSpaceOnUse" gradientTransform="translate(211.758 199.972) scale(92.1039 89.6431)">
<stop stop-color="#00B3DC"/>
<stop offset="1" stop-color="#056DB0"/>
</radialGradient>
<linearGradient id="paint4_linear_294_193" x1="158.127" y1="114.997" x2="174.624" y2="327.523" gradientUnits="userSpaceOnUse">
<stop stop-color="#F2F236"/>
<stop offset="1" stop-color="#F2F236" stop-opacity="0"/>
</linearGradient>
<linearGradient id="paint5_linear_294_193" x1="243.288" y1="108.386" x2="259.785" y2="320.913" gradientUnits="userSpaceOnUse">
<stop stop-color="#F2F236"/>
<stop offset="1" stop-color="#F2F236" stop-opacity="0"/>
</linearGradient>
<linearGradient id="paint6_linear_294_193" x1="250.05" y1="107.861" x2="266.547" y2="320.388" gradientUnits="userSpaceOnUse">
<stop stop-color="#F2F236"/>
<stop offset="1" stop-color="#F2F236" stop-opacity="0"/>
</linearGradient>
<linearGradient id="paint7_linear_294_193" x1="196.872" y1="111.989" x2="213.369" y2="324.516" gradientUnits="userSpaceOnUse">
<stop stop-color="#F2F236"/>
<stop offset="1" stop-color="#F2F236" stop-opacity="0"/>
</linearGradient>
<linearGradient id="paint8_linear_294_193" x1="226.258" y1="109.707" x2="242.756" y2="322.235" gradientUnits="userSpaceOnUse">
<stop stop-color="#F2F236"/>
<stop offset="1" stop-color="#F2F236" stop-opacity="0"/>
</linearGradient>
<linearGradient id="paint9_linear_294_193" x1="182.909" y1="113.073" x2="199.407" y2="325.6" gradientUnits="userSpaceOnUse">
<stop stop-color="#F2F236"/>
<stop offset="1" stop-color="#F2F236" stop-opacity="0"/>
</linearGradient>
<linearGradient id="paint10_linear_294_193" x1="196.455" y1="324.506" x2="207.244" y2="223.428" gradientUnits="userSpaceOnUse">
<stop stop-color="#00ACD8"/>
<stop offset="1" stop-color="#0983BD"/>
</linearGradient>
<linearGradient id="paint11_linear_294_193" x1="204.108" y1="320.163" x2="216.168" y2="214.511" gradientUnits="userSpaceOnUse">
<stop stop-color="#056EB1"/>
<stop offset="1" stop-color="#00A9D7" stop-opacity="0.3"/>
</linearGradient>
<linearGradient id="paint12_linear_294_193" x1="263.108" y1="114.329" x2="217.366" y2="207.006" gradientUnits="userSpaceOnUse">
<stop stop-color="#E2FFB5"/>
<stop offset="1" stop-color="#FFFFB3" stop-opacity="0"/>
</linearGradient>
<radialGradient id="paint13_radial_294_193" cx="0" cy="0" r="1" gradientUnits="userSpaceOnUse" gradientTransform="translate(332.478 407.162) scale(78.8637 76.7879)">
<stop stop-color="#F9AB63"/>
<stop offset="1" stop-color="#FFCC9C" stop-opacity="0"/>
</radialGradient>
<radialGradient id="paint14_radial_294_193" cx="0" cy="0" r="1" gradientUnits="userSpaceOnUse" gradientTransform="translate(295.604 373.89) scale(80.6544 78.5315)">
<stop stop-color="#FBDFB6"/>
<stop offset="1" stop-color="#ED8D35"/>
</radialGradient>
<linearGradient id="paint15_linear_294_193" x1="230.363" y1="484.079" x2="254.15" y2="313.068" gradientUnits="userSpaceOnUse">
<stop stop-color="#BD602B"/>
<stop offset="1" stop-color="#E28E2B" stop-opacity="0"/>
</linearGradient>
<linearGradient id="paint16_linear_294_193" x1="303.496" y1="494.251" x2="327.283" y2="323.241" gradientUnits="userSpaceOnUse">
<stop stop-color="#BD7A2B"/>
<stop offset="1" stop-color="#E2832B" stop-opacity="0"/>
</linearGradient>
<linearGradient id="paint17_linear_294_193" x1="256.34" y1="487.692" x2="280.127" y2="316.681" gradientUnits="userSpaceOnUse">
<stop stop-color="#BD712B"/>
<stop offset="1" stop-color="#E2992B" stop-opacity="0"/>
</linearGradient>
<linearGradient id="paint18_linear_294_193" x1="309.45" y1="495.079" x2="333.237" y2="324.068" gradientUnits="userSpaceOnUse">
<stop stop-color="#BD602B"/>
<stop offset="1" stop-color="#E22B57" stop-opacity="0"/>
</linearGradient>
<linearGradient id="paint19_linear_294_193" x1="317.325" y1="496.175" x2="341.113" y2="325.164" gradientUnits="userSpaceOnUse">
<stop stop-color="#BD712B"/>
<stop offset="1" stop-color="#E22B57" stop-opacity="0"/>
</linearGradient>
<linearGradient id="paint20_linear_294_193" x1="267.467" y1="489.24" x2="291.255" y2="318.229" gradientUnits="userSpaceOnUse">
<stop stop-color="#BD832B"/>
<stop offset="1" stop-color="#E22B57" stop-opacity="0"/>
</linearGradient>
<linearGradient id="paint21_linear_294_193" x1="259.87" y1="488.183" x2="283.658" y2="317.172" gradientUnits="userSpaceOnUse">
<stop stop-color="#BD832B"/>
<stop offset="1" stop-color="#E22B57" stop-opacity="0"/>
</linearGradient>
<linearGradient id="paint22_linear_294_193" x1="269.734" y1="489.555" x2="293.521" y2="318.544" gradientUnits="userSpaceOnUse">
<stop stop-color="#BD712B"/>
<stop offset="1" stop-color="#E22B57" stop-opacity="0"/>
</linearGradient>
<linearGradient id="paint23_linear_294_193" x1="310.656" y1="495.247" x2="334.443" y2="324.236" gradientUnits="userSpaceOnUse">
<stop stop-color="#BD602B"/>
<stop offset="1" stop-color="#E2782B" stop-opacity="0"/>
</linearGradient>
<linearGradient id="paint24_linear_294_193" x1="330.605" y1="498.021" x2="354.391" y2="327.013" gradientUnits="userSpaceOnUse">
<stop stop-color="#BD7A2B"/>
<stop offset="1" stop-color="#E22B57" stop-opacity="0"/>
</linearGradient>
<linearGradient id="paint25_linear_294_193" x1="273.845" y1="490.127" x2="297.632" y2="319.116" gradientUnits="userSpaceOnUse">
<stop stop-color="#BD832B"/>
<stop offset="1" stop-color="#E2992B" stop-opacity="0"/>
</linearGradient>
<linearGradient id="paint26_linear_294_193" x1="300.675" y1="493.858" x2="324.461" y2="322.85" gradientUnits="userSpaceOnUse">
<stop stop-color="#BD832B"/>
<stop offset="1" stop-color="#E2782B" stop-opacity="0"/>
</linearGradient>
<linearGradient id="paint27_linear_294_193" x1="296.155" y1="493.23" x2="319.942" y2="322.219" gradientUnits="userSpaceOnUse">
<stop stop-color="#BD7A2B"/>
<stop offset="1" stop-color="#E2992B" stop-opacity="0"/>
</linearGradient>
<linearGradient id="paint28_linear_294_193" x1="247.908" y1="486.519" x2="271.695" y2="315.51" gradientUnits="userSpaceOnUse">
<stop stop-color="#BD712B"/>
<stop offset="1" stop-color="#E2992B" stop-opacity="0"/>
</linearGradient>
<linearGradient id="paint29_linear_294_193" x1="230.23" y1="484.061" x2="254.018" y2="313.049" gradientUnits="userSpaceOnUse">
<stop stop-color="#BD602B"/>
<stop offset="1" stop-color="#E2992B" stop-opacity="0"/>
</linearGradient>
<linearGradient id="paint30_linear_294_193" x1="239.403" y1="485.336" x2="263.19" y2="314.325" gradientUnits="userSpaceOnUse">
<stop stop-color="#BD712B"/>
<stop offset="1" stop-color="#E2A42B" stop-opacity="0"/>
</linearGradient>
<linearGradient id="paint31_linear_294_193" x1="299.536" y1="493.701" x2="323.323" y2="322.689" gradientUnits="userSpaceOnUse">
<stop stop-color="#BD712B"/>
<stop offset="1" stop-color="#E2832B" stop-opacity="0"/>
</linearGradient>
<linearGradient id="paint32_linear_294_193" x1="338.871" y1="499.172" x2="362.659" y2="328.161" gradientUnits="userSpaceOnUse">
<stop stop-color="#BD712B"/>
<stop offset="1" stop-color="#E2A42B" stop-opacity="0"/>
</linearGradient>
<linearGradient id="paint33_linear_294_193" x1="269.261" y1="464.913" x2="279.083" y2="406.328" gradientUnits="userSpaceOnUse">
<stop stop-color="#BD712B"/>
<stop offset="1" stop-color="#E2992B" stop-opacity="0"/>
</linearGradient>
<linearGradient id="paint34_linear_294_193" x1="304.537" y1="471.228" x2="292.986" y2="424.066" gradientUnits="userSpaceOnUse">
<stop stop-color="#A66D2B"/>
<stop offset="1" stop-color="#AE522B" stop-opacity="0"/>
</linearGradient>
<linearGradient id="paint35_linear_294_193" x1="251.49" y1="348.747" x2="251.379" y2="348.905" gradientUnits="userSpaceOnUse">
<stop stop-color="#FADBD1"/>
<stop offset="1" stop-color="#F9F1DD" stop-opacity="0"/>
</linearGradient>
<linearGradient id="paint36_linear_294_193" x1="344.176" y1="325.695" x2="315.69" y2="366.727" gradientUnits="userSpaceOnUse">
<stop stop-color="#FAEAD1"/>
<stop offset="1" stop-color="#F9E4DD" stop-opacity="0"/>
</linearGradient>
<linearGradient id="paint37_linear_294_193" x1="282.666" y1="442.683" x2="298.19" y2="386.294" gradientUnits="userSpaceOnUse">
<stop stop-color="#FAC2B0"/>
<stop offset="1" stop-color="#F2AA68"/>
</linearGradient>
<linearGradient id="paint38_linear_294_193" x1="281.497" y1="442.362" x2="297.022" y2="385.973" gradientUnits="userSpaceOnUse">
<stop stop-color="#FAC2B0"/>
<stop offset="1" stop-color="#F29168"/>
</linearGradient>
</defs>
</svg>
