<svg width="355" height="419" viewBox="0 0 355 419" fill="none" xmlns="http://www.w3.org/2000/svg">
<g opacity="0.2">
<path d="M255.771 111.553C221.175 86.2756 222.254 33.933 258.244 10.1859C282.668 -5.99051 315.769 -2.77323 336.63 18.9378C346.229 28.9158 352.456 42.0886 353.647 56.6226C358.065 109.404 298.168 142.657 255.771 111.553Z" fill="url(#paint0_radial_250_1337)"/>
<path d="M351.096 43.3935C341.306 43.3597 322.682 41.6498 301 31.4018C277.037 20.0738 257.199 18.184 248.713 17.959C251.624 15.0679 254.816 12.4581 258.255 10.197C263.898 11.007 274.542 13.358 293.964 19.7701C316.983 27.3746 330.224 22.9424 336.653 18.9489C343.206 25.7659 348.219 34.1016 351.096 43.3935Z" fill="url(#paint1_linear_250_1337)"/>
<path d="M331.28 13.9881C325.907 16.1255 315.342 17.9703 297.122 12.7057C281.173 8.09352 271.72 6.3049 266.426 5.6412C269.596 4.1788 272.901 2.98638 276.329 2.0752C280.982 3.32386 287.164 5.22496 295.358 8.12726C311.622 13.8869 322.03 13.1107 327.919 11.4233C329.077 12.2332 330.201 13.0882 331.28 13.9881Z" fill="url(#paint2_linear_250_1337)"/>
<path d="M321.974 7.66588C315.814 8.27334 303.99 8.16085 296.066 0.128906C305.417 0.702616 314.207 3.36868 321.974 7.66588Z" fill="url(#paint3_linear_250_1337)"/>
<path d="M353.872 61.7297C353.872 62.5509 353.85 63.3721 353.827 64.1933C345.588 65.1383 328.661 64.2271 301.36 50.0868C266.831 32.2118 249.398 31.1994 237.81 32.583C238.473 31.3456 239.17 30.1307 239.923 28.9495C247.633 27.9933 264.875 28.2633 293.615 40.9075C329.133 56.5326 340.452 59.9186 353.67 56.6001C353.793 58.2987 353.872 60.0086 353.872 61.7297Z" fill="url(#paint4_linear_250_1337)"/>
<path d="M281.611 50.4467C259.997 40.4686 240.125 43.7759 232.617 45.6545C231.426 50.0642 230.718 54.6651 230.549 59.4123C272.091 51.8866 302.518 75.1837 292.188 76.9048C281.611 78.671 277.037 80.0771 260.469 85.3755C248.375 89.2452 238.709 85.578 234.393 83.3169C236.057 87.7941 238.226 92.0238 240.845 95.9385C262.29 103.959 279.431 95.4773 301.719 88.5478C319.04 83.1594 335.9 88.8178 345.262 93.2275C348.41 87.9291 350.781 82.1132 352.242 75.9487C322.21 81.472 307.036 62.1796 281.611 50.4467Z" fill="url(#paint5_linear_250_1337)"/>
<path d="M268.573 75.4874C262.234 75.8361 258.704 77.6022 248.836 79.0196C243.969 79.7171 237.652 78.6147 232.493 77.3098C231.504 73.5188 230.875 69.5703 230.627 65.5318C259.941 60.7847 274.541 75.1499 268.573 75.4874Z" fill="url(#paint6_linear_250_1337)"/>
<path d="M336.619 104.544C335.18 106.04 333.674 107.458 332.09 108.796C324.57 106.445 316.05 104.972 306.98 105.467C286.063 106.614 273.541 113.825 255.76 111.553C254.704 110.776 253.669 109.978 252.669 109.134C259.93 110.113 272.968 109.64 295.695 103.352C311.656 98.9421 325.492 100.641 336.619 104.544Z" fill="url(#paint7_linear_250_1337)"/>
<path d="M322.446 115.535C313.51 120.575 303.181 123.454 292.188 123.454C288.243 123.454 284.388 123.083 280.656 122.374C293.896 107.694 313.195 112.16 322.446 115.535Z" fill="url(#paint8_linear_250_1337)"/>
<path opacity="0.55" d="M347.803 88.4468C347.016 90.0779 346.162 91.6641 345.251 93.2164C342.812 97.3224 339.912 101.125 336.619 104.544C335.18 106.041 333.674 107.458 332.089 108.797C329.1 111.339 325.874 113.6 322.434 115.535C313.499 120.575 303.169 123.454 292.177 123.454C288.232 123.454 284.376 123.083 280.645 122.374C271.473 120.642 263.021 116.874 255.771 111.553C254.715 110.776 253.68 109.978 252.68 109.134C248.128 105.332 244.127 100.888 240.833 95.9275C238.226 92.0128 236.056 87.7831 234.382 83.3059C233.651 81.3485 233.022 79.3461 232.482 77.2988C231.493 73.5078 230.864 69.5593 230.616 65.5209C230.571 64.8234 230.538 64.126 230.527 63.4285C230.504 62.866 230.504 62.2923 230.504 61.7299C230.504 60.9537 230.515 60.1775 230.549 59.4013C230.729 54.6654 231.437 50.0532 232.617 45.6435C233.853 41.0538 235.596 36.6891 237.799 32.5832C238.462 31.3457 239.159 30.1308 239.912 28.9497C240.631 27.8135 241.373 26.6998 242.16 25.6086C250.859 29.6134 259.784 38.1628 266.28 55.1941C275.609 79.6499 292.345 94.3301 311.307 97.1762C323.03 98.9535 335.607 96.1975 347.803 88.4468Z" fill="url(#paint9_linear_250_1337)"/>
<path opacity="0.5" d="M353.681 66.5895C353.434 69.773 352.939 72.9003 352.22 75.9376C351.186 80.3023 349.702 84.4983 347.803 88.4467C347.016 90.0779 346.162 91.664 345.251 93.2164C342.812 97.3224 339.912 101.125 336.619 104.544C335.18 106.041 333.674 107.458 332.089 108.797C329.1 111.339 325.874 113.6 322.434 115.535C313.499 120.574 303.169 123.454 292.177 123.454C288.232 123.454 284.376 123.083 280.645 122.374C271.473 120.642 263.021 116.873 255.771 111.553C254.715 110.776 253.68 109.978 252.68 109.134C248.128 105.332 244.127 100.888 240.833 95.9275C238.226 92.0127 236.056 87.783 234.382 83.3058C233.651 81.3485 233.022 79.3461 232.482 77.2988C231.493 73.5078 230.864 69.5593 230.616 65.5208C230.571 64.8234 230.538 64.1259 230.526 63.4285C236.495 76.77 247.285 89.6504 266.449 97.0074C282.825 103.284 298.033 102.025 311.296 97.1874C330.077 90.3704 344.948 76.4213 353.681 66.5895Z" fill="url(#paint10_linear_250_1337)" stroke="url(#paint11_radial_250_1337)" stroke-miterlimit="10"/>
<path d="M353.692 66.4545C353.669 65.1495 352.883 34.6979 316.331 16.1367C272.855 -5.9455 244.981 22.1325 244.351 22.7737C267.663 -5.92301 310.947 -7.79037 336.63 18.949C348.859 31.6494 355.018 48.8269 353.692 66.4545Z" fill="url(#paint12_linear_250_1337)"/>
</g>
<g opacity="0.2">
<path d="M264.584 220.295C261.374 255.129 232.334 284.924 193.82 284.924C145.731 284.924 111.712 238.039 126.074 192.563C131.019 176.803 141.484 162.982 155.734 153.896C158.685 152.025 161.806 150.345 165.061 148.891C201.998 132.488 245.457 150.356 260.079 188.313C264.179 198.989 265.542 209.867 264.584 220.295Z" fill="url(#paint13_radial_250_1337)"/>
<path d="M227.287 276.537C217.318 281.881 205.918 284.913 193.809 284.913C166.221 284.913 142.306 269.165 130.557 246.156C135.536 248.704 144.717 252.751 155.385 254.408C170.862 256.809 189.596 253.664 198.405 258.173C213.094 265.692 215.482 274.328 227.287 276.537Z" fill="url(#paint14_linear_250_1337)"/>
<path d="M167.506 243.958C153.842 244.893 134.861 238.423 126.029 235.052C123.945 228.356 122.819 221.242 122.819 213.87C122.819 211.22 122.965 208.605 123.247 206.035C127.099 210.6 135.931 220.126 147.038 225.988C162.076 233.936 185.878 242.706 167.506 243.958Z" fill="url(#paint15_linear_250_1337)"/>
<path d="M254.717 250.406C252.047 254.859 248.893 258.996 245.345 262.75C236.231 260.259 226.071 255.749 217.836 248.771C203.181 236.36 201.131 230.802 167.303 219.935C143.703 212.348 131.279 199.891 125.928 193.048C127.595 187.592 129.904 182.406 132.777 177.593C139.479 184.841 154.337 199.045 173.161 205.719C199.058 214.918 203.226 214.073 226.611 235.39C236.569 244.488 246.55 248.636 254.717 250.406Z" fill="url(#paint16_linear_250_1337)"/>
<path d="M264.81 213.87C264.81 221.84 263.503 229.494 261.081 236.642C254.221 236.495 243.598 233.665 231.601 221.186C210.717 199.451 179.818 195.269 179.401 188.167C178.984 181.065 211.145 186.916 230.768 197.783C244.882 205.607 255.336 211.254 264.753 211.006C264.787 211.953 264.81 212.912 264.81 213.87Z" fill="url(#paint17_linear_250_1337)"/>
<path d="M164.791 174.38C156.286 170.411 146.418 169.78 146.002 173.128C145.585 176.476 151.848 187.332 163.124 185.247C174.389 183.15 171.054 177.299 164.791 174.38Z" fill="url(#paint18_linear_250_1337)"/>
<path d="M260.079 188.313C249.535 181.899 231.545 177.502 203.631 171.031C180.145 165.586 169.68 155.892 165.061 148.891C171.043 146.242 177.452 144.382 184.166 143.469C189.303 148.35 199.903 155.035 221.587 160.581C233.9 163.726 243.463 167.616 250.785 171.471C254.604 176.6 257.736 182.26 260.079 188.313Z" fill="url(#paint19_linear_250_1337)"/>
<path d="M226.172 259.639C222.511 257.621 209.883 250.44 217.825 265.072C220.945 270.822 234.53 264.238 226.172 259.639Z" fill="url(#paint20_linear_250_1337)"/>
<path d="M209.05 252.108C207.338 252.232 208.216 255.874 209.883 256.291C211.562 256.708 214.907 251.691 209.05 252.108Z" fill="url(#paint21_linear_250_1337)"/>
<path opacity="0.45" d="M261.07 236.675C259.437 241.511 257.296 246.099 254.717 250.406C252.047 254.859 248.893 258.996 245.344 262.75C240.129 268.263 234.035 272.93 227.298 276.537C217.329 281.881 205.929 284.913 193.82 284.913C166.233 284.913 142.318 269.164 130.569 246.156C128.755 242.616 127.234 238.907 126.04 235.052C123.956 228.355 122.83 221.242 122.83 213.869C122.83 211.22 122.976 208.605 123.258 206.035C123.742 201.57 124.644 197.219 125.928 193.037C125.973 192.879 126.029 192.71 126.074 192.552C136.393 181.47 155.869 187.828 165.636 202.371C180.291 224.218 215.324 289.31 261.07 236.675Z" fill="url(#paint22_linear_250_1337)"/>
<path opacity="0.55" d="M261.385 235.717C260.101 239.899 257.724 245.4 254.717 250.406C222.714 303.75 142.949 292.759 125.691 233.902C134.556 246.009 146.463 255.174 162.29 259.639C218.703 275.511 247.609 254.115 261.385 235.717Z" fill="url(#paint23_linear_250_1337)"/>
<path d="M260.079 188.313C264.19 198.977 265.542 209.867 264.584 220.295C262.422 201.908 253.32 172.012 218.242 158.078C192.536 147.865 171.009 149.533 155.723 153.896C158.674 152.025 161.794 150.345 165.05 148.891C201.998 132.488 245.457 150.367 260.079 188.313Z" fill="url(#paint24_linear_250_1337)"/>
</g>
<g opacity="0.2">
<path d="M128.754 354.048C128.754 357.79 128.431 361.461 127.812 365.02C127.475 366.933 127.067 368.818 126.575 370.675C123.848 380.86 118.676 390.032 111.732 397.544C109.215 400.273 106.46 402.777 103.494 405.027C100.767 407.109 97.8576 408.98 94.8073 410.612C90.6747 412.821 86.275 414.579 81.6644 415.845C76.2807 417.322 70.6159 418.096 64.7683 418.096C62.0835 418.096 59.4408 417.927 56.8544 417.603C35.1791 414.931 16.8492 401.398 7.48745 382.618C3.83272 375.303 1.5415 367.201 0.937066 358.634C0.824613 357.115 0.768372 355.581 0.768372 354.048C0.768372 344.384 2.90499 335.226 6.7284 327.011C10.1442 319.668 14.9234 313.084 20.7148 307.584C26.0703 302.492 32.3115 298.314 39.1852 295.317C47.0148 291.899 55.6736 290 64.7542 290C92.3474 290 115.864 307.471 124.846 331.976C127.081 338.082 128.417 344.609 128.698 351.431C128.74 352.289 128.754 353.162 128.754 354.048Z" fill="url(#paint25_radial_250_1337)"/>
<path d="M7.4735 382.619C7.03774 381.746 6.61604 380.846 6.22246 379.946C3.31273 373.376 1.48538 366.244 0.937166 358.747C0.937166 358.704 0.937152 358.676 0.923096 358.634C2.21631 358.465 3.98745 359.056 5.28067 362.699C6.95341 367.44 14.7408 378.989 7.4735 382.619Z" fill="#F79C41"/>
<path d="M57.7402 371.73C57.6559 372.251 57.4731 372.743 57.2061 373.193C55.1679 376.851 48.0692 378.651 40.1553 377.287C33.2676 376.091 27.7714 372.828 26.0003 369.283C25.4802 368.242 25.2834 367.187 25.4661 366.132C26.2674 361.518 34.0126 360.406 42.9245 361.968C51.8364 363.501 58.5414 367.116 57.7402 371.73Z" fill="#F79C41"/>
<path d="M38.7776 341.233L38.7636 341.247C36.9924 343.919 31.4682 341.472 25.0443 337.266C19.8012 333.833 16.0621 330.415 15.8091 327.813C15.7528 327.222 15.8794 326.659 16.2027 326.153C17.9738 323.452 25.0021 323.269 31.4401 327.489C37.878 331.709 40.5488 338.532 38.7776 341.233Z" fill="#F79C41"/>
<path d="M109.679 380.677C104.493 385.01 98.2795 386.121 95.8196 383.153C95.693 382.998 95.5806 382.844 95.4822 382.675C93.5986 379.594 95.8477 374.066 100.768 369.972C105.772 365.794 111.718 364.613 114.346 367.187C114.445 367.285 114.543 367.384 114.627 367.482C117.087 370.45 114.88 376.359 109.679 380.677Z" fill="#F79C41"/>
<path d="M72.2606 345.158C67.0175 349.307 61.69 351.6 58.6397 347.746C58.3445 347.38 58.1055 346.986 57.8947 346.564C55.9548 342.654 57.8665 336.985 62.6177 333.229C67.8608 329.079 75.0157 327.123 79.8933 333.299C79.9214 333.341 79.9636 333.383 79.9777 333.426C82.8452 337.238 77.4615 341.05 72.2606 345.158Z" fill="#F79C41"/>
<path d="M51.316 403.114C50.557 403.846 49.0529 404.254 46.6914 404.141C38.0325 403.761 28.6286 393.211 31.2572 389.821C31.2994 389.765 31.3415 389.722 31.3837 389.68C34.1107 386.599 40.9422 392.142 44.4283 393.971C50.1774 396.981 53.3261 401.187 51.316 403.114Z" fill="#F79C41"/>
<path d="M85.277 395.335C85.2911 397.333 82.5782 399.443 78.305 399.626C70.4895 399.963 66.0335 398.458 64.9792 395.673C64.8668 395.377 64.7965 395.068 64.7543 394.73C64.3748 391.34 71.5296 391.917 75.2968 391.72C82.3673 391.34 85.263 393.281 85.277 395.335Z" fill="#F79C41"/>
<path d="M108.962 350.391C108.105 351.671 106.446 352.543 104.296 352.543C97.5202 352.543 88.4818 347.647 89.6204 343.118C89.7469 342.597 89.9437 342.147 90.1686 341.781C91.9116 338.968 96.3113 340.333 100.542 341.233C109.005 343.033 110.818 347.647 108.962 350.391Z" fill="#F79C41"/>
<path d="M86.9637 317.122C86.8794 316.925 86.8372 316.7 86.8091 316.46C86.6404 314.533 88.538 311.72 92.2349 310.707C94.6386 310.046 97.8857 310.13 99.8958 311.368C100.781 311.917 101.414 312.676 101.653 313.717C102.215 316.306 88.1585 320.118 86.9637 317.122Z" fill="#F79C41"/>
<path d="M48.3363 311.129C47.8583 311.41 47.2961 311.326 46.6916 310.721C42.5449 306.571 42.1795 299.791 44.4285 298.666C45.3141 298.215 46.0872 298.075 46.7479 298.145C51.246 298.652 50.754 309.666 48.3363 311.129Z" fill="#F79C41"/>
<path d="M119.336 334.832C119.041 334.973 118.69 335.001 118.31 334.903C116.736 334.495 114.683 332.075 114.065 328.432C113.714 326.294 114.782 324.24 116.173 323.593C117.72 322.861 119.674 323.874 120.461 328.432C120.925 331.02 120.854 334.073 119.336 334.832Z" fill="#F79C41"/>
<path d="M111.732 397.544C106.882 402.791 101.161 407.222 94.8075 410.598C94.0906 410.246 93.444 409.726 93.191 408.98C92.9661 408.319 93.0645 407.475 93.7533 406.406C96.3819 402.256 99.0245 395.856 105.041 395.476C106.798 395.363 108.189 395.574 109.3 395.968C110.368 396.362 111.155 396.925 111.732 397.544Z" fill="#F79C41"/>
<path d="M81.6505 415.831C76.2668 417.308 70.6019 418.082 64.7543 418.082C62.0695 418.082 59.4269 417.913 56.8405 417.589C56.8405 416.83 56.981 416.014 57.4449 415.325C57.8947 414.663 58.6397 414.129 59.8626 413.932C64.3748 413.172 66.6379 410.162 73.0337 410.542C76.3511 410.739 78.6705 412.356 80.1183 413.862C80.8352 414.621 81.3272 415.325 81.6505 415.831Z" fill="#F79C41"/>
<path d="M73.4694 299.13C73.146 300.733 70.4331 301.31 69.1259 300.705C68.8447 300.579 68.6339 300.396 68.5214 300.171C67.7624 298.665 72.7243 295.852 73.4131 298.286C73.4975 298.595 73.5115 298.876 73.4694 299.13Z" fill="#F79C41"/>
<path d="M53.846 383.8C52.1592 382.956 50.8379 382.295 51.2174 385.685C51.597 389.075 54.2255 389.835 56.4887 389.835C58.7377 389.835 55.3501 384.559 53.846 383.8Z" fill="#EF903A"/>
<path d="M22.5983 381.549C21.0942 381.169 21.0942 383.814 19.9697 386.445C18.8452 389.075 20.3492 390.96 22.5983 390.96C24.8614 390.96 25.6064 382.295 22.5983 381.549Z" fill="#EF903A"/>
<path d="M15.8229 347.633C14.3751 346.972 12.8148 346.128 12.4353 347.633C12.0557 349.138 15.4434 353.288 17.327 353.288C19.2106 353.288 19.9556 349.518 15.8229 347.633Z" fill="#EF903A"/>
<path d="M128.754 354.048C128.754 357.79 128.431 361.461 127.812 365.02C127.264 364.809 126.702 364.429 126.111 363.839C122.344 360.069 125.198 354.723 126.111 352.908C127.123 350.883 128.136 351.066 128.698 351.417C128.74 352.289 128.754 353.162 128.754 354.048Z" fill="#EF903A"/>
<path d="M89.9857 358.183C87.8069 357.916 86.598 359.689 89.9857 361.194C93.3733 362.713 92.9938 358.563 89.9857 358.183Z" fill="#EF903A"/>
<path d="M9.04763 341.233C8.03556 341.739 7.92311 343.863 10.5517 343.497C13.1803 343.118 11.2967 340.107 9.04763 341.233Z" fill="#EF903A"/>
<path d="M62.5052 314.871C61.3806 315.251 59.8766 316.376 62.5052 316.756C65.1338 317.122 63.6297 314.491 62.5052 314.871Z" fill="#EF903A"/>
<path d="M68.9008 314.871C67.5233 314.069 67.3968 317.881 68.5213 319.386C69.6458 320.892 73.413 317.501 68.9008 314.871Z" fill="#EF903A"/>
<path d="M80.9472 404.155C80.1319 404.338 79.8227 405.66 82.0717 406.42C84.3348 407.165 84.3349 403.395 80.9472 404.155Z" fill="#EF903A"/>
<path d="M48.1954 410.556C47.0709 410.935 45.9323 411.681 48.1954 412.441C50.4586 413.186 49.32 410.176 48.1954 410.556Z" fill="#EF903A"/>
<path d="M50.079 355.173C48.1673 355.272 52.3421 357.804 53.4667 358.184C54.5912 358.563 57.9788 354.793 50.079 355.173Z" fill="#EF903A"/>
<path d="M111.816 345.382C110.874 346.114 112.575 350.278 114.079 349.898C115.583 349.518 115.203 342.738 111.816 345.382Z" fill="#EF903A"/>
<path d="M81.538 371.787C81.3693 372.434 81.1585 373.067 80.9476 373.629C79.8512 376.57 73.3711 377.723 71.6562 376.373C71.614 376.344 71.5718 376.302 71.5297 376.26C70.0256 374.755 71.4875 370.971 72.2887 369.1C73.4133 366.469 79.0641 364.584 80.9476 365.33C82.4658 365.963 82.2689 369.044 81.538 371.787Z" fill="#F79C41"/>
<path d="M15.8091 327.827C15.7528 327.236 15.8794 326.673 16.2027 326.167C17.9738 323.466 25.0021 323.283 31.4401 327.503C37.878 331.723 40.5488 338.546 38.7776 341.247L38.7636 341.261C38.862 339.615 38.1732 337.308 35.7695 334.087C29.5003 325.717 18.0722 322.833 15.8091 327.827Z" fill="#E27C37"/>
<path d="M57.7402 371.73C57.6559 372.251 57.4731 372.743 57.2061 373.193C57.0514 372.546 55.6598 367.468 49.3203 365.344C42.7418 363.149 33.8861 361.194 28.6148 365.344C26.928 366.666 26.2111 368.031 26.0003 369.269C25.4802 368.228 25.2834 367.173 25.4661 366.117C26.2674 361.503 34.0126 360.392 42.9245 361.954C51.8364 363.501 58.5414 367.116 57.7402 371.73Z" fill="#E27C37"/>
<path d="M68.1419 332.188C61.1417 334.607 58.1899 341.472 57.8947 346.564C55.9548 342.654 57.8665 336.985 62.6177 333.229C67.8608 329.079 75.0157 327.123 79.8933 333.299C79.9214 333.341 79.9636 333.383 79.9777 333.426C77.8692 331.794 74.0317 330.162 68.1419 332.188Z" fill="#E27C37"/>
<path d="M81.538 371.787C81.4677 369.058 80.793 365.977 77.9395 366.849C75.0158 367.749 71.6984 373.053 71.6703 376.373C71.6281 376.344 71.5859 376.302 71.5438 376.26C70.0397 374.755 71.5016 370.971 72.3028 369.1C73.4274 366.469 79.0782 364.584 80.9617 365.33C82.4658 365.963 82.269 369.044 81.538 371.787Z" fill="#E27C37"/>
<path d="M108.962 350.391C109.82 345.425 101.864 343.821 97.8858 342.372C93.95 340.937 91.2511 341.444 90.1547 341.781C91.8977 338.968 96.2974 340.333 100.528 341.233C109.005 343.033 110.818 347.647 108.962 350.391Z" fill="#E27C37"/>
<path d="M86.964 317.122C86.8796 316.925 86.8374 316.7 86.8093 316.461C89.1849 318.036 95.2714 316.756 98.631 315.237C101.035 314.139 100.641 312.536 99.8961 311.382C100.782 311.931 101.414 312.691 101.653 313.732C102.215 316.306 88.1588 320.118 86.964 317.122Z" fill="#E27C37"/>
<path d="M48.3363 311.129C47.8583 311.41 47.2961 311.326 46.6916 310.721C42.5449 306.571 42.1795 299.791 44.4285 298.666C45.3141 298.215 46.0872 298.075 46.7479 298.145C45.8342 298.314 44.4285 299.116 44.4285 302.436C44.4285 306.262 46.2699 309.399 48.3363 311.129Z" fill="#E27C37"/>
<path d="M73.4694 299.13C73.3428 298.483 72.8368 297.864 71.1641 298.286C69.8006 298.623 69.2805 299.664 69.1259 300.705C68.8447 300.579 68.6339 300.396 68.5214 300.171C67.7624 298.665 72.7243 295.852 73.4131 298.286C73.4975 298.595 73.5115 298.876 73.4694 299.13Z" fill="#E27C37"/>
<path d="M51.3161 403.114C50.9928 401.089 49.1373 399.119 45.9324 397.361C41.7857 395.096 38.7775 392.845 36.1489 390.96C34.7714 389.976 32.8737 389.708 31.3837 389.68C34.1107 386.599 40.9422 392.142 44.4283 393.971C50.1775 396.981 53.3262 401.187 51.3161 403.114Z" fill="#E27C37"/>
<path d="M85.277 395.335C84.6726 393.83 82.8453 393.211 79.809 393.211H69.2665C65.2323 393.211 64.9792 395.546 64.9792 395.659C64.8668 395.363 64.7965 395.054 64.7543 394.716C64.3748 391.326 71.5296 391.903 75.2968 391.706C82.3673 391.34 85.263 393.281 85.277 395.335Z" fill="#E27C37"/>
<path d="M80.1183 413.876C80.8352 414.607 81.3272 415.325 81.6505 415.831C76.2668 417.308 70.6019 418.082 64.7543 418.082C62.0695 418.082 59.4269 417.913 56.8405 417.589C56.8405 416.83 56.981 416.014 57.4449 415.325C69.9553 418.279 77.1664 415.536 80.1183 413.876Z" fill="#E27C37"/>
<path d="M111.732 397.544C106.882 402.791 101.161 407.222 94.8073 410.598C94.0904 410.246 93.4438 409.726 93.1908 408.98C103.691 405.041 108.231 397.909 109.3 395.982C110.368 396.362 111.155 396.925 111.732 397.544Z" fill="#E27C37"/>
<path d="M114.346 367.187C113.503 366.891 107.501 365.217 100.514 373.25C96.9862 377.315 95.7633 380.466 95.4822 382.675C93.5986 379.594 95.8477 374.065 100.768 369.972C105.772 365.808 111.718 364.612 114.346 367.187Z" fill="#E27C37"/>
<path d="M118.31 334.888C116.736 334.48 114.683 332.061 114.065 328.417C113.714 326.279 114.782 324.225 116.173 323.578C115.569 324.38 115.007 325.604 115.189 327.292C115.513 330.021 116.539 332.75 118.31 334.888Z" fill="#E27C37"/>
<path d="M7.4735 382.619C7.03774 381.746 6.61604 380.846 6.22246 379.946C8.02171 378.314 9.79285 375.332 7.54379 370.619C4.76057 364.781 3.41114 359.759 0.937166 358.747C0.937166 358.704 0.937152 358.676 0.923096 358.634C2.21631 358.465 3.98745 359.056 5.28067 362.699C6.95341 367.44 14.7408 378.989 7.4735 382.619Z" fill="#E27C37"/>
<path opacity="0.35" d="M128.754 354.048C128.754 357.79 128.431 361.461 127.812 365.02C125.662 377.456 119.927 388.667 111.717 397.543C106.868 402.791 101.147 407.222 94.7933 410.598C90.6606 412.806 86.2609 414.565 81.6503 415.831C76.2666 417.308 70.6017 418.082 64.7542 418.082C62.0694 418.082 59.4267 417.913 56.8403 417.589C35.1649 414.916 16.8351 401.384 7.47335 382.604C3.81862 375.289 1.52738 367.187 0.922945 358.62C0.810492 357.1 0.754272 355.567 0.754272 354.034C0.754272 344.37 2.89089 335.212 6.7143 326.997C7.33279 382.463 121.782 396.404 124.846 331.948C127.081 338.053 128.417 344.581 128.698 351.403C128.74 352.289 128.754 353.162 128.754 354.048Z" fill="url(#paint26_linear_250_1337)"/>
<path opacity="0.45" d="M103.494 405.027C100.767 407.109 97.8577 408.98 94.8074 410.612C90.6747 412.821 86.275 414.579 81.6644 415.845C76.2807 417.322 70.6159 418.096 64.7683 418.096C62.0835 418.096 59.4408 417.927 56.8544 417.603C35.1791 414.931 16.8492 401.398 7.48745 382.618C3.83272 375.303 1.5415 367.201 0.937066 358.634C0.824613 357.115 0.768372 355.581 0.768372 354.048C0.768372 344.384 2.90499 335.226 6.7284 327.011C10.1442 319.668 14.9234 313.084 20.7148 307.584C2.86282 392.789 68.5215 404.591 103.494 405.027Z" fill="url(#paint27_linear_250_1337)"/>
<path d="M128.754 354.048C128.754 357.79 128.431 361.461 127.812 365.02C127.475 366.933 127.067 368.818 126.575 370.675C124.355 319.161 89.4941 289.873 39.1853 295.317C47.0149 291.899 55.6737 290 64.7543 290C92.3475 290 115.864 307.471 124.847 331.976C127.082 338.082 128.417 344.609 128.698 351.431C128.74 352.289 128.754 353.162 128.754 354.048Z" fill="url(#paint28_linear_250_1337)"/>
</g>
<defs>
<radialGradient id="paint0_radial_250_1337" cx="0" cy="0" r="1" gradientUnits="userSpaceOnUse" gradientTransform="translate(299.254 29.6518) scale(72.9386 72.9998)">
<stop stop-color="#EFA08F"/>
<stop offset="1" stop-color="#C97324"/>
</radialGradient>
<linearGradient id="paint1_linear_250_1337" x1="262.581" y1="133.58" x2="314.467" y2="-9.25109" gradientUnits="userSpaceOnUse">
<stop stop-color="#864313"/>
<stop offset="1" stop-color="#9B4413" stop-opacity="0.1"/>
</linearGradient>
<linearGradient id="paint2_linear_250_1337" x1="254.969" y1="130.816" x2="306.855" y2="-12.0165" gradientUnits="userSpaceOnUse">
<stop stop-color="#863613"/>
<stop offset="1" stop-color="#9B4C13" stop-opacity="0.1"/>
</linearGradient>
<linearGradient id="paint3_linear_250_1337" x1="262.052" y1="133.387" x2="313.937" y2="-9.44365" gradientUnits="userSpaceOnUse">
<stop stop-color="#865113"/>
<stop offset="1" stop-color="#9B3C13" stop-opacity="0.1"/>
</linearGradient>
<linearGradient id="paint4_linear_250_1337" x1="264.644" y1="134.33" x2="316.53" y2="-8.50172" gradientUnits="userSpaceOnUse">
<stop stop-color="#864A13"/>
<stop offset="1" stop-color="#9B3C13" stop-opacity="0.1"/>
</linearGradient>
<linearGradient id="paint5_linear_250_1337" x1="265.822" y1="134.758" x2="317.708" y2="-8.0737" gradientUnits="userSpaceOnUse">
<stop stop-color="#864A13"/>
<stop offset="1" stop-color="#9B3C13" stop-opacity="0.1"/>
</linearGradient>
<linearGradient id="paint6_linear_250_1337" x1="231.354" y1="122.237" x2="283.24" y2="-20.595" gradientUnits="userSpaceOnUse">
<stop stop-color="#863C13"/>
<stop offset="1" stop-color="#9B5413" stop-opacity="0.1"/>
</linearGradient>
<linearGradient id="paint7_linear_250_1337" x1="282.35" y1="140.762" x2="334.236" y2="-2.06963" gradientUnits="userSpaceOnUse">
<stop stop-color="#864A13"/>
<stop offset="1" stop-color="#9B6513" stop-opacity="0.1"/>
</linearGradient>
<linearGradient id="paint8_linear_250_1337" x1="292.326" y1="144.386" x2="344.212" y2="1.55451" gradientUnits="userSpaceOnUse">
<stop stop-color="#863C13"/>
<stop offset="1" stop-color="#9B4413" stop-opacity="0.1"/>
</linearGradient>
<linearGradient id="paint9_linear_250_1337" x1="299.043" y1="115.379" x2="267.275" y2="-0.476875" gradientUnits="userSpaceOnUse">
<stop stop-color="#7F4612"/>
<stop offset="1" stop-color="#D5743D" stop-opacity="0.1"/>
</linearGradient>
<linearGradient id="paint10_linear_250_1337" x1="302.095" y1="125.07" x2="292.393" y2="68.6496" gradientUnits="userSpaceOnUse">
<stop stop-color="#6D2812"/>
<stop offset="1" stop-color="#6A3C12" stop-opacity="0"/>
</linearGradient>
<radialGradient id="paint11_radial_250_1337" cx="0" cy="0" r="1" gradientUnits="userSpaceOnUse" gradientTransform="translate(292.137 92.3318) scale(49.3741 49.4154)">
<stop stop-color="#EFA68F"/>
<stop offset="1" stop-color="#C96924"/>
</radialGradient>
<linearGradient id="paint12_linear_250_1337" x1="345.554" y1="-29.7463" x2="285.208" y2="66.516" gradientUnits="userSpaceOnUse">
<stop stop-color="#FFDFAE"/>
<stop offset="1" stop-color="#FFD5AE" stop-opacity="0"/>
</linearGradient>
<radialGradient id="paint13_radial_250_1337" cx="0" cy="0" r="1" gradientUnits="userSpaceOnUse" gradientTransform="translate(191.93 186.272) scale(71.0275 71.0812)">
<stop stop-color="#A0E2EA"/>
<stop offset="1" stop-color="#018ED9"/>
</radialGradient>
<linearGradient id="paint14_linear_250_1337" x1="197" y1="307.345" x2="138.042" y2="157.554" gradientUnits="userSpaceOnUse">
<stop stop-color="#7E31A6"/>
<stop offset="1" stop-color="#7731B1" stop-opacity="0.2"/>
</linearGradient>
<linearGradient id="paint15_linear_250_1337" x1="179.91" y1="314.071" x2="120.952" y2="164.281" gradientUnits="userSpaceOnUse">
<stop stop-color="#7E31A6"/>
<stop offset="1" stop-color="#7731B1" stop-opacity="0.2"/>
</linearGradient>
<linearGradient id="paint16_linear_250_1337" x1="220.352" y1="298.153" x2="161.394" y2="148.363" gradientUnits="userSpaceOnUse">
<stop stop-color="#7E31A6"/>
<stop offset="1" stop-color="#7731B1" stop-opacity="0.2"/>
</linearGradient>
<linearGradient id="paint17_linear_250_1337" x1="255.335" y1="284.384" x2="196.377" y2="134.594" gradientUnits="userSpaceOnUse">
<stop stop-color="#7E31A6"/>
<stop offset="1" stop-color="#7731B1" stop-opacity="0.2"/>
</linearGradient>
<linearGradient id="paint18_linear_250_1337" x1="207.768" y1="303.106" x2="148.81" y2="153.316" gradientUnits="userSpaceOnUse">
<stop stop-color="#7E31A6"/>
<stop offset="1" stop-color="#7731B1" stop-opacity="0.2"/>
</linearGradient>
<linearGradient id="paint19_linear_250_1337" x1="257.701" y1="283.452" x2="198.744" y2="133.662" gradientUnits="userSpaceOnUse">
<stop stop-color="#7E31A6"/>
<stop offset="1" stop-color="#7731B1" stop-opacity="0.2"/>
</linearGradient>
<linearGradient id="paint20_linear_250_1337" x1="234.503" y1="292.583" x2="175.545" y2="142.794" gradientUnits="userSpaceOnUse">
<stop stop-color="#7E31A6"/>
<stop offset="1" stop-color="#7731B1" stop-opacity="0.2"/>
</linearGradient>
<linearGradient id="paint21_linear_250_1337" x1="226.723" y1="295.646" x2="167.765" y2="145.855" gradientUnits="userSpaceOnUse">
<stop stop-color="#7E31A6"/>
<stop offset="1" stop-color="#7731B1" stop-opacity="0.2"/>
</linearGradient>
<linearGradient id="paint22_linear_250_1337" x1="178.678" y1="287.105" x2="199.676" y2="183.691" gradientUnits="userSpaceOnUse">
<stop stop-color="#6D31A3"/>
<stop offset="1" stop-color="#B842B5" stop-opacity="0.3"/>
</linearGradient>
<linearGradient id="paint23_linear_250_1337" x1="200.976" y1="302.229" x2="193.03" y2="230.346" gradientUnits="userSpaceOnUse">
<stop stop-color="#471AA3"/>
<stop offset="1" stop-color="#4C2EA3" stop-opacity="0.1"/>
</linearGradient>
<linearGradient id="paint24_linear_250_1337" x1="282.767" y1="97.8071" x2="204.184" y2="194.291" gradientUnits="userSpaceOnUse">
<stop stop-color="#A4F6F6"/>
<stop offset="1" stop-color="#B5F4F9" stop-opacity="0"/>
</linearGradient>
<radialGradient id="paint25_radial_250_1337" cx="0" cy="0" r="1" gradientUnits="userSpaceOnUse" gradientTransform="translate(61.9349 320.14) scale(97.7228 97.796)">
<stop stop-color="#FFE46A"/>
<stop offset="1" stop-color="#FFA44A"/>
</radialGradient>
<linearGradient id="paint26_linear_250_1337" x1="10.0917" y1="387.899" x2="123.303" y2="334.973" gradientUnits="userSpaceOnUse">
<stop stop-color="#E27437"/>
<stop offset="1" stop-color="#E27437" stop-opacity="0.2"/>
</linearGradient>
<linearGradient id="paint27_linear_250_1337" x1="52.3923" y1="446.681" x2="51.7669" y2="287.958" gradientUnits="userSpaceOnUse">
<stop stop-color="#CC622E"/>
<stop offset="1" stop-color="#CC622E" stop-opacity="0.2"/>
</linearGradient>
<linearGradient id="paint28_linear_250_1337" x1="121.683" y1="289.972" x2="82.7149" y2="333.115" gradientUnits="userSpaceOnUse">
<stop stop-color="#FFF2B6"/>
<stop offset="1" stop-color="#FFF49A" stop-opacity="0.2"/>
</linearGradient>
</defs>
</svg>
