<svg width="31" height="31" viewBox="0 0 31 31" fill="none" xmlns="http://www.w3.org/2000/svg">
<g clip-path="url(#clip0_271_36)">
<path d="M30.7845 9.18794C30.7672 7.89409 30.525 6.6131 30.0687 5.40227C29.6729 4.38095 29.0685 3.4534 28.294 2.6789C27.5195 1.9044 26.5919 1.29997 25.5706 0.904232C24.3754 0.45555 23.1126 0.21294 21.8362 0.186732C20.1928 0.113274 19.6717 0.0927734 15.5 0.0927734C11.3282 0.0927734 10.7935 0.0927736 9.16208 0.186732C7.88623 0.213132 6.62409 0.45574 5.42937 0.904232C4.40789 1.29969 3.4802 1.90402 2.70566 2.67856C1.93112 3.4531 1.32679 4.38079 0.931331 5.40227C0.481751 6.59662 0.239667 7.85905 0.21554 9.13498C0.142081 10.7801 0.119873 11.3011 0.119873 15.4729C0.119873 19.6446 0.119873 20.1776 0.21554 21.8108C0.241165 23.0886 0.48204 24.3494 0.931331 25.5469C1.32746 26.5681 1.93224 27.4954 2.70703 28.2696C3.48183 29.0438 4.40961 29.6479 5.43108 30.0433C6.62253 30.51 7.88488 30.77 9.16379 30.812C10.8089 30.8855 11.33 30.9077 15.5017 30.9077C19.6735 30.9077 20.2082 30.9077 21.8396 30.812C23.116 30.7869 24.3788 30.5448 25.574 30.0962C26.5951 29.7 27.5224 29.0954 28.2969 28.321C29.0713 27.5466 29.6759 26.6192 30.0721 25.5982C30.5214 24.4024 30.7622 23.1416 30.7879 21.8621C30.8613 20.2186 30.8835 19.6976 30.8835 15.5241C30.8801 11.3524 30.8801 10.8228 30.7845 9.18794ZM15.4897 23.362C11.1267 23.362 7.59212 19.8274 7.59212 15.4644C7.59212 11.1013 11.1267 7.56673 15.4897 7.56673C17.5843 7.56673 19.5931 8.3988 21.0742 9.87989C22.5553 11.361 23.3874 13.3698 23.3874 15.4644C23.3874 17.5589 22.5553 19.5677 21.0742 21.0488C19.5931 22.5299 17.5843 23.362 15.4897 23.362ZM23.7017 9.11619C23.4598 9.11641 23.2202 9.06893 22.9967 8.97647C22.7732 8.884 22.5701 8.74836 22.399 8.5773C22.228 8.40625 22.0923 8.20315 21.9998 7.97962C21.9074 7.75608 21.8599 7.51651 21.8601 7.27461C21.8601 7.03288 21.9077 6.79352 22.0002 6.57019C22.0927 6.34686 22.2283 6.14394 22.3993 5.97301C22.5702 5.80209 22.7731 5.6665 22.9964 5.57399C23.2198 5.48149 23.4591 5.43388 23.7009 5.43388C23.9426 5.43388 24.1819 5.48149 24.4053 5.57399C24.6286 5.6665 24.8315 5.80209 25.0024 5.97301C25.1734 6.14394 25.309 6.34686 25.4015 6.57019C25.494 6.79352 25.5416 7.03288 25.5416 7.27461C25.5416 8.29277 24.7182 9.11619 23.7017 9.11619Z" fill="#532C70"/>
<path d="M15.4897 20.5942C18.323 20.5942 20.6199 18.2974 20.6199 15.4641C20.6199 12.6308 18.323 10.334 15.4897 10.334C12.6565 10.334 10.3596 12.6308 10.3596 15.4641C10.3596 18.2974 12.6565 20.5942 15.4897 20.5942Z" fill="#532C70"/>
</g>
<defs>
<clipPath id="clip0_271_36">
<rect width="31" height="31" fill="white"/>
</clipPath>
</defs>
</svg>
