<svg width="31" height="31" viewBox="0 0 31 31" fill="none" xmlns="http://www.w3.org/2000/svg">
<g clip-path="url(#clip0_262_211)">
<path d="M30.7845 9.1877C30.7672 7.89384 30.525 6.61285 30.0687 5.40203C29.6729 4.38071 29.0685 3.45316 28.294 2.67866C27.5195 1.90415 26.5919 1.29972 25.5706 0.903988C24.3754 0.455306 23.1126 0.212696 21.8362 0.186488C20.1928 0.113029 19.6717 0.0925293 15.5 0.0925293C11.3282 0.0925293 10.7935 0.0925294 9.16208 0.186488C7.88623 0.212888 6.62409 0.455496 5.42937 0.903988C4.40789 1.29945 3.4802 1.90378 2.70566 2.67832C1.93112 3.45286 1.32679 4.38055 0.931331 5.40203C0.481751 6.59638 0.239667 7.8588 0.21554 9.13474C0.142081 10.7799 0.119873 11.3009 0.119873 15.4727C0.119873 19.6444 0.119873 20.1774 0.21554 21.8106C0.241165 23.0884 0.48204 24.3492 0.931331 25.5467C1.32746 26.5679 1.93224 27.4952 2.70703 28.2694C3.48183 29.0436 4.40961 29.6477 5.43108 30.043C6.62253 30.5097 7.88488 30.7697 9.16379 30.8118C10.8089 30.8852 11.33 30.9074 15.5017 30.9074C19.6735 30.9074 20.2082 30.9074 21.8396 30.8118C23.116 30.7866 24.3788 30.5446 25.574 30.096C26.5951 29.6998 27.5224 29.0952 28.2969 28.3208C29.0713 27.5463 29.6759 26.619 30.0721 25.5979C30.5214 24.4021 30.7622 23.1414 30.7879 21.8618C30.8613 20.2184 30.8835 19.6974 30.8835 15.5239C30.8801 11.3522 30.8801 10.8226 30.7845 9.1877ZM15.4897 23.3617C11.1267 23.3617 7.59212 19.8272 7.59212 15.4641C7.59212 11.101 11.1267 7.56649 15.4897 7.56649C17.5843 7.56649 19.5931 8.39856 21.0742 9.87965C22.5553 11.3607 23.3874 13.3695 23.3874 15.4641C23.3874 17.5587 22.5553 19.5675 21.0742 21.0486C19.5931 22.5297 17.5843 23.3617 15.4897 23.3617ZM23.7017 9.11594C23.4598 9.11617 23.2202 9.06869 22.9967 8.97622C22.7732 8.88375 22.5701 8.74811 22.399 8.57706C22.228 8.40601 22.0923 8.2029 21.9998 7.97937C21.9074 7.75584 21.8599 7.51627 21.8601 7.27436C21.8601 7.03263 21.9077 6.79327 22.0002 6.56995C22.0927 6.34662 22.2283 6.1437 22.3993 5.97277C22.5702 5.80184 22.7731 5.66626 22.9964 5.57375C23.2198 5.48125 23.4591 5.43363 23.7009 5.43363C23.9426 5.43363 24.1819 5.48125 24.4053 5.57375C24.6286 5.66626 24.8315 5.80184 25.0024 5.97277C25.1734 6.1437 25.309 6.34662 25.4015 6.56995C25.494 6.79327 25.5416 7.03263 25.5416 7.27436C25.5416 8.29253 24.7182 9.11594 23.7017 9.11594Z" fill="#E7D8E8"/>
<path d="M15.4897 20.5942C18.323 20.5942 20.6199 18.2974 20.6199 15.4641C20.6199 12.6308 18.323 10.334 15.4897 10.334C12.6565 10.334 10.3596 12.6308 10.3596 15.4641C10.3596 18.2974 12.6565 20.5942 15.4897 20.5942Z" fill="#E7D8E8"/>
</g>
<defs>
<clipPath id="clip0_262_211">
<rect width="31" height="31" fill="white"/>
</clipPath>
</defs>
</svg>
