<svg width="30" height="31" viewBox="0 0 30 31" fill="none" xmlns="http://www.w3.org/2000/svg">
<g clip-path="url(#clip0_271_39)">
<g clip-path="url(#clip1_271_39)">
<path d="M20.2321 22.8393L22.8571 10.4643C22.9643 9.94048 22.9018 9.56548 22.6696 9.33929C22.4375 9.1131 22.131 9.07143 21.75 9.21429L6.32143 15.1607C5.97619 15.2917 5.74107 15.4405 5.61607 15.6071C5.49107 15.7738 5.47619 15.9315 5.57143 16.0804C5.66667 16.2292 5.85714 16.3452 6.14286 16.4286L10.0893 17.6607L19.25 11.8929C19.5 11.7262 19.6905 11.6905 19.8214 11.7857C19.9048 11.8452 19.881 11.9345 19.75 12.0536L12.3393 18.75L12.0536 22.8214C12.3274 22.8214 12.5952 22.6905 12.8571 22.4286L14.7857 20.5714L18.7857 23.5179C19.5476 23.9464 20.0298 23.7202 20.2321 22.8393ZM31 15.5C31 17.6667 30.5774 19.7381 29.7321 21.7143C28.8869 23.6905 27.75 25.3929 26.3214 26.8214C24.8929 28.25 23.1905 29.3869 21.2143 30.2321C19.2381 31.0774 17.1667 31.5 15 31.5C12.8333 31.5 10.7619 31.0774 8.78571 30.2321C6.80952 29.3869 5.10714 28.25 3.67857 26.8214C2.25 25.3929 1.1131 23.6905 0.267857 21.7143C-0.577381 19.7381 -1 17.6667 -1 15.5C-1 13.3333 -0.577381 11.2619 0.267857 9.28571C1.1131 7.30952 2.25 5.60714 3.67857 4.17857C5.10714 2.75 6.80952 1.6131 8.78571 0.767857C10.7619 -0.0773809 12.8333 -0.5 15 -0.5C17.1667 -0.5 19.2381 -0.0773809 21.2143 0.767857C23.1905 1.6131 24.8929 2.75 26.3214 4.17857C27.75 5.60714 28.8869 7.30952 29.7321 9.28571C30.5774 11.2619 31 13.3333 31 15.5Z" fill="#532C70"/>
</g>
</g>
<rect x="2.5" y="3" width="25" height="25" rx="4.5" stroke="#532C70" stroke-width="5"/>
<defs>
<clipPath id="clip0_271_39">
<rect y="0.5" width="30" height="30" rx="7" fill="white"/>
</clipPath>
<clipPath id="clip1_271_39">
<rect width="30" height="30" fill="white" transform="translate(0 0.5)"/>
</clipPath>
</defs>
</svg>
