<svg width="30" height="31" viewBox="0 0 30 31" fill="none" xmlns="http://www.w3.org/2000/svg">
<path d="M19.604 0.5H10.395C1.99121 0.5 -0.000976562 2.49219 -0.000976562 10.8959V20.105C-0.000976562 28.5088 1.99121 30.5009 10.395 30.5009H19.604C28.0078 30.5009 30 28.5088 30 20.105V10.8959C30 2.49219 27.9881 0.5 19.604 0.5ZM24.2184 21.9013H22.0406C21.2156 21.9013 20.9615 21.2469 19.4775 19.7431C18.1884 18.4934 17.6175 18.3275 17.2996 18.3275C16.8506 18.3275 16.7231 18.4541 16.7231 19.07V21.0378C16.7231 21.5656 16.5571 21.8825 15.1603 21.8825C12.8503 21.8825 10.2871 20.4856 8.48996 17.8831C5.77965 14.0694 5.03809 11.2128 5.03809 10.6222C5.03809 10.3044 5.16465 10.0072 5.77496 10.0072H7.95746C8.50965 10.0072 8.71965 10.2613 8.93434 10.8519C10.0134 13.9672 11.8106 16.6963 12.5521 16.6963C12.8259 16.6963 12.9525 16.5697 12.9525 15.8713V12.6538C12.869 11.1697 12.0881 11.0422 12.0881 10.5153C12.0881 10.2613 12.2981 10.0072 12.6347 10.0072H16.0668C16.5309 10.0072 16.7015 10.2613 16.7015 10.8078V15.1484C16.7015 15.6172 16.9115 15.7831 17.0381 15.7831C17.3118 15.7831 17.5462 15.6172 18.0534 15.1091C19.6209 13.3513 20.744 10.6409 20.744 10.6409C20.8903 10.3231 21.1443 10.0259 21.6965 10.0259H23.879C24.5334 10.0259 24.6796 10.3625 24.5334 10.8313C24.2596 12.1006 21.5887 15.8703 21.5887 15.8703C21.359 16.2509 21.2709 16.4169 21.5887 16.8416C21.8231 17.1594 22.5853 17.8184 23.0925 18.4091C24.0253 19.4684 24.7425 20.3572 24.9337 20.9722C25.1484 21.5825 24.8315 21.9003 24.2156 21.9003L24.2184 21.9013Z" fill="#E7D8E8"/>
</svg>
